<?xml version="1.0" encoding="UTF-8" standalone="no"?>
<svg
   xmlns:dc="http://purl.org/dc/elements/1.1/"
   xmlns:cc="http://creativecommons.org/ns#"
   xmlns:rdf="http://www.w3.org/1999/02/22-rdf-syntax-ns#"
   xmlns:svg="http://www.w3.org/2000/svg"
   xmlns="http://www.w3.org/2000/svg"
   xmlns:sodipodi="http://sodipodi.sourceforge.net/DTD/sodipodi-0.dtd"
   xmlns:inkscape="http://www.inkscape.org/namespaces/inkscape"
   inkscape:version="1.0 (4035a4fb49, 2020-05-01)"
   inkscape:export-ydpi="87.720001"
   inkscape:export-xdpi="87.720001"
   inkscape:export-filename="C:\Users\SimonDückert\OneDrive - Cogneon GmbH\Dokumente\GitHub\lernos-for-organizations\de\src\images\organisation-als-organismus.png"
   sodipodi:docname="organisation-als-organismus.svg"
   enable-background="new 0 0 1554.103 1655.549"
   viewBox="0 0 1122.5196 793.70083"
   y="0px"
   x="0px"
   id="Layer_1"
   version="1.1"
   width="297mm"
   height="210mm">
  <metadata
     id="metadata5589">
    <rdf:RDF>
      <cc:Work
         rdf:about="">
        <dc:format>image/svg+xml</dc:format>
        <dc:type
           rdf:resource="http://purl.org/dc/dcmitype/StillImage" />
        <dc:title />
      </cc:Work>
    </rdf:RDF>
  </metadata>
  <defs
     id="defs5587" />
  <sodipodi:namedview
     inkscape:current-layer="Layer_1"
     inkscape:window-maximized="1"
     inkscape:window-y="-8"
     inkscape:window-x="-8"
     inkscape:cy="359.59318"
     inkscape:cx="1307.7486"
     inkscape:zoom="0.33216167"
     showgrid="false"
     id="namedview5585"
     inkscape:window-height="1027"
     inkscape:window-width="2560"
     inkscape:pageshadow="2"
     inkscape:pageopacity="0"
     guidetolerance="10"
     gridtolerance="10"
     objecttolerance="10"
     borderopacity="1"
     bordercolor="#666666"
     pagecolor="#ffffff"
     inkscape:document-rotation="0"
     inkscape:document-units="mm"
     units="mm" />
  <g
     id="g19097"
     transform="matrix(0.61971478,0,0,0.61971478,-416.68724,-290.79146)" />
  <text
     xml:space="preserve"
     style="font-style:normal;font-weight:normal;font-size:40px;line-height:1.25;font-family:sans-serif;fill:#000000;fill-opacity:1;stroke:none"
     x="514.41858"
     y="50.05154"
     id="text19101"><tspan
       sodipodi:role="line"
       id="tspan19099"
       x="514.41858"
       y="50.05154" /></text>
  <g
     transform="translate(-1.0042741e-5,93.614024)"
     id="g202">
    <g
       style="fill:#0000ff"
       id="g18"
       transform="matrix(0.2522505,0,0,0.2522505,724.24414,141.80504)">
      <g
         style="fill:#0000ff"
         id="g16">
        <path
           style="fill:#0000ff"
           fill="#040000"
           d="m 673.208,31.827 c 13.572,10.792 33.383,15.067 47.574,26.575 7.74,6.28 14.662,16.905 17.643,26.445 6.868,21.98 7.287,57.184 -1.371,79.073 -3.891,9.84 -9.966,16.813 -7.11,25.68 1.918,5.952 8.13,13.101 11.328,18.639 6.303,10.917 13.653,21.575 18.856,33.072 6.809,15.045 8.816,34.018 0.826,49.024 -5.42,10.182 -22.293,33.267 -33.878,36.534 10.038,7.382 18.737,14.176 22.42,26.465 1.634,5.452 3.982,17.617 2.193,22.932 -2.459,7.3 -5.947,5.094 -10.333,9.937 -5.807,6.411 -4.333,6.35 -2.041,17.198 1.837,8.696 3.62,17.157 6.087,25.709 1.624,5.636 3.629,11.261 4.429,17.09 3.537,25.761 2.65,54.846 1.855,80.78 -0.768,25.034 -17.234,73.619 -44.725,80.281 3.863,10.605 10.6,21.437 15.1,32.013 4.863,11.426 9.162,22.956 14.158,34.336 4.116,9.379 6.832,18.47 9.354,28.263 1.828,7.102 3.465,13.436 4.116,20.841 2.705,30.791 1.556,62.237 1.704,93.096 0.109,23.032 4.67,49.436 -5.412,70.179 -6.384,13.132 -14.063,21.912 -23.565,32.176 21.41,19.464 39.23,60.994 32.176,89.641 -1.556,6.319 -5.308,12.328 -9.081,17.534 -7.985,11.016 -8.433,11.742 -3.808,24.442 5.499,15.097 9.527,28.618 13.336,44.364 5.314,21.967 8.646,36.503 9.075,60.034 0.472,25.888 4.469,53.592 -4.473,78.462 -4.442,12.355 -15.778,26.75 -16.914,39.421 -1.245,13.892 14.809,27.915 19.859,40.579 4.736,11.879 4.817,27.064 4.455,39.641 -0.784,27.313 -12.97,51.978 -17.13,78.78 -1.733,11.169 -7.518,28.899 -5.448,40.166 0.298,1.624 6.101,5.469 6.763,7.346 1.635,4.64 0.533,7.257 1.15,11.644 0.562,3.99 1.672,7.872 2.17,11.839 3.215,25.612 0.85,50.679 -15.142,71.682 -7.007,9.205 -16.304,15.665 -26.215,21.195 -5.595,3.122 -10.834,5.981 -16.928,7.972 -2.408,0.787 -9.853,-1.778 -10.607,-1.407 -6.456,3.184 -11.754,13.081 -19.193,17.031 -4.608,2.446 -9.103,4.17 -14.117,5.456 -21.044,5.401 -48.44,4.456 -69.855,0.737 -21.398,-3.715 -46.911,-16.588 -66.108,-26.684 -15.616,-8.212 -22.918,-15.862 -32.313,-29.021 -5.954,-8.339 -13.983,-15.034 -21.588,-21.979 -5.278,-4.819 -11.84,-14.693 -17.777,-18.06 -14.064,-7.978 -44.653,5.031 -62.399,7.176 -30.419,3.677 -58.768,0.438 -85.77,-14.05 -12.889,-6.916 -26.056,-10.711 -36.284,-21.771 -13.432,-14.524 -18.71,-33.543 -27.07,-50.892 -7.793,-16.171 -3.597,-48.626 -18.413,-56.459 -5.194,-2.746 -14.399,-4.239 -20.157,-6.262 -22.19,-7.798 -35.039,-16.562 -50.456,-34.831 -10.383,-12.303 -17.751,-26.369 -26.732,-39.748 -19.722,-29.377 -29.538,-55.651 -25.473,-91.5 1.212,-10.686 4.184,-20.863 5.659,-31.595 1.434,-10.433 7.903,-21.91 7.343,-29.514 -0.584,-7.934 -6.267,-16.001 -7.355,-24.289 -1.343,-10.23 6.016,-25.748 2.914,-34.407 -2.977,-8.313 -19.837,-20.357 -26.022,-26.096 -8.255,-7.658 -15.901,-15.626 -23.306,-24.12 C 36.511,1033.79 29.53,1015.527 26.794,993.396 22.081,955.287 41.22,917.236 64.748,888.749 36.977,873.481 24.017,857.846 29.01,823.983 c 2.582,-17.512 9.856,-38.453 17.254,-53.971 6.56,-13.758 15.447,-24.119 24.838,-36.2 3.09,-1.862 6.206,-3.679 9.347,-5.452 -0.399,-4.975 -0.732,-9.955 -0.996,-14.94 -0.406,-7.55 -0.702,-15.115 -0.763,-22.676 -0.117,-14.788 3.643,-25.094 9.585,-38.794 5.51,-12.703 11.571,-21.614 22.68,-30.319 11.184,-8.764 12.593,-6.648 9.075,-21.206 -4.332,-17.928 -9.094,-35.279 -9.857,-53.824 -1.672,-40.653 -0.266,-72.968 21.272,-108.768 13.712,-22.791 33.398,-36.612 53.39,-53.645 18.438,-15.707 21.007,-39.799 22.732,-63.427 1.7,-23.266 4.283,-54.85 19.737,-73.401 8.565,-10.281 19.032,-15.173 31.873,-17.132 12.256,-1.869 32.864,3.524 34.375,-14.285 0.888,-10.478 -6.443,-23.803 -6.628,-34.981 -0.352,-21.21 7.13,-41.402 18.811,-58.89 33.517,-50.18 85.363,-67.14 141.872,-45.499 9.537,3.652 25.648,17.992 35.777,16.144 9.369,-1.709 18.523,-16.905 27.134,-21.869 18.149,-10.46 39.963,-19.265 61.015,-21.09 8.075,-0.701 9.573,-0.476 15.733,-4.294 5.003,-3.103 8.148,-6.989 13.728,-9.668 12.639,-6.068 26.192,-6.157 39.921,-6.902 9.749,-0.529 23.707,-3.433 32.293,2.933 m -19.843,10.722 c -48.536,-14.263 -76.771,35.754 -80.735,75.265 -0.918,9.124 -1.096,13.778 -5.116,21.222 -1.508,2.796 -5.181,1.808 -6.777,5.878 -7.829,19.972 16.81,34.127 32.631,33.148 2.962,-0.184 27.97,-8.825 26.7,3.334 -0.469,4.48 -16.302,4.998 -20.109,5.64 -17.217,2.904 -38.276,6.613 -52.539,-6.181 -12.161,-10.908 -15.43,-40.848 -4.293,-54.172 3.164,-3.786 10.575,-4.917 12.989,-8.309 3.444,-4.839 2.77,-16.103 4.319,-21.706 3.464,-12.535 7.998,-23.545 14.687,-34.546 -33.575,6.723 -69.366,20.525 -86.419,52.716 -10.078,19.023 -6.332,36.679 -3.899,56.636 1.268,10.417 5.258,26.705 3.768,36.95 -0.996,6.841 -8.402,18.71 -16.471,10.912 -5.782,-5.587 -1.164,-40.574 -2.56,-49.946 -0.838,-5.627 -0.498,-12.102 -1.837,-17.508 -2.946,-11.898 -5.894,-6.93 -17.191,-6.583 -8.696,0.266 -33.676,-3.776 -20.229,-11.884 7.044,-4.248 20.77,0.783 28.682,-2.017 8.616,-3.048 4.392,-0.661 8.651,-6.93 1.892,-2.783 6.108,-12.301 6.988,-15.649 -8.121,-2.428 -12.694,-7.96 -20.297,-11.798 -8.429,-4.256 -18.338,-8.238 -27.403,-11.11 -20.588,-6.523 -44.1,-7.17 -64.303,1.837 -23.873,10.645 -45.46,40.316 -56.194,63.516 -11.625,25.123 -3.484,47.202 5.176,72.134 6.226,-4.726 85.266,-47.176 84.112,-25.334 -0.393,7.438 -21.389,8.65 -25.732,10.269 -5.017,1.869 -10.916,5.395 -15.798,7.886 -10.843,5.533 -10.495,5.606 -13.559,16.39 -4.871,17.137 -6.312,33.735 -28.848,19.514 -7.061,17.642 -8.102,31.355 -9.806,49.434 -0.505,5.355 -0.218,15.438 -9.055,12.294 -7.45,-2.651 -3.815,-20.895 -3.812,-27.205 0.005,-7.821 0.386,-14.413 1.975,-21.813 0.982,-4.574 8.839,-22.489 7.619,-24.029 -2.767,-3.492 -21.392,1.307 -25.66,2.176 -33.304,6.781 -47.585,29.527 -50.814,63.192 -1.021,10.641 -0.084,21.452 -0.579,32.124 -0.639,13.778 -3.556,17.824 6.065,24.766 6.939,5.005 7.117,0.779 10.689,8.853 1.43,3.233 7.33,17.132 7.321,19.071 -0.081,17.52 -23.09,-0.004 -32.151,-2.946 -15.624,-5.071 -30.213,16.436 -42.585,26.996 -25.065,21.393 -40.906,48.751 -45.618,81.998 -4.351,30.688 -1.895,63.536 8.759,92.771 5.973,16.391 11.672,31.931 24.065,44.525 3.121,3.171 15.54,10.477 5.334,15.422 -5.297,2.566 -14.038,-4.628 -18.004,-8.073 -3.86,-3.352 -9.142,-14.214 -13.903,-14.829 -4.551,-0.588 -17,12.607 -19.356,15.359 -10.67,12.469 -16.638,31.721 -17.784,48.077 -1.783,25.432 7.746,57.956 31.915,70.311 4.753,-18.546 9.799,-37.049 19.371,-53.777 5.706,-9.974 19.245,-32.051 32.083,-34.05 28.552,-4.446 -2.04,18.575 -6.885,24.208 -11.734,13.643 -19.362,31.422 -24.609,48.473 -8.813,28.644 -3.904,61.324 15.524,85.073 6.891,8.426 27.074,17.421 29.694,27.48 3.534,13.567 -15.78,9.266 -23.638,3.655 -9.863,-7.043 -16.987,-19.809 -23.673,-29.6 -4.6,-6.736 -8.393,-11.354 -11.623,-19.306 -2.678,-6.592 -3.899,-26.734 -6.981,-30.874 -1.307,-1.755 -11.597,-4.714 -14.38,-6.953 -5.307,-4.267 -9.627,-10.066 -13.814,-15.386 -7.622,-9.685 -7.156,-15.201 -18.09,-6.975 -19.785,14.887 -38.488,58.134 -34.608,82.844 3.072,19.57 22.434,36.217 39.058,45.405 13.263,7.332 30.729,16.769 45.795,18.005 10.195,0.836 31.413,-8.663 39.9,-0.078 4.528,4.581 2.813,15.376 5.358,21.573 3.191,7.768 9.187,14.961 13.823,21.89 8.533,12.756 16.026,26.106 28.084,35.949 20.334,16.598 44.668,13.58 66.037,25.129 25.06,13.544 -12.697,12.758 -21.937,11.629 -59.753,-7.307 -72.18,-63.309 -111.736,-97.489 -10.033,-8.668 -16.412,-4.646 -29.356,-6.16 -13.027,-1.523 -26.182,-11.408 -39.212,-11.941 -8.885,-0.363 -7.834,1.615 -14.147,11.041 -3.668,5.475 -7.811,10.962 -10.693,16.929 -4.782,9.901 -8.347,22.587 -10.798,33.431 -10.35,45.81 16.881,101.5 61.489,119.081 13.344,5.26 16.294,4.7 14.997,19.606 -1.329,15.28 -7.39,25.504 -3.353,41.46 4.402,17.406 17.628,32.445 34.831,37.895 14.527,4.602 30.41,-0.024 44.567,5.085 0.404,22.569 -70.648,4.502 -79.17,-0.983 -22.709,54.008 -5.59,99.43 26.27,145.722 31.058,45.128 83.923,57.375 135.897,47.694 23.92,-4.456 46.441,-20.615 63.247,-37.674 4.867,-4.94 31.861,-31.886 25.976,-7.288 -1.963,8.205 -15.162,18.876 -20.815,24.006 -9.432,8.559 -26.378,17.902 -33.753,27.64 -8.731,11.529 1.594,29.296 11.558,38.291 11.91,10.75 25.129,12.446 40.41,12.611 5.764,0.062 30.108,-2.715 32.993,5.515 7.443,21.233 -58.175,12.866 -67.67,9.153 -27.676,-10.821 -36.493,-33.007 -34.537,-60.816 -22.221,5.564 -38.636,6.467 -61.513,6.336 7.481,25.175 9.026,47.893 22,71.295 11.891,21.446 24.889,34.531 47.687,43.906 57.007,23.44 135.601,14.639 182.07,-28.512 -18.431,-2.96 -29.959,-14.742 -39.599,-29.499 -10.482,-16.045 -7.515,-36.487 -17.2,-52.172 0.164,-8.215 -2.919,-10.105 -9.251,-5.669 -3.484,0.61 -6.983,0.789 -10.494,0.539 -6.722,0.481 -16.71,1.318 -22.926,-1.618 -4.601,-2.173 -17.408,-15.135 -12.142,-19.297 2.533,-2.003 17.928,3.002 21.617,2.975 5.701,-0.041 11.674,-1.357 17.218,-2.547 10.378,-2.227 19.639,-5.365 28.458,-11.295 6.106,-4.107 16.933,-17.973 24.82,-18.037 15.207,-0.126 6.121,14.956 2.116,21.599 -12.731,21.115 -23.165,39.867 -14.52,65.477 2.281,6.762 7.577,13.984 12.796,18.708 5.103,4.62 26.581,20.186 31.977,19.458 2.163,-0.293 13.571,-11.622 14.767,-13.427 4.81,-7.252 4.529,-9.394 1.808,-18.813 -4.267,-14.764 -10.948,-32.164 0.136,-46.175 12.173,8.313 10.727,33.796 14.386,46.928 2.742,9.843 7.538,18.911 14.352,26.553 12.383,13.891 29.233,20.181 45.643,27.767 13.86,6.407 21.618,16.536 0.228,15.906 -22.68,-0.667 -49.878,-18.155 -62.184,-36.745 -11.652,11.805 -29.179,18.253 -42.343,28.805 -11.946,9.576 -22.936,14.674 -35.754,22.104 35.901,20.776 54.874,58.035 94.657,72.849 32.286,12.023 65.221,20.343 99.015,8.385 11.829,-4.185 21.911,-10.003 28.496,-20.907 4.153,-6.874 5.316,-15.178 10.585,-21.451 7.646,6.664 7.848,17.977 7.418,27.261 23.908,-17.547 43.492,-31.841 47.45,-63.222 3.293,-26.109 -7.788,-50.507 -9.193,-76.36 -18.298,11.997 -33.314,24.535 -54.082,31.249 -18.267,5.904 -17.196,-5.507 -3.95,-14.138 15.797,-10.294 32.393,-16.226 46.751,-29.251 15.468,-14.032 20.8,-17.462 22.895,-39.158 -40.049,14.135 -70.442,19.503 -114.066,13.018 -38.669,-5.749 -74.17,-42.124 -76.46,-81.475 -26.173,5.525 -43.971,6.176 -59.27,-18.588 -13.703,-22.181 -11.713,-44.141 -10.771,-68.802 -33.8,23.085 -58.332,31.547 -98.841,30.531 -32.485,-0.814 -67.981,-3.36 -97.952,-16.489 -29.942,-13.116 -45.786,-41.631 -59.002,-70.354 -17.212,-37.408 -37.733,-79.231 -20.83,-120.533 -29.721,-1.046 -61.571,-23.821 -73.932,-50.954 -2.8,-6.147 -3.063,-19.559 -6.526,-24.054 -4.31,-5.595 -15.258,-3.64 -23.989,-4.189 -10.806,-0.68 -24.473,-1.526 -28.539,-13.518 -1.498,-4.42 -0.813,-17.181 4.293,-20.046 7.495,-4.208 25.402,13.692 38.674,8.924 16.096,-5.782 14.534,-23.894 27.363,-31.719 15.904,-9.7 14.272,13.048 11.808,23.918 -3.598,15.877 -18.171,22.799 -13.563,38.833 2.8,9.745 7.178,19.039 13.525,26.988 11.383,14.257 27.658,22.048 44.568,27.748 6.42,2.165 24.078,4.237 25.609,12.652 0.378,2.073 -7.084,16.983 -7.778,21.502 -1.829,11.9 -2.239,23.192 -0.094,35.06 5.971,33.04 22.509,72.391 42.546,99.423 13.287,17.927 34.742,26.768 55.582,32.861 45.507,13.305 93.278,15.945 136.335,-5.275 19.47,-9.595 31.138,-21.853 46.528,-36.512 4.796,-4.57 14.966,-15.843 17.944,-2.908 1.601,6.958 -12.127,20.782 -14.484,27.381 -6.664,18.66 -8.983,52.308 6,68.122 13.513,14.262 35.197,7.029 52.073,11.106 16.286,3.933 9.885,19.842 14.717,33.901 4.704,13.684 14.579,27.198 26.241,35.802 22.641,16.705 57.843,20.194 84.945,17.728 25.87,-2.354 61.463,-20.406 66.965,-48.652 3.907,-20.057 -3.247,-34.225 -17.104,-46.993 -1.402,5.927 -6.768,21.714 -13.084,24.602 -12.496,5.714 -11.057,-6.715 -8.583,-15.137 5.088,-17.322 12.517,-34.745 19.424,-51.526 17.249,-41.915 23.976,-82.581 17.519,-128.052 -3.749,-26.395 -12.45,-56.148 -23.818,-79.767 -4.095,-8.509 -7.128,-16.818 -12.457,-24.667 -3.312,-4.878 -23.508,-20.727 -23.501,-25.17 0.009,-6.31 13.832,-5.708 17.313,-4.909 12.106,2.778 13.743,13.923 21.389,22.057 3.922,-12.292 9.776,-23.877 8.666,-36.944 -1.205,-14.192 -10.491,-40.044 -23.862,-47.475 -8.218,-4.568 -4.33,-2.873 -12.925,0.331 -5.977,2.229 -11.833,6.342 -17.402,9.422 -12.712,7.03 -25.352,12.31 -39.093,16.869 -6.837,2.268 -13.272,3.569 -19.846,6.243 -4.932,2.005 -12.328,8.854 -18.041,8.297 -12.91,-1.258 -5.419,-9.01 1.598,-14.041 9.066,-6.501 18.487,-9.958 29.118,-13.964 54.913,-20.692 101.792,-51.723 101.833,-115.5 0.028,-45.193 5.559,-101.172 -11.188,-143.929 -7.849,-20.037 -15.985,-40.581 -25.431,-59.903 -7.605,-15.556 -28.093,-36.457 -28.969,-54.131 8.992,-2.571 22.121,10.216 25.368,17.394 45.742,-23.532 41.474,-89.503 38.24,-131.65 -1.288,-16.78 -7.612,-29.081 -12.554,-44.512 -2.913,-9.098 -3.479,-21.676 -3.24,-31.146 0.263,-10.408 8.021,-22.605 7.045,-32.105 -2.329,-22.668 -49.868,-38.289 -68.216,-43.958 -18.734,-5.789 -38.235,-7.808 -57.644,-4.623 -26.128,4.288 -52.381,22.501 -79.449,18.09 -0.805,-11.871 26.378,-15.183 33.797,-17.576 14.35,-4.628 28.412,-8.77 43.496,-11.377 16.945,-2.93 33.861,-4.778 50.7,-0.573 14.957,3.737 29.068,9.322 42.694,16.222 22.891,11.593 31.169,0.403 43.455,-18.677 19.682,-30.567 6.318,-50.893 -10.89,-78.155 -10.726,-16.991 -21.107,-30.995 -37.883,-43.098 -9.386,-6.772 -21.348,-10.94 -30.205,-18.153 -6.871,-5.596 -16.546,-22.681 -3.019,-22.446 6.021,0.105 20.202,14.88 25.306,18.471 12.434,8.745 24.479,17.659 35.852,27.789 13.096,-25.481 13.488,-59.861 3.351,-86.293 -11.443,-29.831 -38.656,-36.17 -66.067,-45.745 -2.231,-0.654 4.378,1.529 0,0 z"
           id="path2" />
        <path
           style="fill:#0000ff"
           fill="#040000"
           d="m 483.527,241.287 c -10.431,19.86 -27.405,25.758 -33.964,49.67 -5.396,19.666 -6.751,42.601 10.743,56.432 8.99,7.107 35.755,20.86 47.369,20.12 6.487,-0.413 25.016,-24.32 31.104,-19.734 9.037,6.807 -15.638,31.551 -18.13,36.464 -4.669,9.209 -5.801,24.645 -13.57,31.705 -19.868,18.057 -5.615,-29.486 -3.281,-36.146 -19.634,-1.389 -37.583,-0.891 -54.244,-13.626 -7.52,-5.749 -9.53,-11.994 -17.308,-13.887 -7.37,-1.792 -17.988,2.058 -26.067,1.152 -12.204,-1.37 -23.963,-4.032 -27.406,-17.307 -3.844,-14.823 2.966,-9.94 14.001,-6.719 12.115,3.536 24.379,4.365 36.987,5.432 -2.764,-14.78 -2.62,-36.674 1.475,-51.236 4.42,-15.721 32.991,-49.493 52.291,-42.32 -2.275,4.331 -2.878,-1.071 0,0 z"
           id="path4" />
        <path
           style="fill:#0000ff"
           fill="#040000"
           d="m 644.381,349.866 c -1.883,8.318 -8.06,14.267 -11.154,21.977 -2.651,6.599 -2.708,14.249 -5.894,20.589 8.084,-0.341 32.943,-4.771 39.366,3.814 9.743,13.022 -18.223,7.891 -23.848,7.599 -26.44,-1.375 -61.159,2.048 -82.541,18.764 -23.949,18.722 -37.357,48.45 -50.528,74.864 -9.867,19.788 -23.691,31.535 -38.203,47.282 -12.17,13.205 -14.416,28.25 -15.195,45.136 -0.63,13.649 4.932,26.985 12.371,38.276 7.76,11.78 15.169,17.09 7.327,30.959 -8.954,15.832 -17.533,24.936 -8.836,44.532 4.266,9.612 10.07,16.225 19.257,21.415 11.061,6.25 24.574,10.084 37.095,11.205 4.864,0.435 14.24,2.054 18.826,0.125 5.954,-2.506 8.183,-9.799 12.138,-15.377 5.629,-7.939 13.556,-15.789 23.09,-18.879 3.625,-1.175 8.528,-4.257 12.314,-1.325 7.383,5.717 -4.139,13.725 -8.948,18.108 -10.552,9.618 -18.169,17.641 -22.103,31.978 -3.717,13.541 -0.028,26.465 -1.069,40.253 26.906,-0.738 43.821,9.286 54.131,35.462 32.23,-11.451 87.488,-25.227 101.144,21.625 8.355,28.663 -12.577,15.326 -22.791,2.197 -12.371,-15.902 -24.415,-26.926 -47.323,-19.945 -9.764,2.976 -23.092,18.154 -32.721,17.727 -8.483,-0.376 -14.385,-12.398 -18.603,-18.597 -16.899,-24.829 -35.734,-30.608 -63.677,-17.026 -25.533,12.41 -45.896,43.124 -50.431,70.878 -2.855,17.471 0.978,41.409 6.795,58.035 1.552,4.436 16.406,24.822 13.667,29.283 -5.111,8.328 -20.312,-0.648 -23.579,-5.525 -3.224,-4.812 -3.29,-11.503 -4.658,-16.967 -1.537,-6.139 -3.361,-11.662 -4.4,-18.024 -1.084,-6.64 1.553,-24.099 -2.252,-28.451 -5.224,-5.975 -35.11,-8.029 -43.913,-7.436 -16.372,1.104 -35.614,7.839 -49.643,16.101 -8.836,5.205 -18.357,18.959 -28.346,11.813 -6.574,-4.702 -9.01,-18.93 -12.24,-25.831 -5.971,-12.76 -13.621,-23.169 -26.582,-29.449 -15.309,-7.419 -32.463,-4.697 -47.688,-12.039 8.483,-11.905 39.03,-4.308 50.027,-0.971 23.864,7.244 40.555,25.494 46.237,49.995 23.588,-10.042 50.535,-22.179 76.8,-22.423 12.399,-0.115 23.14,4.288 35.012,7.003 1.132,-45.947 37.85,-87.362 83.167,-95.364 -4.194,-14.666 -3.007,-27.896 -3.367,-43.436 -32.594,5.447 -72.917,-3.28 -91.093,-33.569 -14.449,-24.078 -9.811,-55.48 12.914,-72.035 -16.811,-16.625 -37.768,-55.021 -20.835,-77.668 -23.691,-0.987 -131.847,-4.61 -93.553,-53.493 15.766,11.454 22.052,23.849 42.581,30.588 31.621,10.381 52.345,3.994 77.296,-18.243 30.395,-27.089 40.226,-70.488 67.409,-100.253 20.869,-22.852 49.692,-32.359 80.109,-32.359 -17.796,-1.853 -3.994,-22.326 2.206,-31.408 1.786,-2.619 25.785,-28.021 24.735,-11.49 -2.112,9.33 0.273,-4.297 0,0 z"
           id="path6" />
        <path
           style="fill:#0000ff"
           fill="#040000"
           d="m 343.992,350.877 c 15.62,4.948 7.148,27.726 4.241,37.569 -3.175,10.758 -5.342,23.524 -4.251,34.823 1.444,14.941 15.696,29.869 15.705,44.138 0.009,13.71 -20.795,16.908 -31.416,24.636 -48.506,35.295 -82.283,103.949 -83.018,162.936 -0.783,62.952 42.089,119.549 98.584,143.405 4.959,2.094 24.682,9.21 17.054,16.958 -6.301,6.4 -27.322,-3.367 -33.1,-6.018 -17.184,-7.886 -32.716,-20.147 -45.539,-33.926 -4.302,-4.622 -11.779,-18.668 -17.535,-20.393 -5.238,-1.571 -23.319,9.693 -27.79,12.878 -8.363,5.957 -24.428,43.17 -35.632,38.695 -9.938,-3.969 4.742,-32.072 9.15,-37.123 10.485,-12.016 29.391,-23.63 45.382,-25.681 -22.925,-25.703 -26.988,-76.049 -23.383,-108.198 0.522,-4.663 3.945,-13.099 2.457,-17.804 -1.634,-5.171 -14.968,-13.455 -19.304,-17.537 -3.222,-3.034 -6.253,-6.836 -9.876,-9.387 -5.591,-3.936 -13.431,-6.669 -19.945,-8.185 -7.101,-1.652 -30.699,0.998 -31.4,-11.138 36.263,-11.007 62.188,2.8 84.687,30.455 3.98,-15.747 10.382,-32.773 18.286,-46.919 5.727,-10.249 19.71,-19.828 23.162,-30.788 2.873,-9.123 1.911,-5.193 -5.395,-14.036 -4.109,-4.972 -6.884,-10.643 -9.978,-16.259 -3.099,-5.627 -7.492,-11.197 -9.218,-17.48 -3.471,-12.644 1.958,-12.255 -12.717,-13.459 -15.358,-1.259 -25.949,-1.276 -39.566,7.221 -6.162,3.845 -23.377,18.836 -26.214,0.194 -1.927,-12.67 26.572,-16.973 35.253,-19.261 14.414,-3.797 26.292,-4.506 41.251,-4.077 1.055,-14.355 -2.073,-34.688 5.812,-47.66 8.092,-13.314 25.879,-30.208 41.764,-30.283 0.374,9.174 -9.451,13.566 -14.959,19.589 -6.934,7.583 -10.097,15.592 -12.599,25.595 -9.578,38.296 0.58,60.436 19.767,92.14 10.139,-12.509 22.378,-23.505 31.731,-36.609 4.889,-6.848 8.008,-12.249 7.96,-19.598 -0.036,-5.518 -3.087,-12.087 -3.548,-17.877 -1.848,-23.191 0.807,-61.354 14.137,-81.536 4.035,1.278 -6.144,9.302 0,0 z"
           id="path8" />
        <path
           style="fill:#0000ff"
           fill="#040000"
           d="m 637.372,476.641 c 21.262,2.65 -8.119,16.023 -11.974,18.924 -5.975,4.5 -10.762,12.2 -15.857,18.001 -2.428,2.764 -12.743,11.899 -13.083,15.547 -0.51,5.465 13.055,20.189 15.483,25.531 13.656,30.052 11.172,64.408 -4.961,91.405 18.854,0.709 35.051,-0.641 52.61,8.585 6.913,3.632 47.418,34.18 26.142,36.88 -7.567,0.96 -19.429,-13.751 -25.264,-17.913 -8.906,-6.352 -19.021,-12.909 -29.84,-15.353 -9.24,-2.087 -62.86,7.347 -64.844,1.973 5.287,-11.591 13.882,-5.873 22.192,-10.88 7.6,-4.579 3.967,-2.235 6.727,-11.526 1.226,-4.127 2.134,-8.437 3.393,-12.597 5.917,-19.547 6.746,-34.413 1.571,-54.438 -2.355,-9.111 -5.52,-18.505 -11.142,-26.198 -8.392,-11.485 -14.844,-6.714 -27.829,-7.858 -14.025,-1.235 -26.289,-8.558 -20.325,-26.532 10.252,0.633 17.999,4.842 28.516,2.921 9.544,-1.745 18.696,-7.529 26.666,-12.823 11.062,-7.348 26.811,-25.223 41.819,-23.649 6.597,0.821 -3.559,-0.374 0,0 z"
           id="path10" />
        <path
           style="fill:#0000ff"
           fill="#040000"
           d="m 556.846,983.266 c -2.76,14.047 -10.098,23.464 -7.346,38.256 1.208,6.499 3.597,15.153 8.239,20.145 7.155,7.695 10.224,5.253 19.736,4.103 12.617,-1.526 24.965,-3.756 35.85,4.452 7.759,5.851 9.221,11.712 19.324,15.282 4.213,1.489 55.285,11.106 28.326,18.535 -13.907,3.832 -40.71,-8.998 -52.745,-14.506 -9.256,-4.236 -13.509,-7.618 -23.247,-6.071 -4.713,0.748 -8.681,3.429 -13.001,5.151 -1.878,0.748 -3.375,2.335 -5.342,2.987 -10.784,3.573 -22.946,2.365 -34.101,1.883 -29.794,-1.285 -55.221,-1.968 -80.288,-18.859 -15.099,-10.174 -33.457,-18.693 -26.485,-41.167 9.992,1.249 15.902,11.658 22.479,18.046 8.97,8.713 17.973,13.675 29.775,17.551 18.845,6.19 45.007,13.565 64.946,8.739 -13.14,-14.705 -14.037,-29.99 -12.783,-49.646 0.506,-7.934 1.345,-14.001 5.306,-20.927 2.873,-5.023 25.387,-19.219 21.357,-3.954 -0.921,4.68 0.9,-3.412 0,0 z"
           id="path12" />
        <path
           style="fill:#0000ff"
           fill="#040000"
           d="m 340.423,1007.205 c -0.208,29.846 -25.275,61.288 -16.937,91.382 10.263,37.036 59.533,36.935 87.087,20.641 7.872,-4.655 5.927,-7.533 14.096,-3.542 5.278,2.579 10.146,9.761 14.814,13.453 20.648,16.335 46.335,23.712 72.071,27.26 31.891,4.397 58.529,0.314 88.441,-12.063 11.979,-4.958 22.125,-11.255 31.936,-19.678 5.152,-4.421 16.804,-20.358 24.416,-17.412 26.468,10.245 -45.874,46.363 -47.296,48.219 -3.226,4.21 -4.23,24.88 -2.66,31.842 3.071,13.616 14.76,17.299 25.672,24.101 7.429,4.631 24.247,11.643 12.629,19.335 -8.684,5.75 -33.562,-0.769 -40.641,-6.936 -17.436,-15.192 -13.735,-38.985 -11.351,-59.153 -52.977,14.554 -118.673,11.501 -166.852,-18.896 -2.514,-2.149 -5.066,-4.252 -7.654,-6.31 -2.602,-3.479 -5.19,-2.759 -7.763,2.159 -2.141,0.487 -5.519,2.763 -7.598,3.72 -10.279,4.739 -20.582,5.169 -31.68,4.827 -21.253,-0.655 -42.377,-6.291 -56.002,-23.586 -13.684,-17.37 -8.659,-42.318 -3.56,-62.668 5.276,-21.061 5.895,-48.905 24.582,-63.449 1.417,2.252 2.833,4.503 4.25,6.754 -0.054,7.838 -0.873,-2.548 0,0 z"
           id="path14" />
      </g>
    </g>
    <path
       style="fill:#ff0000;stroke-width:0.252251"
       id="path20"
       d="m 945.23544,150.08706 c 2.16584,-1.60583 5.6865,-0.87329 8.14671,-0.73986 3.46321,0.18793 6.88193,0.21012 10.07011,1.74104 1.40725,0.67578 2.2008,1.65602 3.46285,2.43875 1.55393,0.9631 1.93177,0.90634 3.96871,1.08317 5.31034,0.46061 10.81291,2.68142 15.39105,5.31996 2.17235,1.25217 4.48122,5.08563 6.84457,5.51648 2.55502,0.4664 6.6188,-3.15087 9.02476,-4.07234 14.2545,-5.45896 27.3326,-1.18078 35.7873,11.47715 2.9466,4.41135 4.8338,9.50504 4.745,14.85502 -0.046,2.81966 -1.8962,6.18064 -1.6719,8.82398 0.3811,4.49233 5.5795,3.13194 8.6711,3.60339 3.239,0.49417 5.8793,1.72843 8.04,4.32156 3.8983,4.6795 4.5498,12.64659 4.9787,18.51544 0.4351,5.96018 1.0832,12.0374 5.7341,15.9995 5.0433,4.29632 10.0089,7.78268 13.4677,13.53197 5.433,9.03057 5.7877,17.1823 5.3658,27.43678 -0.1924,4.67825 -1.3936,9.05478 -2.4863,13.57713 -0.8874,3.67227 -0.532,3.13826 2.2891,5.34923 2.8023,2.19584 4.3309,4.44364 5.7208,7.64798 1.4989,3.45558 2.4473,6.05553 2.4178,9.78581 -0.015,1.90702 -0.09,3.81554 -0.1924,5.72003 -0.067,1.25747 -0.1506,2.51368 -0.2513,3.76863 0.7923,0.44724 1.5784,0.90583 2.3578,1.37527 2.3689,3.04766 4.6104,5.66099 6.2654,9.13146 1.8662,3.91418 3.701,9.19657 4.3523,13.6142 1.2595,8.54197 -2.0097,12.48589 -9.0149,16.3373 5.935,7.18577 10.7628,16.78423 9.5739,26.39724 -0.6901,5.58258 -2.4511,10.1896 -6.1519,14.43527 -1.8679,2.14266 -3.7966,4.15258 -5.8789,6.0843 -1.5602,1.44765 -5.8131,4.48574 -6.564,6.58267 -0.7825,2.18431 1.0737,6.09849 0.7349,8.67923 -0.2741,2.09067 -1.708,4.12581 -1.8552,6.12693 -0.1413,1.91808 1.4905,4.8132 1.8522,7.44488 0.3721,2.70741 1.1218,5.27433 1.4275,7.96985 1.0254,9.043 -1.4506,15.6706 -6.4255,23.08096 -2.2655,3.37466 -4.1241,6.92302 -6.7431,10.02643 -3.889,4.6082 -7.13,6.81909 -12.7276,8.78625 -1.4525,0.51028 -3.7745,0.88688 -5.0847,1.57947 -3.7373,1.97571 -2.6791,10.1627 -4.6446,14.24185 -2.1089,4.3763 -3.4402,9.17407 -6.8285,12.83752 -2.5799,2.78989 -5.9014,3.74717 -9.1526,5.49179 -6.8113,3.65464 -13.9623,4.47161 -21.6355,3.54408 -4.4765,-0.54107 -12.1926,-3.82258 -15.7402,-1.81012 -1.4973,0.84938 -3.15295,3.34008 -4.48434,4.55565 -1.91833,1.75162 -3.94362,3.44041 -5.4455,5.54421 -2.36991,3.31932 -4.21183,5.24911 -8.15098,7.32057 -4.84252,2.54672 -11.27795,5.79365 -16.67579,6.73103 -5.40199,0.93813 -12.31255,1.17647 -17.62097,-0.18585 -1.26459,-0.32442 -2.39866,-0.75934 -3.56106,-1.37639 -1.87619,-0.99631 -3.21285,-3.49283 -4.84146,-4.29598 -0.19013,-0.0936 -2.06793,0.55334 -2.67556,0.35484 -1.53726,-0.50221 -2.85874,-1.22331 -4.27008,-2.01097 -2.50006,-1.3951 -4.84524,-3.02464 -6.61279,-5.3464 -4.03397,-5.29801 -4.63051,-11.62114 -3.81949,-18.08179 0.12555,-1.00066 0.40529,-1.97987 0.54727,-2.98641 0.15586,-1.10656 -0.12227,-1.76681 0.29015,-2.9372 0.16695,-0.47346 1.63084,-1.44331 1.70589,-1.85307 0.52223,-2.84207 -0.93707,-7.31443 -1.37422,-10.1319 -1.04905,-6.76078 -4.12296,-12.98259 -4.32096,-19.87227 -0.0913,-3.17257 -0.0709,-7.0029 1.12373,-9.99941 1.27382,-3.19476 5.32347,-6.73209 5.0094,-10.23614 -0.28649,-3.19624 -3.14611,-6.82734 -4.26649,-9.94388 -2.2557,-6.2735 -1.24736,-13.2619 -1.12837,-19.79214 0.10826,-5.93576 0.94878,-9.60242 2.28922,-15.1436 0.96081,-3.97194 1.97708,-7.38266 3.364,-11.19087 1.16686,-3.20387 1.05364,-3.38674 -0.96062,-6.16555 -0.9517,-1.31317 -1.89843,-2.82893 -2.2909,-4.4229 -1.77939,-7.22625 2.71571,-17.70222 8.11634,-22.61203 -2.39712,-2.58911 -4.33385,-4.80384 -5.94424,-8.1164 -2.54343,-5.23213 -1.39293,-11.89264 -1.36517,-17.70265 0.0378,-7.78424 -0.25253,-15.71653 0.42984,-23.48354 0.16422,-1.86792 0.57714,-3.46567 1.03827,-5.25716 0.63588,-2.47028 1.32129,-4.76323 2.3595,-7.12935 1.26,-2.87086 2.34475,-5.77931 3.57135,-8.66127 1.1352,-2.6678 2.83458,-5.39993 3.80902,-8.0753 -6.93461,-1.68049 -11.08813,-13.93608 -11.28191,-20.25093 -0.20054,-6.54185 -0.42426,-13.87881 0.46801,-20.37679 0.20171,-1.47011 0.70746,-2.88928 1.11722,-4.31096 0.62201,-2.1575 1.07173,-4.29154 1.53509,-6.48511 0.5782,-2.73641 0.94978,-2.72078 -0.51473,-4.3382 -1.10669,-1.2214 -1.9865,-0.66518 -2.60658,-2.50662 -0.45153,-1.34071 0.14073,-4.40934 0.55322,-5.78461 0.92901,-3.10015 3.12336,-4.81394 5.65545,-6.67579 -2.92233,-0.82412 -7.17859,-6.64731 -8.54574,-9.21573 -2.01556,-3.78526 -1.5095,-8.57122 0.2081,-12.36633 1.31243,-2.89987 3.16649,-5.58836 4.75637,-8.34243 0.80675,-1.39696 2.37376,-3.20055 2.85751,-4.70169 0.72042,-2.23671 -0.81202,-3.9954 -1.79346,-6.4778 -2.184,-5.52151 -2.07833,-14.40173 -0.34586,-19.9462 0.75196,-2.40647 2.49801,-5.08664 4.45042,-6.67077 3.58003,-2.90289 8.57704,-3.98127 12.00084,-6.70355 m 5.00525,2.70462 c -6.91422,2.41531 -13.77899,4.01432 -16.66469,11.53895 -2.55707,6.66749 -2.45822,15.33986 0.84523,21.76745 2.86891,-2.55529 5.90743,-4.80385 9.04368,-7.00978 1.28746,-0.90583 4.86464,-4.63284 6.3835,-4.65932 3.41196,-0.0592 0.97134,4.25042 -0.76157,5.66201 -2.23419,1.81923 -5.25159,2.87086 -7.61927,4.57911 -4.23197,3.05323 -6.85039,6.5855 -9.556,10.87149 -4.34067,6.8766 -7.71179,12.0041 -2.74695,19.71464 3.09907,4.81294 5.18726,7.63537 10.96146,4.71129 3.43724,-1.74054 6.99651,-3.14936 10.76959,-4.09202 4.2474,-1.06097 8.51481,-0.59455 12.78911,0.14454 3.8053,0.65762 7.35217,1.70243 10.97193,2.86985 1.87141,0.60364 8.72837,1.43909 8.52535,4.43356 -6.82795,1.11267 -13.45029,-3.48157 -20.04108,-4.56321 -4.89575,-0.80342 -9.81479,-0.29413 -14.5408,1.16616 -4.62828,1.43 -16.62001,5.37041 -17.20743,11.08842 -0.24628,2.39638 1.71072,5.47308 1.77703,8.0985 0.0607,2.38906 -0.0825,5.56162 -0.81728,7.85659 -1.24681,3.89249 -2.84208,6.99517 -3.16675,11.22818 -0.81573,10.63161 -1.89211,27.27282 9.64611,33.20878 0.81902,-1.81065 4.13084,-5.03644 6.39912,-4.38765 -0.22099,4.45828 -5.38911,9.73057 -7.30749,13.65458 -2.38275,4.87399 -4.43512,10.05621 -6.41498,15.11056 -4.22447,10.78547 -2.82919,24.90593 -2.82218,36.30614 0.0105,16.08804 11.83556,23.91535 25.68742,29.13496 2.68169,1.01026 5.05811,1.88257 7.34505,3.5224 1.76997,1.26911 3.6596,3.2245 0.40306,3.54191 -1.44102,0.14049 -3.30674,-1.58721 -4.55081,-2.09296 -1.65836,-0.6745 -3.28152,-1.0027 -5.00618,-1.57482 -3.46588,-1.15 -6.65462,-2.48189 -9.86121,-4.25521 -1.40484,-0.77693 -2.88174,-1.8144 -4.38969,-2.37667 -2.16807,-0.80823 -1.18756,-1.23583 -3.26032,-0.0835 -3.37292,1.87445 -5.71501,8.3954 -6.01917,11.97561 -0.28011,3.29589 1.19661,6.21828 2.18592,9.31909 1.92874,-2.05182 2.34166,-4.86309 5.39543,-5.56386 0.87838,-0.20153 4.36496,-0.35336 4.36719,1.23831 0,1.12076 -5.09276,5.11866 -5.92807,6.34917 -1.34435,1.97986 -2.10908,4.07586 -3.14233,6.2223 -2.8676,5.95782 -5.06263,13.463 -6.00813,20.12121 -1.62905,11.47018 0.0682,21.7282 4.41925,32.30121 1.74226,4.23327 3.61622,8.62798 4.89965,12.9974 0.62405,2.12451 0.98702,5.25971 -2.16504,3.81838 -1.59322,-0.72848 -2.94687,-4.71077 -3.30047,-6.20589 -3.49544,3.22097 -5.29999,6.79486 -4.31446,11.85403 1.38785,7.12505 10.36647,11.67846 16.89194,12.27246 6.83644,0.62207 15.71621,-0.25799 21.42738,-4.47186 2.94173,-2.17037 5.43273,-5.57923 6.6193,-9.03111 1.21892,-3.54638 -0.39575,-7.5594 3.71234,-8.55144 4.25732,-1.02848 9.72679,0.79602 13.13547,-2.80155 3.77952,-3.9891 3.19476,-12.47684 1.51347,-17.18376 -0.59449,-1.66461 -4.05733,-5.1515 -3.65353,-6.90697 0.75097,-3.26304 3.31628,-0.41948 4.52615,0.73356 3.88214,3.69796 6.8256,6.78978 11.73696,9.2102 10.8611,5.35273 22.9114,4.68684 34.3905,1.33065 5.2569,-1.53701 10.669,-3.76712 14.0206,-8.28924 5.0543,-6.81909 9.2261,-16.74538 10.7323,-25.07955 0.5411,-2.9939 0.4379,-5.8423 -0.024,-8.84395 -0.1753,-1.13984 -2.0573,-4.90095 -1.962,-5.42387 0.3865,-2.1227 4.8405,-2.64531 6.4599,-3.1914 4.2656,-1.4378 8.371,-3.40317 11.2423,-6.9995 1.6011,-2.00508 2.7054,-4.34953 3.4116,-6.80775 1.1623,-4.04482 -2.5136,-5.79092 -3.4212,-9.79564 -0.6215,-2.74199 -1.033,-8.48037 2.9786,-6.0333 3.2361,1.97385 2.8418,6.54239 6.9023,8.00114 3.3479,1.20274 7.865,-3.31256 9.7556,-2.25112 1.288,0.72272 1.4607,3.9417 1.0829,5.05669 -1.0256,3.02489 -4.4732,3.23832 -7.199,3.40986 -2.2023,0.1385 -4.964,-0.35467 -6.0512,1.05667 -0.8734,1.13414 -0.9399,4.51729 -1.6463,6.06763 -3.1182,6.84432 -11.1522,12.58907 -18.6493,12.8532 4.264,10.41845 -0.9126,20.96817 -5.2542,30.40457 -3.3334,7.24564 -7.3303,14.43824 -14.8832,17.74677 -7.5602,3.31182 -16.5141,3.95403 -24.7085,4.15934 -10.2183,0.25631 -16.4066,-1.87817 -24.93236,-7.70145 0.23754,6.22107 0.73951,11.76027 -2.71695,17.35543 -3.85921,6.24666 -8.34886,6.0825 -14.95093,4.68876 -0.57764,9.92634 -9.53282,19.1019 -19.28707,20.55216 -11.0044,1.63605 -18.67083,0.28172 -28.77324,-3.28381 0.52843,5.47277 1.87346,6.33801 5.77525,9.87764 3.62186,3.28554 7.80822,4.78215 11.79299,7.37857 3.34125,2.17712 3.61144,5.05588 -0.99638,3.56627 -5.23876,-1.69362 -9.02652,-4.85627 -13.64222,-7.88259 -0.35466,6.52145 -3.14957,12.67584 -2.31891,19.26192 0.99836,7.91586 5.93842,11.52155 11.9693,15.9478 -0.10852,-2.34215 -0.057,-5.19569 1.8711,-6.87666 1.32917,1.58244 1.62254,3.67707 2.6701,5.41097 1.66134,2.75036 4.20427,4.21797 7.18814,5.27384 8.5248,3.0164 16.83244,0.91773 24.97661,-2.11503 10.03504,-3.73694 14.82098,-13.13553 23.87727,-18.37628 -3.23308,-1.87445 -6.00556,-3.16042 -9.01899,-5.57576 -3.32061,-2.66173 -7.74203,-4.28824 -10.68097,-7.26603 -3.10421,4.68914 -9.96513,9.10045 -15.68597,9.26889 -5.39542,0.15896 -3.43843,-2.39606 0.057,-4.01228 4.1392,-1.91356 8.38958,-3.50021 11.51344,-7.00427 1.71853,-1.92737 2.9284,-4.21505 3.62031,-6.69793 0.92294,-3.31263 0.55818,-9.74062 3.62886,-11.83767 2.79597,3.53429 1.11066,7.92373 0.0341,11.64772 -0.68665,2.37593 -0.75754,2.91626 0.45611,4.74559 0.30192,0.45525 3.17932,3.31306 3.72492,3.38693 1.36114,0.18368 6.77906,-3.74289 8.06627,-4.90826 1.31646,-1.19141 2.65213,-3.01343 3.22784,-4.71913 2.18068,-6.46016 -0.45109,-11.19056 -3.66276,-16.51664 -1.0102,-1.67534 -3.30221,-5.47977 0.53382,-5.44829 1.98923,0.0155 4.72052,3.51379 6.26082,4.54983 2.2243,1.4958 4.5608,2.28712 7.1785,2.8492 1.3988,0.30019 2.9052,0.63211 4.3433,0.64245 0.9303,0.007 4.814,-1.25541 5.4529,-0.75047 1.3283,1.04986 -1.9023,4.31929 -3.0629,4.86774 -1.5679,0.74062 -4.0874,0.52942 -5.783,0.40814 -0.8857,0.0628 -1.7683,0.018 -2.6471,-0.13603 -1.5973,-1.11895 -2.375,-0.64221 -2.3336,1.43006 -2.443,3.95657 -1.6946,9.11303 -4.3387,13.16038 -2.43172,3.72251 -5.33942,6.69447 -9.98889,7.44111 11.72189,10.88491 31.54719,13.10473 45.92729,7.19222 5.7507,-2.36458 9.0296,-5.66556 12.0291,-11.07536 3.2727,-5.90315 3.6627,-11.63378 5.5494,-17.98418 -5.7707,0.0335 -9.9114,-0.19472 -15.5166,-1.59825 0.4936,7.01462 -1.7308,12.61126 -8.712,15.34086 -2.3952,0.93663 -18.9473,3.04695 -17.0698,-2.30887 0.7279,-2.07599 6.8685,-1.37571 8.3227,-1.39114 3.8547,-0.0415 7.1892,-0.46919 10.1935,-3.18106 2.5134,-2.26884 5.1179,-6.7508 2.9155,-9.65894 -1.8603,-2.45648 -6.1353,-4.81326 -8.5145,-6.97228 -1.4262,-1.29403 -4.7553,-3.98582 -5.2506,-6.05548 -1.4845,-6.2049 5.3248,0.59232 6.5525,1.83838 4.2393,4.30318 9.9205,8.37923 15.9541,9.50326 13.1105,2.44211 26.4459,-0.64723 34.2801,-12.03077 8.0367,-11.67722 12.355,-23.13494 6.6266,-36.75844 -2.1497,1.38382 -20.0728,5.94096 -19.9706,0.24788 3.5708,-1.28875 7.5776,-0.12177 11.242,-1.28268 4.3395,-1.37478 7.6757,-5.16836 8.7861,-9.55898 1.0181,-4.02492 -0.5108,-6.60393 -0.8457,-10.45837 -0.3272,-3.76005 0.4169,-3.61876 3.7829,-4.94557 11.2525,-4.43462 18.1214,-18.48268 15.5107,-30.03832 -0.6183,-2.73536 -1.5175,-5.93569 -2.7239,-8.43295 -0.727,-1.50517 -1.772,-2.8893 -2.6973,-4.27033 -1.5927,-2.37779 -1.3273,-2.87672 -3.5686,-2.78513 -3.287,0.13448 -6.6051,2.62797 -9.8913,3.01213 -3.2653,0.38193 -4.8744,-0.63285 -7.405,1.55387 -9.978,8.62191 -13.1127,22.74818 -28.1855,24.59165 -2.3309,0.28507 -11.8549,0.48306 -5.5338,-2.93342 5.3903,-2.91322 11.5286,-2.15196 16.6579,-6.33882 3.0419,-2.48288 4.9318,-5.85042 7.0842,-9.06816 1.1694,-1.74784 2.6816,-3.56224 3.4868,-5.52172 0.6423,-1.56323 0.2096,-4.28626 1.3518,-5.44184 2.1409,-2.16553 7.4934,0.2306 10.0648,0.0198 3.8007,-0.31178 8.2063,-2.69254 11.5518,-4.54177 4.1935,-2.31767 9.0775,-6.51685 9.8524,-11.45338 0.9788,-6.23315 -3.7393,-17.14249 -8.7301,-20.89746 -2.7582,-2.0753 -2.6405,-0.68361 -4.5633,1.75943 -1.0558,1.34199 -2.1456,2.80477 -3.4845,3.88115 -0.702,0.56475 -3.2977,1.31119 -3.6274,1.75385 -0.7774,1.04435 -1.0854,6.1252 -1.7609,7.78802 -0.8147,2.00589 -1.7719,3.17083 -2.9319,4.86991 -1.6866,2.47006 -3.4836,5.69028 -5.9716,7.46669 -1.9821,1.41537 -6.8543,2.50024 -5.9626,-0.92201 0.6608,-2.53736 5.752,-4.80638 7.4903,-6.93188 4.9007,-5.99066 6.139,-14.23423 3.9159,-21.45967 -1.3235,-4.30114 -3.2478,-8.78616 -6.2076,-12.22735 -1.2222,-1.42093 -8.939,-7.22799 -1.7368,-6.10648 3.2384,0.50424 6.6537,6.07318 8.093,8.58913 2.4145,4.21964 3.6876,8.88703 4.8864,13.5653 6.0966,-3.1166 8.5003,-11.32077 8.0505,-17.73601 -0.2891,-4.12556 -1.7947,-8.98189 -4.486,-12.12745 -0.5943,-0.69444 -3.7346,-4.02264 -4.8825,-3.87432 -1.2013,0.15513 -2.5335,2.89509 -3.5071,3.74063 -1.0004,0.86875 -3.2053,2.68369 -4.5415,2.03641 -2.5745,-1.24738 0.5582,-3.09031 1.3454,-3.8902 3.126,-3.17684 4.5635,-7.09656 6.0704,-11.23146 2.6876,-7.37429 3.3072,-15.66046 2.2096,-23.40152 -1.1889,-8.38683 -5.1846,-15.28765 -11.5073,-20.68404 -3.1208,-2.66352 -6.8009,-8.08892 -10.742,-6.80976 -2.2856,0.74212 -8.09,5.16256 -8.1102,0.74313 0,-0.48911 1.4861,-3.99514 1.8468,-4.81066 0.901,-2.03668 0.946,-0.97066 2.6963,-2.23318 2.4269,-1.75087 1.6911,-2.77173 1.5299,-6.24724 -0.1249,-2.69202 0.1115,-5.4191 -0.146,-8.10329 -0.8145,-8.49201 -4.417,-14.22971 -12.8178,-15.94021 -1.077,-0.21921 -5.7751,-1.42976 -6.4728,-0.5489 -0.3078,0.38822 1.6741,4.90753 1.9218,6.06133 0.4006,1.86665 0.4967,3.52948 0.498,5.50234 0,1.5917 0.9177,6.19376 -0.9616,6.86247 -2.2288,0.79308 -2.1567,-1.75037 -2.2841,-3.10116 -0.4299,-4.56019 -0.6924,-8.01955 -2.4736,-12.46976 -5.6847,3.58751 -6.0482,-0.59935 -7.2769,-4.92242 -0.7729,-2.72026 -0.6852,-2.73867 -3.4203,-4.13438 -1.2315,-0.62861 -2.7195,-1.51779 -3.985,-1.98924 -1.0955,-0.4084 -6.3918,-0.71413 -6.491,-2.59037 -0.291,-5.50941 19.6466,5.19863 21.2171,6.39051 2.1848,-6.28885 4.238,-11.85854 1.3057,-18.19583 -2.7077,-5.85196 -8.153,-13.33649 -14.1751,-16.02194 -5.0961,-2.27202 -11.0268,-2.10882 -16.2204,-0.46339 -2.2866,0.72447 -4.7859,1.72893 -6.9124,2.8025 -1.91782,0.96839 -3.07142,2.36359 -5.11995,2.97606 0.2218,0.84454 1.28529,3.24546 1.76278,3.94747 1.07459,1.58136 0.009,0.97923 2.18214,1.7481 1.99583,0.70629 5.45823,-0.56279 7.23513,0.50878 3.3922,2.04524 -2.909,3.06484 -5.1028,2.99774 -2.84965,-0.0875 -3.59331,-1.3407 -4.33647,1.66057 -0.33768,1.36366 -0.25197,2.99724 -0.46336,4.4164 -0.35187,2.36409 0.81276,11.18958 -0.64574,12.59891 -2.03539,1.96704 -3.90359,-1.02692 -4.15482,-2.75257 -0.3761,-2.5843 0.63062,-6.69295 0.95052,-9.32064 0.6137,-5.03417 1.55858,-9.48791 -0.98361,-14.28647 -4.30157,-8.1202 -13.32969,-11.60176 -21.79921,-13.29763 1.6873,2.775 2.83098,5.55228 3.70478,8.71424 0.39048,1.41361 0.22049,4.25496 1.08952,5.47535 0.60918,0.85564 2.47836,1.14093 3.27649,2.09595 2.80923,3.36098 1.98464,10.91337 -1.08289,13.66492 -3.59788,3.22728 -8.91001,2.29169 -13.25303,1.55915 -0.96056,-0.16194 -4.9545,-0.29235 -5.07249,-1.42269 -0.32039,-3.06711 5.98812,-0.88741 6.73512,-0.841 3.99078,0.2472 10.20602,-3.32365 8.23118,-8.3616 -0.4027,-1.02691 -1.32911,-0.77744 -1.70955,-1.48273 -1.01398,-1.87801 -1.05897,-3.05172 -1.29049,-5.35325 -1.00072,-9.96642 -8.12298,-22.58324 -20.36625,-18.98539 -1.10427,0.38569 0.56276,-0.16497 0,0 z m 42.84163,50.13176 c 4.86872,-1.80939 12.07548,6.70962 13.19068,10.67424 1.0329,3.67327 1.0693,9.19605 0.3721,12.92431 3.1804,-0.26915 6.274,-0.47828 9.33,-1.37023 2.7836,-0.8125 4.5013,-2.04398 3.5317,1.69487 -0.8685,3.34837 -3.8349,4.02011 -6.9131,4.3657 -2.038,0.22854 -4.7163,-0.74263 -6.5757,-0.29059 -1.962,0.47726 -2.4691,2.05281 -4.3659,3.503 -4.20278,3.21241 -8.73048,3.0868 -13.68317,3.43716 0.58879,1.68 4.18412,13.67275 -0.82757,9.11786 -1.95948,-1.7809 -2.24529,-5.67463 -3.42312,-7.99761 -0.62852,-1.23931 -6.85262,-7.48099 -4.57319,-9.19806 1.5356,-1.15682 6.20967,4.87373 7.84597,4.97791 2.92988,0.18692 9.68106,-3.28253 11.94878,-5.07528 4.4129,-3.48862 4.0712,-9.27399 2.71,-14.235 -1.65457,-6.0308 -5.93624,-7.51858 -8.56748,-12.52828 0.72605,-0.27015 0.57385,1.09251 0,0 z m -40.57552,27.38912 c -0.26487,-4.16996 5.789,2.23771 6.23991,2.8986 1.56372,2.29094 5.04553,7.45526 0.5565,7.92269 7.67275,0 14.94306,2.3984 20.20754,8.16257 6.85696,7.50824 9.33681,18.45541 17.00392,25.28887 6.29403,5.60929 11.52153,7.22017 19.49803,4.60181 5.1784,-1.69992 6.7641,-4.82657 10.7411,-7.71584 9.6597,12.33076 -17.6225,13.24466 -23.5988,13.49364 4.2714,5.71271 -1.0149,15.39812 -5.25564,19.59179 5.73214,4.17601 6.90234,12.09717 3.25754,18.17087 -4.58491,7.64039 -14.75641,9.8418 -22.97829,8.46777 -0.091,3.92 0.20859,7.25723 -0.84926,10.9568 11.43126,2.01848 20.69302,12.46544 20.9789,24.0556 2.99435,-0.68491 5.70405,-1.79575 8.83175,-1.7665 6.6254,0.0614 13.4227,3.12305 19.3728,5.6562 1.4333,-6.18042 5.6436,-10.78372 11.6634,-12.61132 2.774,-0.84195 10.4794,-2.75804 12.6193,0.24497 -3.8403,1.85202 -8.1676,1.16537 -12.0293,3.03685 -3.2695,1.58412 -5.1992,4.20985 -6.7054,7.42852 -0.8147,1.74103 -1.4293,5.32986 -3.0875,6.51587 -2.5198,1.80263 -4.9214,-1.6671 -7.1503,-2.97984 -3.5389,-2.0841 -8.3926,-3.78298 -12.5225,-4.06142 -2.2205,-0.1496 -9.75958,0.36854 -11.07703,1.87569 -0.95981,1.09776 -0.29467,5.50207 -0.56803,7.17679 -0.26214,1.60481 -0.72222,2.99793 -1.10991,4.54654 -0.34487,1.37831 -0.36173,3.0661 -1.17504,4.27994 -0.8241,1.23025 -4.65883,3.49438 -5.94778,1.39367 -0.69073,-1.12528 3.056,-6.26792 3.44748,-7.38663 1.46736,-4.19392 2.43424,-10.23223 1.714,-14.63933 -1.14417,-7.00098 -6.28056,-14.7486 -12.72119,-17.87902 -7.04864,-3.42634 -11.80005,-1.96834 -16.06251,4.29481 -1.0643,1.56372 -2.55279,4.59624 -4.69267,4.69105 -2.42916,0.10771 -5.79086,-3.72095 -8.25386,-4.47155 -5.77859,-1.76104 -8.81699,1.0198 -11.93731,5.03109 -2.57647,3.31176 -7.85656,6.67631 -5.74904,-0.55421 3.44475,-11.81839 17.38362,-8.34365 25.51366,-5.45491 2.6007,-6.60313 6.8675,-9.13144 13.65455,-8.94528 -0.26257,-3.47802 0.66774,-6.73816 -0.26958,-10.15384 -0.99241,-3.61654 -2.91402,-5.64034 -5.57551,-8.06648 -1.21309,-1.10562 -4.11955,-3.12564 -2.25719,-4.56776 0.95505,-0.7396 2.19181,0.0378 3.1062,0.33424 2.40524,0.77945 4.40462,2.75962 5.82445,4.76223 0.99774,1.40706 1.56001,3.24672 3.06183,3.87886 1.15688,0.48684 3.52171,0.0785 4.74887,-0.0315 3.1585,-0.28277 6.56712,-1.24991 9.35726,-2.82647 2.31742,-1.30918 3.7815,-2.97731 4.85757,-5.40195 2.19355,-4.94309 0.0304,-7.23984 -2.22886,-11.23321 -1.97838,-3.49847 -0.10951,-4.83791 1.84823,-7.80942 1.87625,-2.84816 3.27951,-6.21218 3.12058,-9.65515 -0.19651,-4.2595 -0.76306,-8.05436 -3.83294,-11.38558 -3.66071,-3.97218 -7.14773,-6.93537 -9.63669,-11.92691 -3.32216,-6.66293 -6.70432,-14.1621 -12.74579,-18.88447 -5.39382,-4.21663 -14.15175,-5.08008 -20.82093,-4.73323 -1.41872,0.0739 -8.47318,1.36795 -6.0157,-1.91686 1.62018,-2.16557 7.89095,-1.04835 9.93006,-0.96208 -0.80364,-1.59953 -0.81802,-3.52923 -1.48676,-5.19359 -0.78121,-1.9451 -2.33911,-3.44574 -2.81412,-5.54395 -0.0685,-1.08393 0.53283,2.35349 0,0 z m 75.7733,0.25502 c 3.3625,5.09117 4.032,14.71781 3.5663,20.5675 -0.1163,1.46053 -0.8859,3.11756 -0.8949,4.50947 -0.012,1.85405 0.7746,3.21645 2.0079,4.94362 2.3595,3.30549 5.4466,6.07898 8.0041,9.23463 4.8397,-7.9976 7.4023,-13.58243 4.986,-23.24236 -0.6311,-2.52327 -1.429,-4.54354 -3.1781,-6.45635 -1.3891,-1.51956 -3.8675,-2.62719 -3.7734,-4.94133 4.0072,0.0191 8.494,4.28043 10.535,7.6389 1.9889,3.27194 1.1996,8.40095 1.466,12.02226 3.7734,-0.10822 6.7695,0.0706 10.4056,1.02841 2.1898,0.57716 9.3787,1.66259 8.8926,4.85861 -0.7156,4.70245 -5.0581,0.92097 -6.6125,-0.049 -3.4349,-2.14338 -6.1064,-2.13934 -9.9807,-1.8215 -3.7019,0.30371 -2.3324,0.20558 -3.2079,3.39504 -0.4352,1.58489 -1.5436,2.98992 -2.3253,4.40934 -0.7805,1.41689 -1.4802,2.84715 -2.517,4.10134 -1.8429,2.23065 -2.0856,1.23931 -1.3608,3.54059 0.8708,2.76466 4.398,5.18097 5.8426,7.76629 1.9938,3.56833 3.6089,7.86315 4.6126,11.83534 5.6754,-6.97599 12.2148,-10.45906 21.3624,-7.68229 -0.1769,3.06131 -6.1297,2.39284 -7.9206,2.80957 -1.6432,0.38241 -3.6209,1.0718 -5.0311,2.06466 -0.914,0.6435 -1.6786,1.6028 -2.4913,2.36788 -1.094,1.02944 -4.4573,3.11908 -4.8695,4.42372 -0.3753,1.18683 0.4881,3.31482 0.6198,4.49106 0.9093,8.10961 -0.1155,20.80941 -5.8984,27.29301 4.0338,0.51759 8.8028,3.44698 11.4477,6.47801 1.1116,1.27438 4.8147,8.36311 2.308,9.36432 -2.8261,1.12881 -6.8786,-8.25819 -8.9882,-9.76088 -1.1278,-0.8034 -5.6887,-3.64473 -7.01,-3.24848 -1.452,0.43516 -3.338,3.97826 -4.4232,5.14419 -3.2346,3.47573 -7.1525,6.56836 -11.4873,8.55783 -1.4574,0.66873 -6.76,3.13241 -8.3494,1.51805 -1.9242,-1.95446 3.0509,-3.74946 4.3019,-4.27764 14.2509,-6.01743 25.0653,-20.29432 24.8678,-36.17398 -0.1851,-14.87976 -8.7057,-32.19751 -20.9412,-41.10069 -2.6792,-1.9494 -7.9271,-2.7561 -7.9248,-6.21445 0,-3.59937 3.597,-7.36496 3.9616,-11.13383 0.2752,-2.85018 -0.2714,-6.07041 -1.0723,-8.78413 -0.733,-2.4829 -2.8702,-8.2289 1.07,-9.47679 1.5501,2.34644 -1.0178,0.32237 0,0 z m -74.00525,31.72403 c 3.78577,-0.39704 7.75852,4.11219 10.5494,5.96547 2.01036,1.33516 4.31904,2.79443 6.72651,3.23461 2.65294,0.48483 4.60677,-0.57714 7.19321,-0.73682 1.50461,4.53395 -1.58901,6.38118 -5.12702,6.6927 -3.27532,0.28858 -4.90306,-0.91491 -7.01988,1.98219 -1.41816,1.94082 -2.21653,4.31021 -2.81066,6.60846 -1.30536,5.05132 -1.09621,8.80127 0.39631,13.73201 0.31761,1.04911 0.54665,2.13631 0.85595,3.1776 0.69619,2.34367 -0.22031,1.75239 1.69684,2.90744 2.09619,1.26302 4.26432,-0.17935 5.59795,2.74449 -0.50073,1.35559 -14.02638,-1.02439 -16.35694,-0.4977 -2.72935,0.6165 -5.28084,2.27052 -7.52743,3.87281 -1.47182,1.04986 -4.46399,4.76072 -6.37277,4.51857 -5.36692,-0.68108 4.85051,-8.38683 6.59426,-9.30301 4.42904,-2.32701 8.515,-1.98672 13.27088,-2.16556 -4.06923,-6.81001 -4.69583,-15.47608 -1.25139,-23.05697 0.61247,-1.34752 4.03397,-5.06165 3.90563,-6.4402 -0.0858,-0.91996 -2.6877,-3.22452 -3.30023,-3.92174 -1.28516,-1.4633 -2.49299,-3.40589 -3.99989,-4.54076 -0.97264,-0.73178 -8.38406,-4.10512 -3.02073,-4.77359 0.89778,-0.0943 -1.66406,0.2071 0,0 z m 20.3127,127.79645 c -1.01652,-3.8509 4.66267,-0.2697 5.38743,0.99762 0.9991,1.7471 1.21073,3.27749 1.33839,5.27879 0.31631,4.95828 0.09,8.8139 -3.22456,12.52326 5.02961,1.21737 11.62895,-0.64271 16.38272,-2.20439 2.97699,-0.97778 5.24799,-2.22942 7.51077,-4.42724 1.659,-1.61138 3.1498,-4.23711 5.6703,-4.55218 1.7587,5.66915 -2.8722,7.81802 -6.6809,10.38444 -6.32312,4.26079 -12.7371,4.43301 -20.25263,4.75718 -2.81382,0.12134 -5.88203,0.42605 -8.60202,-0.47501 -0.4962,-0.16441 -0.87379,-0.56475 -1.3475,-0.75345 -1.08971,-0.43436 -2.09073,-1.11041 -3.27947,-1.29936 -2.45649,-0.39011 -3.52928,0.46293 -5.86412,1.53144 -3.03561,1.38915 -9.79669,4.6258 -13.30502,3.65917 -6.80063,-1.87396 6.08231,-4.29989 7.14531,-4.67544 2.5482,-0.90057 2.917,-2.37896 4.87449,-3.85493 2.74577,-2.07072 5.86058,-1.5082 9.04319,-1.12299 2.39935,0.29009 3.17356,0.90602 4.97841,-1.03505 1.17095,-1.25944 1.77357,-3.44245 2.07822,-5.08153 0.69451,-3.73162 -1.15676,-6.10674 -1.85301,-9.65033 -0.227,-0.86072 0.23239,1.1805 0,0 z m 54.59295,6.03857 c 0.3573,-0.56803 0.7145,-1.13563 1.0722,-1.70366 4.7138,3.66877 4.87,10.69237 6.2008,16.005 1.2863,5.13353 2.5538,11.42673 -0.898,15.80812 -3.4369,4.3626 -8.7652,5.78435 -14.1265,5.94957 -2.7995,0.086 -5.3984,-0.0223 -7.9913,-1.21762 -0.5242,-0.24168 -1.3763,-0.81579 -1.9166,-0.93837 -0.649,-1.2406 -1.3019,-1.42224 -1.9583,-0.54466 -0.6527,0.51913 -1.2965,1.04961 -1.9306,1.59173 -12.15326,7.66798 -28.72512,8.43798 -42.08858,4.7666 0.60137,5.0873 1.53491,11.08912 -2.86327,14.92131 -1.78571,1.55561 -8.06113,3.20027 -10.2517,1.74964 -2.93063,-1.94058 1.31144,-3.70912 3.18571,-4.87734 2.75246,-1.71581 5.70107,-2.64476 6.47577,-6.07947 0.396,-1.75621 0.14272,-6.97012 -0.67109,-8.03218 -0.35869,-0.46813 -18.60693,-9.57918 -11.93031,-12.16327 1.92031,-0.74316 4.85955,3.27705 6.15891,4.39223 2.47483,2.12469 5.03413,3.71315 8.05586,4.96379 7.54509,3.12212 14.26478,4.15178 22.30905,3.04286 6.49182,-0.89499 12.97119,-2.75581 18.17995,-6.87635 1.1775,-0.93131 2.4054,-2.74292 3.7368,-3.3935 2.0606,-1.00672 1.57,-0.28073 3.5557,0.89344 6.9505,4.11026 19.3792,4.13567 21.9677,-5.20672 2.1036,-7.59094 -4.2198,-15.52243 -4.2722,-23.05115 0.2201,-0.64271 0.014,1.97713 0,0 z" />
    <g
       transform="matrix(0.24636788,0,0,0.24636788,148.89223,79.363766)"
       id="g19062">
      <polygon
         points="697.62,1193.9 678.55,1150.7 652.75,1156.3 653.42,1203.5 630.9,1213.7 595.92,1182 574.64,1197.7 594.46,1240.5 578.02,1259 533.17,1244.2 520.09,1267.2 555.62,1298.3 548.12,1321.8 501.15,1326.6 498.54,1352.9 543.64,1366.8 546.36,1391.4 505.41,1414.9 513.71,1440 560.58,1434.3 573.06,1455.7 545.19,1493.8 562.98,1513.3 603.52,1489.1 623.6,1503.5 613.64,1549.7 637.82,1560.3 665.02,1521.7 689.23,1526.7 698.9,1572.9 725.31,1572.8 734.46,1526.5 758.61,1521.2 786.24,1559.5 810.31,1548.6 799.83,1502.6 819.74,1487.9 860.56,1511.6 878.12,1491.9 849.82,1454.1 862.06,1432.7 909,1437.7 917.02,1412.6 875.8,1389.6 878.24,1365 923.19,1350.5 920.28,1324.3 873.26,1320 865.49,1296.5 900.67,1265.1 887.34,1242.3 842.66,1257.5 826.01,1239.2 845.35,1196.1 823.9,1180.7 789.27,1212.8 766.63,1202.9 766.78,1155.7 740.92,1150.4 722.33,1193.8 "
         fill="url(#ct)"
         id="polygon12663"
         transform="translate(-587.38999,243.45913)"
         style="fill:#0000ff" />
      <polygon
         points="1111.3,1487.8 1128.5,1491.6 1132.5,1482.5 1118.1,1472.3 1120,1463.2 1137.3,1459.6 1137.3,1449.7 1119.9,1446.3 1118,1437.2 1132.3,1426.9 1128.3,1417.8 1111,1421.7 1105.5,1414.3 1114.5,1399 1107.1,1392.4 1092.9,1403 1084.8,1398.4 1086.8,1380.8 1077.4,1377.7 1068.7,1393.2 1059.5,1392.2 1054.1,1375.4 1044.2,1376.4 1042.6,1394.1 1033.8,1397 1022,1383.8 1013.5,1388.7 1019.2,1405.5 1012.3,1411.7 996.16,1404.5 990.36,1412.5 1002.4,1425.5 998.63,1434 980.93,1433.9 978.91,1443.6 995.17,1450.6 995.2,1459.8 979,1467 981.09,1476.6 998.79,1476.4 1002.6,1484.9 990.68,1498 996.53,1506 1012.6,1498.6 1019.5,1504.7 1014,1521.5 1022.6,1526.5 1034.2,1513.2 1043.1,1516 1044.8,1533.6 1054.7,1534.6 1059.9,1517.7 1069.2,1516.7 1077.9,1532.1 1087.3,1529 1085.3,1511.4 1093.3,1506.7 1107.5,1517.2 1114.9,1510.6 1105.8,1495.3 "
         fill="url(#cx)"
         id="polygon12721"
         transform="translate(-587.38999,243.45913)"
         style="fill:#0000ff" />
      <circle
         cx="470.30997"
         cy="1698.2592"
         r="35.054001"
         fill="url(#cy)"
         id="circle12734"
         style="fill:#0000ff" />
      <polygon
         points="1213.4,1479.1 1206.8,1494.1 1214.3,1499.4 1226.3,1488.1 1234.2,1491.5 1234.3,1507.9 1243.3,1509.7 1249.6,1494.5 1258.2,1494.4 1265,1509.3 1273.9,1507.3 1273.5,1490.8 1281.3,1487.2 1293.6,1498.1 1300.9,1492.6 1293.9,1477.8 1299.5,1471.3 1315.2,1476.2 1319.6,1468.2 1307.2,1457.5 1309.7,1449.3 1326,1447.5 1326.8,1438.3 1311.1,1433.6 1310,1425.1 1324.2,1416.8 1321.2,1408.1 1304.9,1410.2 1300.5,1402.9 1310,1389.5 1303.8,1382.8 1289.8,1391.3 1282.7,1386.4 1286,1370.3 1277.6,1366.7 1268.3,1380.3 1259.8,1378.6 1256.3,1362.6 1247.1,1362.7 1244.1,1378.9 1235.7,1380.8 1226,1367.6 1217.6,1371.5 1221.5,1387.4 1214.6,1392.6 1200.3,1384.5 1194.3,1391.4 1204.3,1404.5 1200.1,1412 1183.8,1410.4 1181.1,1419.2 1195.5,1427 1194.7,1435.6 1179.2,1440.8 1180.3,1449.9 1196.6,1451.2 1199.4,1459.3 1187.3,1470.4 1192,1478.3 1207.5,1472.8 "
         fill="url(#dg)"
         id="polygon12867"
         transform="translate(-587.38999,243.45913)"
         style="fill:#0000ff" />
      <polygon
         points="1871.6,1367.4 1909.6,1345.6 1901.9,1322.3 1858.4,1327.5 1846.9,1307.7 1872.8,1272.3 1856.3,1254.2 1818.6,1276.6 1800,1263.3 1809.3,1220.4 1786.8,1210.6 1761.6,1246.4 1739.1,1241.7 1730.2,1198.9 1705.6,1199 1697.1,1242 1674.7,1246.8 1649.1,1211.3 1626.8,1221.4 1636.5,1264.1 1618,1277.7 1580.1,1255.7 1563.8,1273.9 1590.1,1309 1578.7,1328.9 1535.1,1324.2 1527.7,1347.6 1565.9,1368.9 1563.7,1391.8 1521.9,1405.1 1524.6,1429.5 1568.3,1433.5 1575.5,1455.3 1542.8,1484.5 1555.2,1505.6 1596.6,1491.5 1612.1,1508.5 1594.1,1548.4 1614,1562.7 1646.2,1533 1667.2,1542.2 1667,1586 1691,1591 1708.3,1550.7 1731.2,1550.6 1748.9,1590.7 1772.8,1585.4 1772.2,1541.6 1793.1,1532.2 1825.6,1561.6 1845.3,1547.1 1826.9,1507.3 1842.2,1490.2 1883.8,1503.9 1896,1482.6 1863,1453.8 1870,1431.9 1913.6,1427.5 1916,1403.1 1874.1,1390.1 "
         fill="url(#ds)"
         id="polygon13031"
         transform="translate(-587.38999,243.45913)"
         style="fill:#0000ff" />
      <circle
         cx="1130.91"
         cy="1638.9591"
         r="86.753998"
         fill="url(#dt)"
         id="circle13040"
         style="fill:#0000ff" />
      <polygon
         points="2043.7,1512.3 2059.8,1519 2065.2,1510.9 2053,1498.5 2056.4,1490.1 2073.8,1489.6 2075.5,1480.1 2059.3,1473.7 2059,1464.6 2074.7,1457.1 2072.3,1447.7 2055,1448.5 2051,1440.3 2062.3,1427.1 2056.3,1419.4 2040.8,1427.2 2033.8,1421.3 2038.7,1404.7 2030.1,1400.1 2019.1,1413.5 2010.4,1411 2008.1,1393.8 1998.4,1393.1 1993.8,1409.9 1984.8,1411.1 1975.7,1396.3 1966.6,1399.6 1969.1,1416.8 1961.4,1421.6 1947.1,1411.8 1940.1,1418.6 1949.4,1433.2 1944.4,1440.7 1927.3,1437.6 1923.6,1446.6 1938.1,1456.2 1936.5,1465.1 1919.7,1469.2 1920,1478.9 1937.1,1481.8 1939.3,1490.6 1925.5,1501.2 1929.8,1509.9 1946.6,1505.5 1952.2,1512.7 1943.9,1528 1951.4,1534.2 1965,1523.4 1973,1527.7 1971.6,1545 1981,1547.7 1989,1532.2 1998.1,1532.9 2003.9,1549.3 2013.5,1547.9 2014.5,1530.6 2023.1,1527.5 2035,1540.1 2043.3,1534.9 2037.2,1518.6 "
         fill="url(#eb)"
         id="polygon13125"
         transform="translate(-587.38999,243.45913)"
         style="fill:#0000ff" />
      <circle
         cx="1410.3099"
         cy="1714.5591"
         r="34.394001"
         fill="url(#ec)"
         id="circle13144"
         style="fill:#0000ff" />
      <polygon
         points="2003.7,1128.2 1975.8,1110.5 1963,1123.7 1981.7,1150.9 1972.6,1165.5 1940,1160.7 1933.7,1178 1961.8,1195.2 1959.4,1212.3 1927.6,1221.1 1928.9,1239.5 1961.6,1243.8 1966.4,1260.4 1940.9,1281.4 1949.6,1297.7 1981.2,1288.3 1992.3,1301.5 1977.6,1331 1992.1,1342.4 2017.2,1320.9 2032.7,1328.5 2031.3,1361.4 2049.2,1365.9 2063.4,1336.1 2080.6,1336.7 2092.7,1367.4 2110.9,1364.2 2111.7,1331.2 2127.7,1324.8 2151.2,1347.8 2166.5,1337.5 2153.9,1307.1 2165.9,1294.7 2196.7,1306.2 2206.5,1290.6 2182.6,1267.9 2188.5,1251.7 2221.4,1249.6 2223.9,1231.4 2192.9,1220.4 2191.7,1203.2 2220.9,1187.9 2215.8,1170.2 2182.9,1172.8 2174.8,1157.6 2195.4,1131.8 2183.5,1117.7 2154.5,1133.4 2140.9,1122.8 2149.2,1090.9 2132.6,1082.8 2112.5,1108.9 2095.8,1104.8 2090.3,1072.3 2071.9,1071.6 2064.2,1103.7 2047.2,1106.7 2029,1079.2 2011.9,1086.1 2018,1118.5 "
         fill="url(#cg)"
         id="polygon13491"
         transform="translate(-587.38999,243.45913)"
         style="fill:#0000ff" />
      <circle
         cx="625.80994"
         cy="354.55914"
         r="34.707001"
         fill="url(#co)"
         id="circle13594"
         style="fill:#0000ff" />
      <path
         d="m 1549.81,1108.5891 c 42.644,-59.107 67.786,-131.68007 67.786,-210.13007 0,-259.61 -266.86,-432.56 -502.91,-329.82 -75.747,-54.693 -169.52998,-76.742 -261.84998,-61.949 -21.234,-116.7 -123.39,-205.19 -246.22,-205.19 -122.18,0 -223.9,87.557 -245.87,203.34 -229.54,-191.49 -581.35,-2.784 -541.76,298.73 -197.51,-18.627 -366.33,136.59 -366.33,333.02007 0,171.54 129.12,312.89 295.46,332.25 -53.444,345.44 370.19,547.45 606.97,299.7 138.46,114.26 346.78,91.73 456.52,-55.185 87.232,114.34 224.89998,188.15 379.81998,188.15 413.1,0 626.9,-488.09 358.38,-792.92 z"
         id="path14934"
         style="fill:#1a1a1a" />
      <polygon
         points="361.11,1400.3 378.38,1399.4 382.39,1407.5 371.24,1420.7 377.24,1428.3 392.66,1420.5 399.62,1426.3 394.81,1442.9 403.37,1447.4 414.29,1434 423,1436.4 425.36,1453.6 435.01,1454.2 439.53,1437.5 448.49,1436.2 457.6,1450.9 466.67,1447.5 464.02,1430.4 471.66,1425.6 485.96,1435.3 492.88,1428.5 483.51,1414 488.53,1406.5 505.54,1409.5 509.12,1400.6 494.65,1391.1 496.17,1382.2 512.96,1378 512.56,1368.4 495.5,1365.6 493.26,1356.9 506.91,1346.3 502.63,1337.6 485.92,1342 480.3,1334.9 488.47,1319.7 481.02,1313.5 467.56,1324.3 459.54,1320.1 460.8,1302.9 451.49,1300.3 443.6,1315.7 434.57,1315.1 428.71,1298.8 419.14,1300.2 418.18,1317.5 409.7,1320.6 397.73,1308.2 389.56,1313.3 395.7,1329.5 389.22,1335.8 373.22,1329.3 367.86,1337.3 380.04,1349.6 376.7,1358 359.42,1358.5 357.8,1368.1 373.91,1374.3 374.28,1383.4 358.72,1390.9 "
         fill="url(#dc)"
         id="polygon14953"
         transform="translate(-581.08999,286.85913)"
         style="fill:#0000ff" />
      <polygon
         points="1488.8,848.35 1494.1,831.25 1503.4,830.26 1512.3,845.83 1521.8,842.72 1519.8,824.92 1527.9,820.22 1542.3,830.85 1549.7,824.13 1540.6,808.71 1546.1,801.12 1563.6,804.96 1567.7,795.8 1553.1,785.42 1555,776.25 1572.5,772.65 1572.5,762.63 1555,759.09 1553,749.92 1567.6,739.49 1563.5,730.34 1546,734.25 1540.5,726.67 1549.5,711.22 1542.1,704.53 1527.7,715.21 1519.6,710.54 1521.6,692.74 1512,689.66 1503.2,705.26 1493.9,704.3 1488.5,687.22 1478.5,688.29 1476.8,706.12 1467.9,709.04 1456,695.64 1447.4,700.67 1453.1,717.64 1446.1,723.93 1429.8,716.53 1423.9,724.65 1436,737.83 1432.2,746.41 1414.3,746.28 1412.3,756.09 1428.7,763.2 1428.7,772.58 1412.3,779.75 1414.4,789.55 1432.3,789.36 1436.2,797.92 1424.1,811.15 1430,819.25 1446.3,811.79 1453.2,818.05 1447.6,835.05 1456.3,840.04 1468.1,826.61 1477,829.49 1478.8,847.32 "
         fill="url(#dz)"
         id="polygon14995"
         transform="translate(-581.08999,286.85913)"
         style="fill:#0000ff" />
      <polygon
         points="1313.9,1204.5 1275,1182.8 1277.3,1159.6 1319.7,1146 1317,1121.3 1272.7,1117.2 1265.4,1095.1 1298.5,1065.4 1286,1043.9 1243.8,1058.3 1228.2,1041 1246.4,1000.4 1226.2,985.91 1193.5,1016.2 1172.2,1006.8 1172.4,962.27 1148,957.22 1130.4,998.13 1107.1,998.25 1089.2,957.52 1064.8,962.82 1065.5,1007.3 1044.2,1016.9 1011.2,987.02 991.18,1001.8 1009.8,1042.2 994.34,1059.6 952.06,1045.7 939.72,1067.3 973.21,1096.6 966.12,1118.8 921.84,1123.3 919.36,1148.1 961.88,1161.2 964.43,1184.4 925.81,1206.5 933.62,1230.2 977.82,1224.9 989.58,1245 963.28,1280.9 980.04,1299.4 1018.3,1276.6 1037.2,1290.2 1027.8,1333.7 1050.6,1343.7 1076.2,1307.3 1099.1,1312 1108.2,1355.6 1133.1,1355.5 1141.7,1311.8 1164.5,1306.9 1190.5,1343 1213.2,1332.7 1203.4,1289.3 1222.1,1275.5 1260.6,1297.9 1277.2,1279.3 1250.5,1243.7 1262.1,1223.4 1306.3,1228.2 "
         fill="url(#cc)"
         id="polygon15013"
         transform="translate(-581.08999,286.85913)"
         style="fill:#0000ff" />
      <polygon
         points="265.83,615.46 249.63,642.99 233.03,640.96 223.94,610.33 206.14,611.9 202.54,643.64 186.54,648.54 165.79,624.26 150.16,632.93 159.78,663.39 147.16,674.37 118.32,660.63 107.58,674.91 128.76,698.82 121.69,713.98 89.759,713.16 85.748,730.58 114.82,743.81 114.54,760.54 85.032,772.77 88.45,790.32 120.4,790.58 126.94,805.97 104.96,829.15 115.22,843.79 144.51,831.04 156.74,842.44 146.09,872.55 161.42,881.75 182.99,858.19 198.8,863.62 201.32,895.47 219.06,897.64 229.19,867.34 245.85,865.87 261.1,893.94 278.19,888.71 275.11,856.91 289.74,848.8 315.09,868.23 328.57,856.5 312.83,828.7 322.89,815.34 353.95,822.78 361.5,806.58 335.81,787.59 339.56,771.3 370.97,765.46 371.27,747.59 340.08,740.69 336.88,724.28 363.2,706.17 356.21,689.72 324.91,696.11 315.31,682.41 331.99,655.16 318.91,642.98 292.91,661.55 278.57,652.94 282.73,621.27 "
         fill="url(#cr)"
         id="polygon15047"
         transform="translate(-581.08999,286.85913)"
         style="fill:#0000ff" />
      <polygon
         points="1477.4,442.7 1500.8,433.9 1509.9,443.25 1500.4,466.3 1512,474.06 1529.7,456.54 1541.8,461.39 1542.5,486.29 1556.3,488.67 1565.3,465.46 1578.4,464.96 1589.2,487.42 1602.7,484 1601.5,459.11 1613.2,453.36 1632.2,469.48 1643.2,460.86 1632,438.6 1640.3,428.58 1664.2,435.58 1670.8,423.25 1651.5,407.46 1655,394.91 1679.7,391.58 1680.7,377.67 1656.6,371.08 1654.8,358.17 1676,345.09 1671.2,332 1646.5,335.76 1639.6,324.72 1653.6,304.14 1643.9,294.15 1622.9,307.6 1612.1,300.34 1616.6,275.83 1603.6,270.65 1589.9,291.47 1577.1,289.24 1571.2,265.03 1557.3,265.56 1553.2,290.15 1540.6,293.35 1525.3,273.63 1512.8,279.78 1519.2,303.89 1508.9,311.95 1487,300.13 1478,310.84 1493.6,330.29 1487.5,341.83 1462.7,339.95 1458.9,353.36 1481,364.8 1480.1,377.81 1456.7,386.21 1458.7,400 1483.5,401.45 1488,413.69 1470,430.9 "
         fill="url(#en)"
         id="polygon15079"
         transform="translate(-581.08999,286.85913)"
         style="fill:#0000ff" />
      <polygon
         points="652.75,1156.3 653.42,1203.5 630.9,1213.7 595.92,1182 574.64,1197.7 594.46,1240.5 578.02,1259 533.17,1244.2 520.09,1267.2 555.62,1298.3 548.12,1321.8 501.15,1326.6 498.54,1352.9 543.64,1366.8 546.36,1391.4 505.41,1414.9 513.71,1440 560.58,1434.3 573.06,1455.7 545.19,1493.8 562.98,1513.3 603.52,1489.1 623.6,1503.5 613.64,1549.7 637.82,1560.3 665.02,1521.7 689.23,1526.7 698.9,1572.9 725.31,1572.8 734.46,1526.5 758.61,1521.2 786.24,1559.5 810.31,1548.6 799.83,1502.6 819.74,1487.9 860.56,1511.6 878.12,1491.9 849.82,1454.1 862.06,1432.7 909,1437.7 917.02,1412.6 875.8,1389.6 878.24,1365 923.19,1350.5 920.28,1324.3 873.26,1320 865.49,1296.5 900.67,1265.1 887.34,1242.3 842.66,1257.5 826.01,1239.2 845.35,1196.1 823.9,1180.7 789.27,1212.8 766.63,1202.9 766.78,1155.7 740.92,1150.4 722.33,1193.8 697.62,1193.9 678.55,1150.7 "
         fill="url(#ct)"
         id="polygon15119"
         transform="translate(-581.08999,286.85913)"
         style="fill:#0000ff" />
      <polygon
         points="1116.9,822.48 1075.9,800.08 1078.1,775.68 1122.4,760.92 1119.3,734.94 1072.7,731.18 1064.7,708.01 1099.3,676.47 1085.9,654.01 1041.7,669.54 1025.1,651.6 1043.8,608.73 1022.4,593.68 988.38,625.82 965.86,616.21 965.54,569.43 939.86,564.39 921.87,607.58 897.38,607.96 878.06,565.35 852.55,571.19 853.69,617.96 831.47,628.27 796.49,597.21 775.56,612.92 795.62,655.18 779.52,673.63 734.93,659.48 722.2,682.35 757.72,712.8 750.51,736.21 704.02,741.42 701.69,767.48 746.52,780.86 749.46,805.17 709.11,828.84 717.58,853.6 763.98,847.58 776.55,868.6 749.32,906.63 767.13,925.8 807.06,901.44 827.1,915.52 817.69,961.35 841.76,971.62 868.33,933.11 892.36,937.83 902.4,983.52 928.57,983.11 937.18,937.13 961.05,931.67 988.81,969.32 1012.6,958.31 1001.7,912.8 1021.3,898.09 1062,921.21 1079.2,901.49 1050.8,864.32 1062.7,842.92 1109.2,847.49 "
         fill="url(#cv)"
         id="polygon15149"
         transform="translate(-581.08999,286.85913)"
         style="fill:#0000ff" />
      <polygon
         points="1132.5,1482.5 1118.1,1472.3 1120,1463.2 1137.3,1459.6 1137.3,1449.7 1119.9,1446.3 1118,1437.2 1132.3,1426.9 1128.3,1417.8 1111,1421.7 1105.5,1414.3 1114.5,1399 1107.1,1392.4 1092.9,1403 1084.8,1398.4 1086.8,1380.8 1077.4,1377.7 1068.7,1393.2 1059.5,1392.2 1054.1,1375.4 1044.2,1376.4 1042.6,1394.1 1033.8,1397 1022,1383.8 1013.5,1388.7 1019.2,1405.5 1012.3,1411.7 996.16,1404.5 990.36,1412.5 1002.4,1425.5 998.63,1434 980.93,1433.9 978.91,1443.6 995.17,1450.6 995.2,1459.8 979,1467 981.09,1476.6 998.79,1476.4 1002.6,1484.9 990.68,1498 996.53,1506 1012.6,1498.6 1019.5,1504.7 1014,1521.5 1022.6,1526.5 1034.2,1513.2 1043.1,1516 1044.8,1533.6 1054.7,1534.6 1059.9,1517.7 1069.2,1516.7 1077.9,1532.1 1087.3,1529 1085.3,1511.4 1093.3,1506.7 1107.5,1517.2 1114.9,1510.6 1105.8,1495.3 1111.3,1487.8 1128.5,1491.6 "
         fill="url(#cx)"
         id="polygon15177"
         transform="translate(-581.08999,286.85913)"
         style="fill:#0000ff" />
      <polygon
         points="823.13,1000.1 815.25,1013 807.43,1011.9 803.39,997.36 794.97,997.95 793.01,1012.9 785.42,1015.1 775.82,1003.4 768.37,1007.4 772.65,1021.9 766.6,1027 753.1,1020.2 747.91,1026.9 757.7,1038.3 754.24,1045.4 739.17,1044.8 737.13,1053 750.75,1059.5 750.47,1067.4 736.44,1072.9 737.9,1081.2 752.98,1081.6 755.94,1088.9 745.37,1099.7 750.09,1106.7 764.03,1100.9 769.71,1106.4 764.43,1120.5 771.59,1125 781.97,1114 789.39,1116.7 790.31,1131.8 798.67,1133 803.71,1118.8 811.58,1118.2 818.55,1131.6 826.66,1129.3 825.48,1114.2 832.45,1110.5 844.26,1119.9 850.72,1114.5 843.52,1101.2 848.38,1095 862.99,1098.8 866.69,1091.2 854.72,1082 856.63,1074.3 871.51,1071.8 871.8,1063.4 857.13,1059.9 855.76,1052.1 868.34,1043.8 865.18,1036 850.34,1038.7 845.93,1032.2 854.03,1019.4 847.96,1013.6 835.53,1022.1 828.83,1017.9 831.06,1003 "
         fill="url(#cz)"
         id="polygon15209"
         transform="translate(-581.08999,286.85913)"
         style="fill:#0000ff" />
      <polygon
         points="1780.7,1124.5 1799.9,1106.7 1812.4,1112.3 1812.3,1138.4 1826.6,1141.4 1836.9,1117.4 1850.6,1117.3 1861.2,1141.3 1875.5,1138.2 1875.1,1112.1 1887.6,1106.4 1907,1124.1 1918.8,1115.4 1907.9,1091.6 1917,1081.4 1941.8,1089.7 1949.1,1077 1929.5,1059.7 1933.6,1046.6 1959.7,1044.1 1961.2,1029.5 1936.2,1021.7 1934.7,1008.1 1957.4,995.14 1952.9,981.24 1926.9,984.29 1920,972.45 1935.5,951.37 1925.7,940.53 1903.2,953.88 1892.1,945.87 1897.6,920.31 1884.2,914.4 1869.1,935.75 1855.7,932.94 1850.4,907.33 1835.8,907.38 1830.7,933.03 1817.3,935.92 1802,914.67 1788.7,920.67 1794.4,946.19 1783.4,954.27 1760.8,941.07 1751,951.98 1766.6,972.96 1759.8,984.84 1733.8,981.96 1729.4,995.9 1752.2,1008.7 1750.8,1022.3 1725.9,1030.3 1727.4,1044.8 1753.5,1047.2 1757.8,1060.3 1738.2,1077.7 1745.6,1090.3 1770.4,1081.9 1779.6,1092.1 1768.8,1115.9 "
         fill="url(#db)"
         id="polygon15249"
         transform="translate(-581.08999,286.85913)"
         style="fill:#0000ff" />
      <polygon
         points="1940.9,424.02 1922.8,410.43 1925.5,398.91 1947.8,394.96 1948.1,382.32 1926.1,377.25 1923.9,365.61 1942.6,352.95 1937.8,341.27 1915.6,345.6 1908.9,335.85 1920.9,316.66 1911.7,307.96 1893.2,320.95 1883.1,314.77 1886.2,292.38 1874.3,288.17 1862.6,307.56 1850.9,306.03 1844.6,284.29 1832,285.3 1829.3,307.75 1817.9,311.12 1803.4,293.81 1792.3,299.86 1798.9,321.48 1789.9,329.17 1769.6,319.28 1761.9,329.32 1776.7,346.38 1771.6,357.06 1749,356.3 1746.1,368.6 1766.6,378.14 1766.3,389.97 1745.4,398.46 1747.7,410.9 1770.3,411.28 1774.8,422.21 1759.1,438.49 1766.3,448.91 1787.1,440.05 1795.7,448.2 1788,469.45 1798.8,476.05 1814.2,459.5 1825.4,463.44 1827,486 1839.5,487.64 1846.8,466.25 1858.6,465.31 1869.3,485.27 1881.4,481.66 1879.4,459.14 1889.8,453.48 1907.6,467.38 1917.3,459.16 1906.3,439.39 1913.5,429.99 1935.4,435.44 "
         fill="url(#de)"
         id="polygon15287"
         transform="translate(-581.08999,286.85913)"
         style="fill:#0000ff" />
      <polygon
         points="1214.3,1499.4 1226.3,1488.1 1234.2,1491.5 1234.3,1507.9 1243.3,1509.7 1249.6,1494.5 1258.2,1494.4 1265,1509.3 1273.9,1507.3 1273.5,1490.8 1281.3,1487.2 1293.6,1498.1 1300.9,1492.6 1293.9,1477.8 1299.5,1471.3 1315.2,1476.2 1319.6,1468.2 1307.2,1457.5 1309.7,1449.3 1326,1447.5 1326.8,1438.3 1311.1,1433.6 1310,1425.1 1324.2,1416.8 1321.2,1408.1 1304.9,1410.2 1300.5,1402.9 1310,1389.5 1303.8,1382.8 1289.8,1391.3 1282.7,1386.4 1286,1370.3 1277.6,1366.7 1268.3,1380.3 1259.8,1378.6 1256.3,1362.6 1247.1,1362.7 1244.1,1378.9 1235.7,1380.8 1226,1367.6 1217.6,1371.5 1221.5,1387.4 1214.6,1392.6 1200.3,1384.5 1194.3,1391.4 1204.3,1404.5 1200.1,1412 1183.8,1410.4 1181.1,1419.2 1195.5,1427 1194.7,1435.6 1179.2,1440.8 1180.3,1449.9 1196.6,1451.2 1199.4,1459.3 1187.3,1470.4 1192,1478.3 1207.5,1472.8 1213.4,1479.1 1206.8,1494.1 "
         fill="url(#dg)"
         id="polygon15323"
         transform="translate(-581.08999,286.85913)"
         style="fill:#0000ff" />
      <polygon
         points="569.57,414.35 570.11,393.64 580.16,389.57 594.94,404.09 604.55,397.61 596.62,378.47 604.15,370.66 623.56,377.92 629.69,368.08 614.66,353.83 618.37,343.64 639.05,342.37 640.66,330.89 621.13,323.98 620.37,313.16 638.74,303.59 635.54,292.45 614.89,294.08 609.8,284.51 622.69,268.29 615.24,259.42 597.03,269.3 588.48,262.63 593.67,242.57 583.25,237.5 570.64,253.93 560.12,251.31 556.69,230.88 545.11,230.48 540.28,250.63 529.6,252.51 518.16,235.24 507.42,239.58 511.2,259.95 502.21,266.02 484.73,254.89 476.69,263.23 488.42,280.3 482.68,289.5 462.19,286.44 458.23,297.34 475.9,308.16 474.39,318.9 454.43,324.44 455.24,336 475.78,338.7 478.77,349.12 462.79,362.3 468.23,372.53 488.1,366.64 495.07,374.95 485.83,393.49 494.96,400.62 510.71,387.17 520.46,391.92 519.56,412.62 530.81,415.42 539.72,396.72 550.56,397.09 558.16,416.36 "
         fill="url(#di)"
         id="polygon15365"
         transform="translate(-581.08999,286.85913)"
         style="fill:#0000ff" />
      <polygon
         points="1340.7,1290 1353.6,1290.8 1356,1297.2 1346.5,1306.2 1350.4,1312.3 1362.6,1307.8 1367.3,1312.7 1362.3,1324.7 1368.4,1328.8 1377.6,1319.6 1384,1322.2 1384.3,1335.2 1391.5,1336.4 1396.2,1324.3 1403,1324.1 1408.6,1335.8 1415.7,1334.1 1415.1,1321.1 1421.2,1318.1 1431.1,1326.5 1436.8,1322.1 1431,1310.4 1435.4,1305.2 1447.9,1308.9 1451.3,1302.5 1441.3,1294.2 1443.1,1287.7 1456,1286 1456.5,1278.7 1444,1275.2 1443,1268.5 1454.1,1261.7 1451.6,1254.9 1438.8,1256.8 1435.2,1251 1442.5,1240.3 1437.5,1235.1 1426.5,1242.1 1420.9,1238.3 1423.2,1225.5 1416.5,1222.8 1409.3,1233.6 1402.6,1232.4 1399.6,1219.8 1392.3,1220 1390.2,1232.9 1383.6,1234.5 1375.6,1224.2 1369.1,1227.4 1372.4,1240 1367,1244.2 1355.6,1238 1350.9,1243.5 1359,1253.7 1355.8,1259.7 1342.8,1258.7 1340.8,1265.7 1352.4,1271.7 1351.9,1278.5 1339.7,1282.8 "
         fill="url(#dk)"
         id="polygon15403"
         transform="translate(-581.08999,286.85913)"
         style="fill:#0000ff" />
      <polygon
         points="673.69,359.75 695.92,347.63 706.37,355.77 700.08,380.29 712.82,386.47 728.19,366.36 741.06,369.54 745.28,394.5 759.43,394.97 765.3,370.35 778.34,368.02 792.36,389.1 805.47,383.78 800.82,358.9 811.79,351.46 833.16,365.03 842.98,354.82 828.61,333.99 835.61,322.74 860.65,326.43 865.47,313.12 843.86,299.93 845.68,286.8 870.06,280 869.05,265.87 843.95,262.61 840.27,249.88 859.78,233.74 853.11,221.25 828.85,228.48 820.31,218.35 831.56,195.67 820.39,186.98 801.17,203.45 789.25,197.66 790.31,172.37 776.56,168.97 765.7,191.84 752.46,191.4 743.14,167.86 729.2,170.35 728.58,195.65 716.3,200.64 698.22,182.93 686.49,190.87 696.22,214.24 687.03,223.79 663.3,214.97 655.82,226.99 674.22,244.38 669.71,256.84 644.44,258.43 642.5,272.46 666.37,280.87 667.32,294.08 644.89,305.81 648.82,319.42 674.05,317.39 680.29,329.08 664.57,348.92 "
         fill="url(#dn)"
         id="polygon15435"
         transform="translate(-581.08999,286.85913)"
         style="fill:#0000ff" />
      <polygon
         points="1780.4,578.04 1767.5,574.77 1766.4,567.91 1777.6,560.72 1774.9,553.8 1761.8,556.05 1758,550.23 1765.3,539.12 1760,533.89 1748.9,541.27 1743.1,537.51 1745.2,524.4 1738.3,521.77 1731.2,533 1724.3,531.94 1720.9,519.1 1713.5,519.52 1711.6,532.66 1704.9,534.49 1696.6,524.13 1690,527.53 1693.6,540.31 1688.2,544.71 1676.4,538.63 1671.7,544.42 1680.2,554.64 1677.1,560.85 1663.8,560.09 1662,567.28 1673.9,573.15 1673.5,580.1 1661.1,584.8 1662.3,592.14 1675.6,592.66 1678.1,599.14 1668.7,608.49 1672.7,614.7 1685.1,609.78 1690,614.68 1685.2,627.06 1691.4,631.08 1700.7,621.57 1707.2,624.03 1707.8,637.3 1715.2,638.43 1719.8,625.97 1726.7,625.57 1732.7,637.44 1739.9,635.48 1739,622.23 1745.2,619.04 1755.5,627.45 1761.2,622.75 1755.1,610.99 1759.4,605.57 1772.2,609.07 1775.6,602.43 1765.1,594.21 1766.9,587.48 1780,585.46 "
         fill="url(#dq)"
         id="polygon15459"
         transform="translate(-581.08999,286.85913)"
         style="fill:#0000ff" />
      <polygon
         points="1901.9,1322.3 1858.4,1327.5 1846.9,1307.7 1872.8,1272.3 1856.3,1254.2 1818.6,1276.6 1800,1263.3 1809.3,1220.4 1786.8,1210.6 1761.6,1246.4 1739.1,1241.7 1730.2,1198.9 1705.6,1199 1697.1,1242 1674.7,1246.8 1649.1,1211.3 1626.8,1221.4 1636.5,1264.1 1618,1277.7 1580.1,1255.7 1563.8,1273.9 1590.1,1309 1578.7,1328.9 1535.1,1324.2 1527.7,1347.6 1565.9,1368.9 1563.7,1391.8 1521.9,1405.1 1524.6,1429.5 1568.3,1433.5 1575.5,1455.3 1542.8,1484.5 1555.2,1505.6 1596.6,1491.5 1612.1,1508.5 1594.1,1548.4 1614,1562.7 1646.2,1533 1667.2,1542.2 1667,1586 1691,1591 1708.3,1550.7 1731.2,1550.6 1748.9,1590.7 1772.8,1585.4 1772.2,1541.6 1793.1,1532.2 1825.6,1561.6 1845.3,1547.1 1826.9,1507.3 1842.2,1490.2 1883.8,1503.9 1896,1482.6 1863,1453.8 1870,1431.9 1913.6,1427.5 1916,1403.1 1874.1,1390.1 1871.6,1367.4 1909.6,1345.6 "
         fill="url(#ds)"
         id="polygon15487"
         transform="translate(-581.08999,286.85913)"
         style="fill:#0000ff" />
      <polygon
         points="1631,777.38 1642.7,785.59 1641.2,792.9 1627.2,795.82 1627.2,803.79 1641.2,806.56 1642.8,813.85 1631.3,822.19 1634.5,829.45 1648.4,826.29 1652.9,832.31 1645.7,844.63 1651.6,849.93 1663.1,841.39 1669.5,845.09 1668,859.26 1675.6,861.68 1682.5,849.24 1690,849.98 1694.3,863.55 1702.3,862.67 1703.5,848.48 1710.6,846.13 1720.1,856.76 1727,852.73 1722.4,839.24 1727.9,834.22 1740.9,840.06 1745.6,833.58 1735.9,823.12 1738.9,816.29 1753.2,816.34 1754.8,808.53 1741.7,802.92 1741.6,795.45 1754.7,789.7 1753,781.91 1738.7,782.11 1735.7,775.31 1745.2,764.75 1740.5,758.32 1727.6,764.3 1722,759.34 1726.4,745.8 1719.5,741.85 1710.1,752.58 1703,750.31 1701.6,736.13 1693.6,735.34 1689.4,748.95 1682,749.77 1674.9,737.4 1667.4,739.91 1669,754.06 1662.6,757.83 1651.1,749.41 1645.2,754.78 1652.5,767.02 1648.2,773.08 1634.2,770.07 "
         fill="url(#du)"
         id="polygon15505"
         transform="translate(-581.08999,286.85913)"
         style="fill:#0000ff" />
      <polygon
         points="2000.9,472.12 2015.2,469.04 2019.6,475.24 2012.1,487.77 2018.2,493.26 2029.9,484.64 2036.5,488.49 2034.8,502.97 2042.6,505.53 2049.8,492.87 2057.4,493.7 2061.7,507.63 2069.8,506.82 2071.3,492.31 2078.6,489.98 2088.2,500.95 2095.3,496.91 2090.7,483.06 2096.4,477.97 2109.7,484.09 2114.5,477.51 2104.7,466.71 2107.8,459.75 2122.4,459.94 2124.1,451.97 2110.8,446.09 2110.8,438.46 2124.2,432.7 2122.6,424.72 2108,424.77 2104.9,417.78 2114.8,407.08 2110.1,400.45 2096.8,406.44 2091.1,401.3 2095.8,387.49 2088.8,383.38 2079,394.26 2071.8,391.86 2070.5,377.34 2062.4,376.44 2057.9,390.33 2050.3,391.1 2043.2,378.37 2035.4,380.85 2037,395.35 2030.4,399.14 2018.7,390.4 2012.6,395.83 2019.9,408.44 2015.4,414.59 2001.2,411.37 1997.8,418.8 2009.7,427.33 2008,434.79 1993.7,437.63 1993.7,445.79 2008,448.77 2009.5,456.24 1997.6,464.66 "
         fill="url(#dw)"
         id="polygon15529"
         transform="translate(-581.08999,286.85913)"
         style="fill:#0000ff" />
      <polygon
         points="1422.7,1462.9 1431.1,1454 1437.2,1456.2 1438,1468.4 1444.8,1469.3 1448.8,1457.8 1455.2,1457.3 1460.9,1468.1 1467.5,1466.2 1466.5,1454 1472.2,1451 1481.8,1458.6 1487,1454.2 1481.2,1443.4 1485.1,1438.3 1497,1441.4 1500,1435.2 1490.2,1427.7 1491.7,1421.5 1503.8,1419.4 1504,1412.6 1492.1,1409.8 1491,1403.4 1501.2,1396.6 1498.6,1390.3 1486.5,1392.6 1482.9,1387.2 1489.5,1376.9 1484.5,1372.1 1474.5,1379.1 1469,1375.7 1470.8,1363.6 1464.3,1361.3 1457.9,1371.7 1451.6,1370.9 1448.3,1359.1 1441.4,1359.6 1439.9,1371.7 1433.7,1373.5 1425.9,1364.1 1419.8,1367.3 1423.3,1379.1 1418.4,1383.2 1407.4,1377.8 1403.2,1383.2 1411.2,1392.5 1408.4,1398.3 1396.2,1397.8 1394.5,1404.4 1405.6,1409.7 1405.4,1416.1 1394,1420.6 1395.2,1427.4 1407.5,1427.7 1409.9,1433.6 1401.3,1442.4 1405.2,1448.1 1416.5,1443.3 1421.2,1447.8 1416.9,1459.3 "
         fill="url(#dy)"
         id="polygon15563"
         transform="translate(-581.08999,286.85913)"
         style="fill:#0000ff" />
      <polygon
         points="2053,1498.5 2056.4,1490.1 2073.8,1489.6 2075.5,1480.1 2059.3,1473.7 2059,1464.6 2074.7,1457.1 2072.3,1447.7 2055,1448.5 2051,1440.3 2062.3,1427.1 2056.3,1419.4 2040.8,1427.2 2033.8,1421.3 2038.7,1404.7 2030.1,1400.1 2019.1,1413.5 2010.4,1411 2008.1,1393.8 1998.4,1393.1 1993.8,1409.9 1984.8,1411.1 1975.7,1396.3 1966.6,1399.6 1969.1,1416.8 1961.4,1421.6 1947.1,1411.8 1940.1,1418.6 1949.4,1433.2 1944.4,1440.7 1927.3,1437.6 1923.6,1446.6 1938.1,1456.2 1936.5,1465.1 1919.7,1469.2 1920,1478.9 1937.1,1481.8 1939.3,1490.6 1925.5,1501.2 1929.8,1509.9 1946.6,1505.5 1952.2,1512.7 1943.9,1528 1951.4,1534.2 1965,1523.4 1973,1527.7 1971.6,1545 1981,1547.7 1989,1532.2 1998.1,1532.9 2003.9,1549.3 2013.5,1547.9 2014.5,1530.6 2023.1,1527.5 2035,1540.1 2043.3,1534.9 2037.2,1518.6 2043.7,1512.3 2059.8,1519 2065.2,1510.9 "
         fill="url(#eb)"
         id="polygon15581"
         transform="translate(-580.78999,265.05913)"
         style="fill:#0000ff" />
      <polygon
         points="2141,920.47 2132.6,931.62 2125.5,929.92 2123,916.17 2115.2,915.97 2112.1,929.57 2104.9,930.9 2097.1,919.33 2089.9,922.32 2092.5,936.02 2086.5,940.16 2074.7,932.76 2069.3,938.42 2077.3,949.86 2073.5,956.09 2059.7,954.15 2057.1,961.51 2069,968.7 2068.1,975.94 2054.7,979.79 2055.3,987.57 2069.1,989.28 2071.2,996.28 2060.5,1005.3 2064.2,1012.1 2077.6,1008 2082.3,1013.6 2076.2,1026.1 2082.4,1030.9 2092.9,1021.7 2099.5,1024.9 2099.1,1038.8 2106.6,1040.7 2112.5,1028 2119.9,1028.2 2125.1,1041.1 2132.8,1039.7 2133,1025.8 2139.8,1023 2149.8,1032.7 2156.2,1028.2 2150.8,1015.4 2155.8,1010.1 2168.9,1014.9 2173,1008.2 2162.8,998.68 2165.2,991.79 2179.2,990.82 2180.2,983.07 2167,978.53 2166.4,971.24 2178.7,964.69 2176.5,957.2 2162.6,958.42 2159.1,952 2167.7,941 2162.6,935.06 2150.4,941.83 2144.6,937.38 2148,923.84 "
         fill="url(#ed)"
         id="polygon15621"
         transform="translate(-581.08999,286.85913)"
         style="fill:#0000ff" />
      <polygon
         points="634.48,1082.6 652.24,1069.5 635.54,1033.7 649.24,1018.2 686.82,1030.4 697.7,1011.1 667.88,985.23 674.09,965.5 713.38,961.36 715.5,939.36 677.71,927.81 675.36,907.26 709.58,887.5 702.56,866.54 663.34,871.36 652.84,853.54 676.06,821.57 661.12,805.28 627.26,825.64 610.41,813.63 618.62,774.98 598.34,766.17 575.69,798.54 555.42,794.42 547.19,755.78 525.09,755.97 517.56,794.76 497.37,799.24 474.14,767.28 454.02,776.45 462.92,814.95 446.3,827.26 412.07,807.51 397.43,824.07 421.22,855.62 411.04,873.63 371.74,869.51 365.1,890.59 399.66,909.74 397.68,930.33 360.11,942.54 362.62,964.5 401.98,967.94 408.55,987.56 379.19,1014 390.41,1033 427.77,1020.2 441.75,1035.4 425.69,1071.5 443.68,1084.3 472.57,1057.4 491.55,1065.6 491.56,1105.2 513.22,1109.6 528.65,1073.2 549.33,1073 565.41,1109.1 586.99,1104.3 586.29,1064.8 605.11,1056.2 "
         fill="url(#ef)"
         id="polygon15647"
         transform="rotate(-15,1219.11,3186.1013)"
         style="fill:#0000ff" />
      <polygon
         points="1204.1,724.68 1212.2,751.55 1201,761.04 1175.8,748.64 1166.2,761.05 1184.5,782.3 1178.2,795.53 1150.1,794.44 1146.4,809.68 1171.8,821.65 1171.3,836.33 1145.3,846.73 1148.1,862.18 1176.1,862.78 1181.7,876.38 1162.1,896.48 1170.9,909.45 1196.8,898.6 1207.4,908.76 1197.7,935.08 1211.1,943.34 1230.3,922.9 1244.1,927.86 1246,955.86 1261.5,957.97 1270.8,931.48 1285.4,930.39 1298.5,955.22 1313.5,950.82 1311.2,922.86 1324.2,915.91 1346.2,933.28 1358.2,923.13 1344.7,898.53 1353.7,886.92 1380.9,893.82 1387.7,879.68 1365.3,862.7 1368.8,848.43 1396.5,843.68 1397,827.99 1369.6,821.56 1367,807.11 1390.4,791.51 1384.4,776.99 1356.8,782.22 1348.6,770.08 1363.5,746.35 1352.2,735.5 1329.2,751.5 1316.7,743.77 1320.7,716 1305.9,710.7 1291.4,734.69 1276.8,732.71 1269.2,705.71 1253.5,706.87 1250,734.71 1235.9,738.82 1217.9,717.25 "
         fill="url(#eh)"
         id="polygon15681"
         transform="translate(-581.08999,286.85913)"
         style="fill:#0000ff" />
      <polygon
         points="979.22,572.74 979.64,541.85 994.56,535.6 1016.9,556.98 1031.1,547.13 1018.9,518.74 1030,506.97 1059,517.42 1068,502.65 1045.3,481.67 1050.7,466.4 1081.5,464.12 1083.7,446.98 1054.4,437.04 1053.1,420.92 1080.3,406.31 1075.4,389.76 1044.6,392.57 1036.8,378.38 1055.7,353.96 1044.5,340.87 1017.5,355.95 1004.6,346.15 1012,316.14 996.36,308.76 977.87,333.51 962.12,329.8 956.64,299.39 939.36,299 932.53,329.13 916.64,332.14 899.26,306.6 883.32,313.27 889.33,343.58 876.04,352.79 849.78,336.52 837.93,349.1 855.75,374.34 847.35,388.16 816.74,383.98 811.03,400.3 837.57,416.11 835.52,432.15 805.86,440.78 807.28,458 837.96,461.65 842.62,477.14 819.03,497.09 827.33,512.25 856.84,503.1 867.39,515.36 853.96,543.18 867.71,553.65 890.95,533.29 905.57,540.2 904.61,571.08 921.43,575.04 934.38,547 950.55,547.36 962.24,575.96 "
         fill="url(#ej)"
         id="polygon15717"
         transform="translate(-581.08999,286.85913)"
         style="fill:#0000ff" />
      <polygon
         points="2080.3,858.65 2066.9,819.31 2083,804.68 2120.9,821.73 2134.4,802.86 2106.2,772.37 2115,752.46 2156.5,752.62 2161.2,729.87 2123.1,713.48 2123,691.74 2161,674.99 2156,652.28 2114.5,652.84 2105.6,633.02 2133.5,602.25 2119.7,583.52 2082,600.93 2065.8,586.45 2078.8,546.99 2058.6,535.47 2031.2,566.71 2010.5,560.09 2006.3,518.76 1983.2,516.44 1970.9,556.12 1949.3,558.5 1928.6,522.44 1906.6,529.73 1911.5,570.98 1892.7,581.94 1859.2,557.39 1842,573.03 1863.2,608.72 1850.5,626.38 1809.9,617.58 1800.6,638.85 1834.5,662.82 1830.1,684.11 1789.4,692.59 1789.6,715.83 1830.3,723.92 1834.9,745.17 1801.2,769.45 1810.8,790.64 1851.3,781.45 1864.2,798.98 1843.2,834.88 1860.6,850.35 1893.9,825.48 1912.8,836.26 1908.2,877.56 1930.4,884.64 1950.7,848.38 1972.3,850.55 1985,890.11 2008.1,887.57 2011.9,846.2 2032.5,839.38 2060.2,870.36 "
         fill="url(#em)"
         id="polygon15741"
         transform="translate(-581.08999,286.85913)"
         style="fill:#0000ff" />
      <polygon
         points="1307.4,343.94 1318,327.29 1328.3,328.93 1333.2,348.08 1344.2,347.52 1347.2,327.98 1357.2,325.32 1369.4,340.82 1379.3,335.82 1374.1,316.76 1382.1,310.27 1399.6,319.43 1406.6,310.85 1394.1,295.58 1398.8,286.37 1418.5,287.61 1421.4,276.94 1403.7,268.08 1404.3,257.75 1422.8,250.87 1421.1,239.95 1401.4,239.04 1397.7,229.38 1411.8,215.55 1405.8,206.27 1387.4,213.47 1380.1,206.14 1387.4,187.77 1378.1,181.73 1364.2,195.8 1354.6,192.07 1353.8,172.32 1342.8,170.57 1335.9,189.06 1325.5,189.58 1316.8,171.88 1306.1,174.72 1307.2,194.45 1298,199.13 1282.8,186.52 1274.2,193.46 1283.3,211.01 1276.7,219.04 1257.7,213.72 1252.7,223.56 1268.1,235.89 1265.4,245.88 1245.9,248.76 1245.3,259.8 1264.4,264.79 1266,275.01 1249.3,285.6 1253.2,295.93 1272.7,292.71 1278.3,301.4 1267.4,317.86 1275.2,325.69 1291.7,314.82 1300.4,320.47 1297.1,339.95 "
         fill="url(#bv)"
         id="polygon15765"
         transform="translate(-581.08999,286.85913)"
         style="fill:#0000ff" />
      <polygon
         points="396.41,1219.6 408.03,1214.1 426.44,1230.3 437.37,1222 426.75,1199.9 435.15,1190.2 458.55,1197.5 465.17,1185.5 446.48,1169.6 450.2,1157.3 474.55,1154.5 475.71,1140.8 452.18,1133.9 450.58,1121.2 471.67,1108.7 467.17,1095.7 442.87,1099 436.23,1088 450.41,1068 441.03,1058 420.16,1070.9 409.62,1063.5 414.44,1039.5 401.8,1034.2 387.97,1054.4 375.36,1052 369.99,1028.1 356.27,1028.4 351.87,1052.5 339.37,1055.4 324.73,1035.7 312.32,1041.6 318.11,1065.4 307.88,1073.1 286.5,1061.1 277.53,1071.5 292.52,1090.9 286.32,1102.2 261.91,1099.9 257.94,1113 279.52,1124.6 278.43,1137.4 255.2,1145.3 256.91,1158.9 281.36,1160.7 285.58,1172.9 267.54,1189.5 274.64,1201.2 297.73,1193 306.51,1202.3 296.8,1224.9 308.06,1232.7 325.8,1215.8 337.63,1220.7 337.91,1245.3 351.38,1247.8 360.7,1225.2 373.54,1224.9 383.77,1247.2 397.12,1244.1 "
         fill="url(#bx)"
         id="polygon15805"
         transform="matrix(0.72271848,0,0,0.72271848,-405.82647,626.2054)"
         style="fill:#0000ff" />
      <polygon
         points="138.49,944.37 141.23,957.23 135.63,961.24 124.35,954.47 119.39,959.9 127.13,970.53 123.64,976.47 110.59,974.88 108.26,981.86 119.65,988.42 118.88,995.26 106.31,999.12 107.02,1006.4 120.1,1007.8 122.18,1014.4 112.26,1023 115.89,1029.4 128.39,1025.3 132.96,1030.5 127.41,1042.4 133.33,1046.8 143.09,1038 149.36,1040.8 149.14,1054 156.33,1055.5 161.66,1043.5 168.55,1043.6 173.7,1055.7 180.9,1054.2 180.89,1041.1 187.2,1038.3 196.83,1047.3 202.81,1043 197.45,1031 202.1,1025.9 214.54,1030.2 218.26,1023.8 208.48,1015 210.66,1008.5 223.76,1007.3 224.59,1000 212.08,995.99 211.41,989.14 222.9,982.75 220.69,975.74 207.61,977.12 204.21,971.13 212.12,960.62 207.24,955.12 195.86,961.7 190.32,957.62 193.26,944.8 186.57,941.76 178.85,952.4 172.13,950.92 169.6,938.01 162.25,937.96 159.53,950.82 152.78,952.2 145.23,941.43 "
         fill="url(#bz)"
         id="polygon15835"
         transform="translate(-581.08999,286.85913)"
         style="fill:#0000ff" />
      <polygon
         points="989.8,197.99 1006.4,208.08 1005.1,218.17 986.35,223.46 987.16,234.32 1006.5,236.76 1009.3,246.54 994.37,258.99 999.53,268.58 1018.2,262.96 1024.7,270.73 1016.1,288.19 1024.8,294.85 1039.5,282.14 1048.7,286.56 1047.9,306 1058.5,308.58 1066.8,290.98 1077,291.29 1084.2,309.35 1094.9,307.41 1095.3,287.96 1104.7,284.1 1118.7,297.67 1127.7,291.54 1120.1,273.6 1127.2,266.23 1145.4,272.96 1151.2,263.7 1137,250.37 1140.4,240.78 1159.8,239.5 1161.3,228.72 1142.9,222.31 1142.2,212.15 1159.4,203.08 1156.3,192.64 1136.9,194.26 1132.1,185.28 1144.1,170 1137.1,161.7 1120.1,171.06 1112,164.83 1116.8,145.97 1107,141.24 1095.2,156.74 1085.3,154.32 1082,135.15 1071.1,134.82 1066.7,153.76 1056.6,155.58 1045.8,139.41 1035.8,143.54 1039.4,162.65 1031,168.39 1014.5,158.02 1007,165.88 1018.1,181.86 1012.7,190.53 993.48,187.75 "
         fill="url(#cb)"
         id="polygon15873"
         transform="translate(-581.08999,286.85913)"
         style="fill:#0000ff" />
      <polygon
         points="1613.7,561.73 1596.7,566.82 1590.7,559.71 1598.6,543.78 1590.7,537.67 1577.2,549.26 1568.8,545.2 1569.6,527.43 1559.9,525.05 1552.3,541.12 1543,540.82 1536.4,524.3 1526.7,526.05 1526.2,543.82 1517.6,547.33 1504.9,534.9 1496.7,540.49 1503.5,556.9 1497.1,563.61 1480.4,557.43 1475.2,565.87 1488.1,578.08 1484.9,586.83 1467.2,587.97 1465.8,597.82 1482.6,603.71 1483.3,612.99 1467.5,621.24 1470.3,630.8 1488,629.36 1492.4,637.56 1481.4,651.5 1487.8,659.11 1503.4,650.58 1510.7,656.29 1506.3,673.52 1515.3,677.85 1526.1,663.72 1535.1,665.95 1538.1,683.48 1548,683.8 1552.1,666.5 1561.3,664.86 1571.1,679.66 1580.4,675.91 1577.1,658.43 1584.8,653.21 1599.8,662.72 1606.7,655.55 1596.6,640.92 1601.5,633.02 1619.1,635.6 1622.5,626.24 1607.3,616.99 1608.5,607.77 1625.7,602.98 1624.9,593.06 1607.3,590.78 1604.7,581.84 1618.4,570.5 "
         fill="url(#ce)"
         id="polygon15911"
         transform="translate(-581.08999,286.85913)"
         style="fill:#0000ff" />
      <polygon
         points="1963,1123.7 1981.7,1150.9 1972.6,1165.5 1940,1160.7 1933.7,1178 1961.8,1195.2 1959.4,1212.3 1927.6,1221.1 1928.9,1239.5 1961.6,1243.8 1966.4,1260.4 1940.9,1281.4 1949.6,1297.7 1981.2,1288.3 1992.3,1301.5 1977.6,1331 1992.1,1342.4 2017.2,1320.9 2032.7,1328.5 2031.3,1361.4 2049.2,1365.9 2063.4,1336.1 2080.6,1336.7 2092.7,1367.4 2110.9,1364.2 2111.7,1331.2 2127.7,1324.8 2151.2,1347.8 2166.5,1337.5 2153.9,1307.1 2165.9,1294.7 2196.7,1306.2 2206.5,1290.6 2182.6,1267.9 2188.5,1251.7 2221.4,1249.6 2223.9,1231.4 2192.9,1220.4 2191.7,1203.2 2220.9,1187.9 2215.8,1170.2 2182.9,1172.8 2174.8,1157.6 2195.4,1131.8 2183.5,1117.7 2154.5,1133.4 2140.9,1122.8 2149.2,1090.9 2132.6,1082.8 2112.5,1108.9 2095.8,1104.8 2090.3,1072.3 2071.9,1071.6 2064.2,1103.7 2047.2,1106.7 2029,1079.2 2011.9,1086.1 2018,1118.5 2003.7,1128.2 1975.8,1110.5 "
         fill="url(#cg)"
         id="polygon15947"
         transform="translate(-581.08999,286.85913)"
         style="fill:#0000ff" />
      <polygon
         points="1688.8,1045.2 1653.9,1036.2 1650.9,1017.6 1681.3,998.18 1674.1,979.34 1638.5,985.32 1628.2,969.48 1648.1,939.39 1633.8,925.13 1603.7,945.06 1587.9,934.78 1593.8,899.2 1575,891.98 1555.6,922.41 1537,919.47 1527.9,884.55 1507.7,885.62 1502.4,921.3 1484.2,926.2 1461.7,897.98 1443.7,907.15 1453.4,941.91 1438.7,953.8 1406.7,937.17 1394,952.86 1417,980.68 1408.4,997.52 1372.4,995.34 1367.2,1014.8 1399.5,1030.9 1398.5,1049.8 1364.7,1062.4 1367.9,1082.4 1404,1083.9 1410.7,1101.5 1385,1126.8 1396,1143.8 1429.6,1130.5 1442.9,1143.9 1429.7,1177.4 1446.7,1188.4 1471.9,1162.7 1489.6,1169.4 1491.2,1205.5 1511.1,1208.6 1523.7,1174.8 1542.6,1173.8 1558.7,1206.1 1578.2,1200.9 1576,1164.8 1592.8,1156.3 1620.6,1179.2 1636.3,1166.5 1619.6,1134.5 1631.5,1119.8 1666.3,1129.4 1675.4,1111.4 1647.2,1089 1652.1,1070.8 1687.7,1065.4 "
         fill="url(#ci)"
         id="polygon15987"
         transform="translate(-581.08999,286.85913)"
         style="fill:#0000ff" />
      <polygon
         points="1335.4,652.6 1328.4,620.2 1342.5,610.05 1371,626.99 1383.4,613.25 1363.8,586.52 1372.6,571.51 1405.5,575.39 1411.3,557.77 1382.5,541.33 1384.4,524.07 1416,514.22 1414.2,495.76 1381.2,492.46 1375.9,475.92 1400.8,454.04 1391.6,437.94 1360.1,448.34 1348.5,435.4 1362.4,405.27 1347.4,394.31 1322.9,416.62 1307.1,409.5 1307.5,376.34 1289.3,372.41 1276,402.78 1258.6,402.71 1245.5,372.25 1227.4,376.04 1227.5,409.2 1211.6,416.2 1187.3,393.7 1172.2,404.55 1185.9,434.78 1174.2,447.64 1142.8,436.99 1133.5,453.02 1158.2,475.09 1152.8,491.58 1119.8,494.64 1117.7,513.08 1149.3,523.17 1151.1,540.45 1122.2,556.67 1127.8,574.33 1160.8,570.71 1169.4,585.78 1149.6,612.36 1161.9,626.19 1190.6,609.47 1204.6,619.73 1197.3,652.08 1214.2,659.69 1233.6,632.76 1250.5,636.44 1257,668.96 1275.6,669.03 1282.3,636.56 1299.3,633.01 1318.5,660.08 "
         fill="url(#ck)"
         id="polygon16019"
         transform="translate(-581.08999,286.85913)"
         style="fill:#0000ff" />
      <polygon
         points="1134.1,112.54 1151.1,116.75 1152.7,125.8 1138,135.37 1141.6,144.48 1158.8,141.41 1163.9,149.05 1154.4,163.77 1161.4,170.63 1175.9,160.8 1183.7,165.72 1181,183.03 1190.2,186.45 1199.4,171.57 1208.5,172.91 1213.1,189.83 1222.8,189.21 1225.2,171.85 1234.1,169.39 1245.1,182.99 1253.8,178.44 1249,161.6 1256,155.76 1271.7,163.68 1277.8,156 1266.5,142.6 1270.5,134.38 1288,135.26 1290.5,125.77 1274.7,118.11 1275.1,108.94 1291.5,102.63 1289.8,92.967 1272.3,92.387 1268.9,83.856 1281.3,71.441 1275.9,63.275 1259.6,69.87 1253.1,63.45 1259.3,47.077 1251,41.825 1238.9,54.453 1230.3,51.256 1229.3,33.756 1219.6,32.324 1213.7,48.804 1204.5,49.38 1196.5,33.779 1187.1,36.416 1188.4,53.897 1180.2,58.148 1166.6,47.144 1159,53.394 1167.3,68.853 1161.6,76.044 1144.6,71.539 1140.3,80.321 1154.1,91.086 1151.8,99.973 1134.5,102.75 "
         fill="url(#cm)"
         id="polygon16037"
         transform="translate(-581.08999,286.85913)"
         style="fill:#0000ff" />
      <polygon
         points="705.56,544.77 671.07,541.95 665.22,524.81 690.8,501.5 680.88,484.88 648.22,496.33 635.91,483.04 649.8,451.35 633.97,440.2 608.8,463.94 592.14,456.82 591.94,422.21 572.95,418.46 559.61,450.39 541.49,450.66 527.24,419.12 508.36,423.42 509.16,458.02 492.72,465.63 466.87,442.62 451.37,454.23 466.18,485.51 454.25,499.15 421.27,488.64 411.84,505.55 438.09,528.1 432.74,545.41 398.34,549.23 396.6,568.51 429.75,578.44 431.91,596.43 402.04,613.9 408.28,632.23 442.61,627.81 451.9,643.37 431.72,671.49 444.88,685.68 474.44,667.69 489.25,678.12 482.25,712.02 500.05,719.64 519.74,691.17 537.51,694.68 544.9,728.49 564.26,728.21 570.67,694.2 588.34,690.18 608.84,718.06 626.41,709.93 618.43,676.25 632.93,665.39 663,682.52 675.75,667.95 654.76,640.43 663.59,624.61 698.03,628.02 703.74,609.53 673.38,592.92 675.01,574.88 707.86,564 "
         fill="url(#cp)"
         id="polygon16063"
         transform="translate(-581.08999,286.85913)"
         style="fill:#0000ff" />
    </g>
    <text
       id="text19105"
       y="78.238281"
       x="118.7961"
       style="font-style:normal;font-weight:normal;font-size:32.1567px;line-height:1.25;font-family:sans-serif;fill:#000000;fill-opacity:1;stroke:none;stroke-width:0.803917"
       xml:space="preserve"><tspan
         style="stroke-width:0.803917"
         y="78.238281"
         x="118.7961"
         id="tspan19103"
         sodipodi:role="line">Von der Organisation</tspan><tspan
         style="stroke-width:0.803917"
         id="tspan19107"
         y="118.43416"
         x="118.7961"
         sodipodi:role="line">als MASCHINE ...</tspan></text>
    <text
       xml:space="preserve"
       style="font-style:normal;font-weight:normal;font-size:32.1567px;line-height:1.25;font-family:sans-serif;fill:#000000;fill-opacity:1;stroke:none;stroke-width:0.803917"
       x="761.29089"
       y="78.238281"
       id="text19105-1"><tspan
         style="stroke-width:0.803917"
         sodipodi:role="line"
         id="tspan19103-1"
         x="761.29089"
         y="78.238281">.... zur Organisation</tspan><tspan
         style="stroke-width:0.803917"
         sodipodi:role="line"
         x="761.29089"
         y="118.43416"
         id="tspan19107-0">als ORGANISMUS!</tspan></text>
  </g>
</svg>
