<?xml version="1.0" encoding="UTF-8" standalone="no"?>
<svg
   xmlns:dc="http://purl.org/dc/elements/1.1/"
   xmlns:cc="http://creativecommons.org/ns#"
   xmlns:rdf="http://www.w3.org/1999/02/22-rdf-syntax-ns#"
   xmlns:svg="http://www.w3.org/2000/svg"
   xmlns="http://www.w3.org/2000/svg"
   xmlns:sodipodi="http://sodipodi.sourceforge.net/DTD/sodipodi-0.dtd"
   xmlns:inkscape="http://www.inkscape.org/namespaces/inkscape"
   inkscape:export-ydpi="249.17174"
   inkscape:export-xdpi="249.17174"
   inkscape:export-filename="C:\Users\SimonDückert\OneDrive - Cogneon GmbH\Dokumente\GitHub\lernos-for-organizations\de\src\images\koalition-des-lernens.png"
   sodipodi:docname="koalition-des-lernens.svg"
   inkscape:version="1.0 (4035a4fb49, 2020-05-01)"
   id="svg8"
   version="1.1"
   viewBox="0 0 297 210"
   height="210mm"
   width="297mm">
  <defs
     id="defs2">
    <marker
       inkscape:isstock="true"
       style="overflow:visible"
       id="Arrow1Mend"
       refX="0"
       refY="0"
       orient="auto"
       inkscape:stockid="Arrow1Mend">
      <path
         transform="matrix(-0.4,0,0,-0.4,-4,0)"
         style="fill:#c8c7b9;fill-opacity:1;fill-rule:evenodd;stroke:#c8c7b9;stroke-width:1pt;stroke-opacity:1"
         d="M 0,0 5,-5 -12.5,0 5,5 Z"
         id="path2736" />
    </marker>
    <marker
       inkscape:isstock="true"
       style="overflow:visible"
       id="Arrow2Lend"
       refX="0"
       refY="0"
       orient="auto"
       inkscape:stockid="Arrow2Lend">
      <path
         transform="matrix(-1.1,0,0,-1.1,-1.1,0)"
         d="M 8.7185878,4.0337352 -2.2072895,0.01601326 8.7185884,-4.0017078 c -1.7454984,2.3720609 -1.7354408,5.6174519 -6e-7,8.035443 z"
         style="fill:#c8c7b9;fill-opacity:1;fill-rule:evenodd;stroke:#c8c7b9;stroke-width:0.625;stroke-linejoin:round;stroke-opacity:1"
         id="path2748" />
    </marker>
  </defs>
  <sodipodi:namedview
     showguides="false"
     inkscape:window-maximized="1"
     inkscape:window-y="-8"
     inkscape:window-x="-8"
     inkscape:window-height="1027"
     inkscape:window-width="2560"
     showgrid="false"
     inkscape:document-rotation="0"
     inkscape:current-layer="layer1"
     inkscape:document-units="mm"
     inkscape:cy="728.71"
     inkscape:cx="-356.66761"
     inkscape:zoom="0.46943919"
     inkscape:pageshadow="2"
     inkscape:pageopacity="0.0"
     borderopacity="1.0"
     bordercolor="#666666"
     pagecolor="#ffffff"
     id="base" />
  <metadata
     id="metadata5">
    <rdf:RDF>
      <cc:Work
         rdf:about="">
        <dc:format>image/svg+xml</dc:format>
        <dc:type
           rdf:resource="http://purl.org/dc/dcmitype/StillImage" />
        <dc:title></dc:title>
      </cc:Work>
    </rdf:RDF>
  </metadata>
  <g
     id="layer1"
     inkscape:groupmode="layer"
     inkscape:label="Ebene 1">
    <g
       transform="matrix(2.8334516,0,0,2.8334516,-151.77822,-316.79477)"
       id="g1252">
      <path
         d="m 75.733236,128.65464 c 0.211006,0 0.381993,0.17099 0.381993,0.38198 0,0.21102 -0.170987,0.382 -0.381993,0.382 -0.211005,0 -0.381992,-0.17098 -0.381992,-0.382 0,-0.21099 0.170987,-0.38198 0.381992,-0.38198 m 0,1.63711 c 0.541155,0 1.109597,0.26466 1.109597,0.38199 v 0.2001 H 74.62364 v -0.2001 c 0,-0.11733 0.568441,-0.38199 1.109596,-0.38199 m 0,-1.98272 c -0.402001,0 -0.727604,0.3256 -0.727604,0.7276 0,0.4011 0.325603,0.72761 0.727604,0.72761 0.402002,0 0.727604,-0.32651 0.727604,-0.72761 0,-0.402 -0.325602,-0.7276 -0.727604,-0.7276 z m 0,1.63711 c -0.484766,0 -1.455208,0.24284 -1.455208,0.7276 v 0.54571 h 2.910417 v -0.54571 c 0,-0.48476 -0.970442,-0.7276 -1.455209,-0.7276 z"
         id="path944"
         style="fill:#c8c7b9;fill-opacity:1;stroke:none;stroke-width:0.0909505;stroke-opacity:1" />
      <text
         xml:space="preserve"
         style="font-style:normal;font-weight:normal;font-size:3.74847px;line-height:1.25;font-family:sans-serif;fill:#000000;fill-opacity:1;stroke:none;stroke-width:0.093712"
         x="70.603264"
         y="172.82387"
         id="text1009"><tspan
           sodipodi:role="line"
           x="70.603264"
           y="172.82387"
           style="font-style:normal;font-variant:normal;font-weight:bold;font-stretch:normal;font-size:1.12455px;font-family:sans-serif;-inkscape-font-specification:'sans-serif, Bold';font-variant-ligatures:normal;font-variant-caps:normal;font-variant-numeric:normal;font-variant-east-asian:normal;fill:#c8c7b9;fill-opacity:1;stroke-width:0.093712"
           id="tspan1023">FREIWILLIGE ENGAGIEREN</tspan></text>
      <ellipse
         style="fill:#c8c7b9;fill-opacity:1;stroke:none;stroke-width:0.243154;stroke-miterlimit:4;stroke-dasharray:none;stroke-opacity:1"
         id="path1107"
         cx="126.34478"
         cy="147.9503"
         rx="5.6317821"
         ry="5.4981475" />
      <path
         d="m 123.55096,145.4972 c 0.27149,0 0.49137,-0.2417 0.49137,-0.53862 0,-0.29759 -0.21988,-0.53861 -0.49137,-0.53861 -0.27148,0 -0.49136,0.24102 -0.49136,0.53861 0,0.29692 0.21988,0.53862 0.49136,0.53862 z m 0,0.26931 c -0.32737,0 -0.98273,0.17976 -0.98273,0.53862 v 0.2693 h 1.96547 v -0.2693 c 0,-0.35886 -0.65536,-0.53862 -0.98274,-0.53862 z"
         id="path989-9-8"
         style="fill:#ffffff;fill-opacity:1;stroke-width:0.0643065" />
      <path
         style="fill:#ffffff;fill-opacity:1;stroke-width:0.0643065"
         id="path989-9-8-3"
         d="m 123.07849,148.49738 c 0.27149,0 0.49137,-0.2417 0.49137,-0.53862 0,-0.29759 -0.21988,-0.53861 -0.49137,-0.53861 -0.27148,0 -0.49136,0.24102 -0.49136,0.53861 0,0.29692 0.21988,0.53862 0.49136,0.53862 z m 0,0.26931 c -0.32737,0 -0.98273,0.17976 -0.98273,0.53862 v 0.2693 h 1.96547 v -0.2693 c 0,-0.35886 -0.65536,-0.53862 -0.98274,-0.53862 z" />
      <path
         d="m 125.27547,151.26135 c 0.27149,0 0.49137,-0.2417 0.49137,-0.53862 0,-0.29759 -0.21988,-0.53861 -0.49137,-0.53861 -0.27148,0 -0.49136,0.24102 -0.49136,0.53861 0,0.29692 0.21988,0.53862 0.49136,0.53862 z m 0,0.26931 c -0.32737,0 -0.98273,0.17976 -0.98273,0.53862 v 0.2693 h 1.96547 v -0.2693 c 0,-0.35886 -0.65536,-0.53862 -0.98274,-0.53862 z"
         id="path989-9-8-3-4"
         style="fill:#ffffff;fill-opacity:1;stroke-width:0.0643065" />
      <path
         style="fill:#ffffff;fill-opacity:1;stroke-width:0.0643065"
         id="path989-9-8-3-4-8"
         d="m 126.15427,148.02491 c 0.27149,0 0.49137,-0.2417 0.49137,-0.53862 0,-0.29759 -0.21988,-0.53861 -0.49137,-0.53861 -0.27148,0 -0.49136,0.24102 -0.49136,0.53861 0,0.29692 0.21988,0.53862 0.49136,0.53862 z m 0,0.26931 c -0.32737,0 -0.98273,0.17976 -0.98273,0.53862 v 0.2693 h 1.96547 v -0.2693 c 0,-0.35886 -0.65536,-0.53862 -0.98274,-0.53862 z" />
      <path
         d="m 126.29129,144.57588 c 0.27149,0 0.49137,-0.2417 0.49137,-0.53862 0,-0.29759 -0.21988,-0.53861 -0.49137,-0.53861 -0.27148,0 -0.49136,0.24102 -0.49136,0.53861 0,0.29692 0.21988,0.53862 0.49136,0.53862 z m 0,0.26931 c -0.32737,0 -0.98273,0.17976 -0.98273,0.53862 v 0.2693 h 1.96547 v -0.2693 c 0,-0.35886 -0.65536,-0.53862 -0.98274,-0.53862 z"
         id="path989-9-8-3-4-8-8"
         style="fill:#ffffff;fill-opacity:1;stroke-width:0.0643065" />
      <path
         style="fill:#ffffff;fill-opacity:1;stroke-width:0.0643065"
         id="path989-9-8-3-4-8-8-6"
         d="m 129.17335,145.33185 c 0.27149,0 0.49137,-0.2417 0.49137,-0.53862 0,-0.29759 -0.21988,-0.53861 -0.49137,-0.53861 -0.27148,0 -0.49136,0.24102 -0.49136,0.53861 0,0.29692 0.21988,0.53862 0.49136,0.53862 z m 0,0.26931 c -0.32737,0 -0.98273,0.17976 -0.98273,0.53862 v 0.2693 h 1.96547 v -0.2693 c 0,-0.35886 -0.65536,-0.53862 -0.98274,-0.53862 z" />
      <path
         style="fill:#ffffff;fill-opacity:1;stroke-width:0.0643065"
         id="path989-9-8-3-4-8-8-0"
         d="m 129.71669,148.23754 c 0.27149,0 0.49137,-0.2417 0.49137,-0.53862 0,-0.29759 -0.21988,-0.53861 -0.49137,-0.53861 -0.27148,0 -0.49136,0.24102 -0.49136,0.53861 0,0.29692 0.21988,0.53862 0.49136,0.53862 z m 0,0.26931 c -0.32737,0 -0.98273,0.17976 -0.98273,0.53862 v 0.2693 h 1.96547 v -0.2693 c 0,-0.35886 -0.65536,-0.53862 -0.98274,-0.53862 z" />
      <path
         style="fill:#ffffff;fill-opacity:1;stroke-width:0.0643065"
         id="path989-9-8-3-4-8-8-5"
         d="m 128.08669,150.67075 c 0.27149,0 0.49137,-0.2417 0.49137,-0.53862 0,-0.29759 -0.21988,-0.53861 -0.49137,-0.53861 -0.27148,0 -0.49136,0.24102 -0.49136,0.53861 0,0.29692 0.21988,0.53862 0.49136,0.53862 z m 0,0.26931 c -0.32737,0 -0.98273,0.17976 -0.98273,0.53862 v 0.2693 h 1.96547 v -0.2693 c 0,-0.35886 -0.65536,-0.53862 -0.98274,-0.53862 z" />
      <path
         style="fill:#fdb812;fill-opacity:1;stroke-width:0.0643065"
         id="path989-9-8-4"
         d="m 113.51011,126.71957 c 0.27149,0 0.49137,-0.2417 0.49137,-0.53862 0,-0.29759 -0.21988,-0.53861 -0.49137,-0.53861 -0.27148,0 -0.49136,0.24102 -0.49136,0.53861 0,0.29692 0.21988,0.53862 0.49136,0.53862 z m 0,0.26931 c -0.32737,0 -0.98273,0.17976 -0.98273,0.53862 v 0.2693 h 1.96547 v -0.2693 c 0,-0.35886 -0.65536,-0.53862 -0.98274,-0.53862 z" />
      <path
         d="m 111.13357,126.71957 c 0.27149,0 0.49137,-0.2417 0.49137,-0.53862 0,-0.29759 -0.21988,-0.53861 -0.49137,-0.53861 -0.27148,0 -0.49136,0.24102 -0.49136,0.53861 0,0.29692 0.21988,0.53862 0.49136,0.53862 z m 0,0.26931 c -0.32737,0 -0.98273,0.17976 -0.98273,0.53862 v 0.2693 h 1.96547 v -0.2693 c 0,-0.35886 -0.65536,-0.53862 -0.98274,-0.53862 z"
         id="path989-9-8-4-8"
         style="fill:#fdb812;fill-opacity:1;stroke-width:0.0643065" />
      <path
         d="m 122.23514,126.03143 c 0.27149,0 0.49137,-0.2417 0.49137,-0.53862 0,-0.29759 -0.21988,-0.53861 -0.49137,-0.53861 -0.27148,0 -0.49136,0.24102 -0.49136,0.53861 0,0.29692 0.21988,0.53862 0.49136,0.53862 z m 0,0.26931 c -0.32737,0 -0.98273,0.17976 -0.98273,0.53862 v 0.2693 h 1.96547 v -0.2693 c 0,-0.35886 -0.65536,-0.53862 -0.98274,-0.53862 z"
         id="path989-9-8-4-4"
         style="fill:#fdb812;fill-opacity:1;stroke-width:0.0643065" />
      <path
         style="fill:#fdb812;fill-opacity:1;stroke-width:0.0643065"
         id="path989-9-8-4-8-3"
         d="m 119.8586,126.03143 c 0.27149,0 0.49137,-0.2417 0.49137,-0.53862 0,-0.29759 -0.21988,-0.53861 -0.49137,-0.53861 -0.27148,0 -0.49136,0.24102 -0.49136,0.53861 0,0.29692 0.21988,0.53862 0.49136,0.53862 z m 0,0.26931 c -0.32737,0 -0.98273,0.17976 -0.98273,0.53862 v 0.2693 h 1.96547 v -0.2693 c 0,-0.35886 -0.65536,-0.53862 -0.98274,-0.53862 z" />
      <path
         style="fill:#fdb812;fill-opacity:1;stroke-width:0.0643065"
         id="path989-9-8-4-4-4"
         d="m 126.74723,133.6382 c 0.27149,0 0.49137,-0.2417 0.49137,-0.53862 0,-0.29759 -0.21988,-0.53861 -0.49137,-0.53861 -0.27148,0 -0.49136,0.24102 -0.49136,0.53861 0,0.29692 0.21988,0.53862 0.49136,0.53862 z m 0,0.26931 c -0.32737,0 -0.98273,0.17976 -0.98273,0.53862 v 0.2693 h 1.96547 v -0.2693 c 0,-0.35886 -0.65536,-0.53862 -0.98274,-0.53862 z" />
      <path
         d="m 124.37069,133.6382 c 0.27149,0 0.49137,-0.2417 0.49137,-0.53862 0,-0.29759 -0.21988,-0.53861 -0.49137,-0.53861 -0.27148,0 -0.49136,0.24102 -0.49136,0.53861 0,0.29692 0.21988,0.53862 0.49136,0.53862 z m 0,0.26931 c -0.32737,0 -0.98273,0.17976 -0.98273,0.53862 v 0.2693 h 1.96547 v -0.2693 c 0,-0.35886 -0.65536,-0.53862 -0.98274,-0.53862 z"
         id="path989-9-8-4-8-3-0"
         style="fill:#fdb812;fill-opacity:1;stroke-width:0.0643065" />
      <path
         d="m 112.10065,138.26841 c 0.27149,0 0.49137,-0.2417 0.49137,-0.53862 0,-0.29759 -0.21988,-0.53861 -0.49137,-0.53861 -0.27148,0 -0.49136,0.24102 -0.49136,0.53861 0,0.29692 0.21988,0.53862 0.49136,0.53862 z m 0,0.26931 c -0.32737,0 -0.98273,0.17976 -0.98273,0.53862 v 0.2693 h 1.96547 v -0.2693 c 0,-0.35886 -0.65536,-0.53862 -0.98274,-0.53862 z"
         id="path989-9-8-4-4-4-6"
         style="fill:#fdb812;fill-opacity:1;stroke-width:0.0643065" />
      <path
         style="fill:#fdb812;fill-opacity:1;stroke-width:0.0643065"
         id="path989-9-8-4-8-3-0-3"
         d="m 109.72411,138.26841 c 0.27149,0 0.49137,-0.2417 0.49137,-0.53862 0,-0.29759 -0.21988,-0.53861 -0.49137,-0.53861 -0.27148,0 -0.49136,0.24102 -0.49136,0.53861 0,0.29692 0.21988,0.53862 0.49136,0.53862 z m 0,0.26931 c -0.32737,0 -0.98273,0.17976 -0.98273,0.53862 v 0.2693 h 1.96547 v -0.2693 c 0,-0.35886 -0.65536,-0.53862 -0.98274,-0.53862 z" />
      <path
         d="m 150.82596,127.63509 c 0.27149,0 0.49137,-0.2417 0.49137,-0.53862 0,-0.29759 -0.21988,-0.53861 -0.49137,-0.53861 -0.27148,0 -0.49136,0.24102 -0.49136,0.53861 0,0.29692 0.21988,0.53862 0.49136,0.53862 z m 0,0.26931 c -0.32737,0 -0.98273,0.17976 -0.98273,0.53862 v 0.2693 h 1.96547 v -0.2693 c 0,-0.35886 -0.65536,-0.53862 -0.98274,-0.53862 z"
         id="path989-9-8-4-4-4-4"
         style="fill:#fdb812;fill-opacity:1;stroke-width:0.0643065" />
      <path
         style="fill:#fdb812;fill-opacity:1;stroke-width:0.0643065"
         id="path989-9-8-4-8-3-0-7"
         d="m 148.44942,127.63509 c 0.27149,0 0.49137,-0.2417 0.49137,-0.53862 0,-0.29759 -0.21988,-0.53861 -0.49137,-0.53861 -0.27148,0 -0.49136,0.24102 -0.49136,0.53861 0,0.29692 0.21988,0.53862 0.49136,0.53862 z m 0,0.26931 c -0.32737,0 -0.98273,0.17976 -0.98273,0.53862 v 0.2693 h 1.96547 v -0.2693 c 0,-0.35886 -0.65536,-0.53862 -0.98274,-0.53862 z" />
      <path
         style="fill:#fdb812;fill-opacity:1;stroke-width:0.0643065"
         id="path989-9-8-4-4-4-4-2"
         d="m 152.23699,138.22117 c 0.27149,0 0.49137,-0.2417 0.49137,-0.53862 0,-0.29759 -0.21988,-0.53861 -0.49137,-0.53861 -0.27148,0 -0.49136,0.24102 -0.49136,0.53861 0,0.29692 0.21988,0.53862 0.49136,0.53862 z m 0,0.26931 c -0.32737,0 -0.98273,0.17976 -0.98273,0.53862 v 0.2693 h 1.96547 v -0.2693 c 0,-0.35886 -0.65536,-0.53862 -0.98274,-0.53862 z" />
      <path
         d="m 149.86045,138.22117 c 0.27149,0 0.49137,-0.2417 0.49137,-0.53862 0,-0.29759 -0.21988,-0.53861 -0.49137,-0.53861 -0.27148,0 -0.49136,0.24102 -0.49136,0.53861 0,0.29692 0.21988,0.53862 0.49136,0.53862 z m 0,0.26931 c -0.32737,0 -0.98273,0.17976 -0.98273,0.53862 v 0.2693 h 1.96547 v -0.2693 c 0,-0.35886 -0.65536,-0.53862 -0.98274,-0.53862 z"
         id="path989-9-8-4-8-3-0-7-4"
         style="fill:#fdb812;fill-opacity:1;stroke-width:0.0643065" />
      <path
         d="m 140.14176,128.37016 c 0.27149,0 0.49137,-0.2417 0.49137,-0.53862 0,-0.29759 -0.21988,-0.53861 -0.49137,-0.53861 -0.27148,0 -0.49136,0.24102 -0.49136,0.53861 0,0.29692 0.21988,0.53862 0.49136,0.53862 z m 0,0.26931 c -0.32737,0 -0.98273,0.17976 -0.98273,0.53862 v 0.2693 h 1.96547 v -0.2693 c 0,-0.35886 -0.65536,-0.53862 -0.98274,-0.53862 z"
         id="path989-9-8-4-4-4-4-2-0"
         style="fill:#fdb812;fill-opacity:1;stroke-width:0.0643065" />
      <path
         style="fill:#fdb812;fill-opacity:1;stroke-width:0.0643065"
         id="path989-9-8-4-8-3-0-7-4-0"
         d="m 137.76522,128.37016 c 0.27149,0 0.49137,-0.2417 0.49137,-0.53862 0,-0.29759 -0.21988,-0.53861 -0.49137,-0.53861 -0.27148,0 -0.49136,0.24102 -0.49136,0.53861 0,0.29692 0.21988,0.53862 0.49136,0.53862 z m 0,0.26931 c -0.32737,0 -0.98273,0.17976 -0.98273,0.53862 v 0.2693 h 1.96547 v -0.2693 c 0,-0.35886 -0.65536,-0.53862 -0.98274,-0.53862 z" />
      <path
         d="m 135.36506,128.37016 c 0.27149,0 0.49137,-0.2417 0.49137,-0.53862 0,-0.29759 -0.21988,-0.53861 -0.49137,-0.53861 -0.27148,0 -0.49136,0.24102 -0.49136,0.53861 0,0.29692 0.21988,0.53862 0.49136,0.53862 z m 0,0.26931 c -0.32737,0 -0.98273,0.17976 -0.98273,0.53862 v 0.2693 h 1.96547 v -0.2693 c 0,-0.35886 -0.65536,-0.53862 -0.98274,-0.53862 z"
         id="path989-9-8-4-8-3-0-7-4-0-6"
         style="fill:#fdb812;fill-opacity:1;stroke-width:0.0643065" />
      <path
         d="m 139.7874,154.59225 c 0.27149,0 0.49137,-0.2417 0.49137,-0.53862 0,-0.29759 -0.21988,-0.53861 -0.49137,-0.53861 -0.27148,0 -0.49136,0.24102 -0.49136,0.53861 0,0.29692 0.21988,0.53862 0.49136,0.53862 z m 0,0.26931 c -0.32737,0 -0.98273,0.17976 -0.98273,0.53862 v 0.2693 h 1.96547 v -0.2693 c 0,-0.35886 -0.65536,-0.53862 -0.98274,-0.53862 z"
         id="path989-9-8-4-4-4-4-2-9"
         style="fill:#fdb812;fill-opacity:1;stroke-width:0.0643065" />
      <path
         style="fill:#fdb812;fill-opacity:1;stroke-width:0.0643065"
         id="path989-9-8-4-8-3-0-7-4-1"
         d="m 137.41086,154.59225 c 0.27149,0 0.49137,-0.2417 0.49137,-0.53862 0,-0.29759 -0.21988,-0.53861 -0.49137,-0.53861 -0.27148,0 -0.49136,0.24102 -0.49136,0.53861 0,0.29692 0.21988,0.53862 0.49136,0.53862 z m 0,0.26931 c -0.32737,0 -0.98273,0.17976 -0.98273,0.53862 v 0.2693 h 1.96547 v -0.2693 c 0,-0.35886 -0.65536,-0.53862 -0.98274,-0.53862 z" />
      <path
         style="fill:#fdb812;fill-opacity:1;stroke-width:0.0643065"
         id="path989-9-8-4-4-4-4-2-9-3"
         d="m 152.21338,162.34077 c 0.27149,0 0.49137,-0.2417 0.49137,-0.53862 0,-0.29759 -0.21988,-0.53861 -0.49137,-0.53861 -0.27148,0 -0.49136,0.24102 -0.49136,0.53861 0,0.29692 0.21988,0.53862 0.49136,0.53862 z m 0,0.26931 c -0.32737,0 -0.98273,0.17976 -0.98273,0.53862 v 0.2693 h 1.96547 v -0.2693 c 0,-0.35886 -0.65536,-0.53862 -0.98274,-0.53862 z" />
      <path
         d="m 149.83684,162.34077 c 0.27149,0 0.49137,-0.2417 0.49137,-0.53862 0,-0.29759 -0.21988,-0.53861 -0.49137,-0.53861 -0.27148,0 -0.49136,0.24102 -0.49136,0.53861 0,0.29692 0.21988,0.53862 0.49136,0.53862 z m 0,0.26931 c -0.32737,0 -0.98273,0.17976 -0.98273,0.53862 v 0.2693 h 1.96547 v -0.2693 c 0,-0.35886 -0.65536,-0.53862 -0.98274,-0.53862 z"
         id="path989-9-8-4-8-3-0-7-4-1-4"
         style="fill:#fdb812;fill-opacity:1;stroke-width:0.0643065" />
      <path
         style="fill:#fdb812;fill-opacity:1;stroke-width:0.0643065"
         id="path989-9-8-4-4-4-4-2-9-2"
         d="m 141.22844,168.45926 c 0.27149,0 0.49137,-0.2417 0.49137,-0.53862 0,-0.29759 -0.21988,-0.53861 -0.49137,-0.53861 -0.27148,0 -0.49136,0.24102 -0.49136,0.53861 0,0.29692 0.21988,0.53862 0.49136,0.53862 z m 0,0.26931 c -0.32737,0 -0.98273,0.17976 -0.98273,0.53862 v 0.2693 h 1.96547 v -0.2693 c 0,-0.35886 -0.65536,-0.53862 -0.98274,-0.53862 z" />
      <path
         d="m 138.8519,168.45926 c 0.27149,0 0.49137,-0.2417 0.49137,-0.53862 0,-0.29759 -0.21988,-0.53861 -0.49137,-0.53861 -0.27148,0 -0.49136,0.24102 -0.49136,0.53861 0,0.29692 0.21988,0.53862 0.49136,0.53862 z m 0,0.26931 c -0.32737,0 -0.98273,0.17976 -0.98273,0.53862 v 0.2693 h 1.96547 v -0.2693 c 0,-0.35886 -0.65536,-0.53862 -0.98274,-0.53862 z"
         id="path989-9-8-4-8-3-0-7-4-1-7"
         style="fill:#fdb812;fill-opacity:1;stroke-width:0.0643065" />
      <path
         style="fill:#fdb812;fill-opacity:1;stroke-width:0.0643065"
         id="path989-9-8-4-4-4-4-2-0-1"
         d="m 151.24009,154.02529 c 0.27149,0 0.49137,-0.2417 0.49137,-0.53862 0,-0.29759 -0.21988,-0.53861 -0.49137,-0.53861 -0.27148,0 -0.49136,0.24102 -0.49136,0.53861 0,0.29692 0.21988,0.53862 0.49136,0.53862 z m 0,0.26931 c -0.32737,0 -0.98273,0.17976 -0.98273,0.53862 v 0.2693 h 1.96547 v -0.2693 c 0,-0.35886 -0.65536,-0.53862 -0.98274,-0.53862 z" />
      <path
         d="m 148.86355,154.02529 c 0.27149,0 0.49137,-0.2417 0.49137,-0.53862 0,-0.29759 -0.21988,-0.53861 -0.49137,-0.53861 -0.27148,0 -0.49136,0.24102 -0.49136,0.53861 0,0.29692 0.21988,0.53862 0.49136,0.53862 z m 0,0.26931 c -0.32737,0 -0.98273,0.17976 -0.98273,0.53862 v 0.2693 h 1.96547 v -0.2693 c 0,-0.35886 -0.65536,-0.53862 -0.98274,-0.53862 z"
         id="path989-9-8-4-8-3-0-7-4-0-7"
         style="fill:#fdb812;fill-opacity:1;stroke-width:0.0643065" />
      <path
         style="fill:#fdb812;fill-opacity:1;stroke-width:0.0643065"
         id="path989-9-8-4-8-3-0-7-4-0-6-6"
         d="m 146.46339,154.02529 c 0.27149,0 0.49137,-0.2417 0.49137,-0.53862 0,-0.29759 -0.21988,-0.53861 -0.49137,-0.53861 -0.27148,0 -0.49136,0.24102 -0.49136,0.53861 0,0.29692 0.21988,0.53862 0.49136,0.53862 z m 0,0.26931 c -0.32737,0 -0.98273,0.17976 -0.98273,0.53862 v 0.2693 h 1.96547 v -0.2693 c 0,-0.35886 -0.65536,-0.53862 -0.98274,-0.53862 z" />
      <path
         style="fill:#fdb812;fill-opacity:1;stroke-width:0.0643065"
         id="path989-9-8-4-4-4-4-2-0-8"
         d="m 122.75014,167.67968 c 0.27149,0 0.49137,-0.2417 0.49137,-0.53862 0,-0.29759 -0.21988,-0.53861 -0.49137,-0.53861 -0.27148,0 -0.49136,0.24102 -0.49136,0.53861 0,0.29692 0.21988,0.53862 0.49136,0.53862 z m 0,0.26931 c -0.32737,0 -0.98273,0.17976 -0.98273,0.53862 v 0.2693 h 1.96547 v -0.2693 c 0,-0.35886 -0.65536,-0.53862 -0.98274,-0.53862 z" />
      <path
         d="m 120.3736,167.67968 c 0.27149,0 0.49137,-0.2417 0.49137,-0.53862 0,-0.29759 -0.21988,-0.53861 -0.49137,-0.53861 -0.27148,0 -0.49136,0.24102 -0.49136,0.53861 0,0.29692 0.21988,0.53862 0.49136,0.53862 z m 0,0.26931 c -0.32737,0 -0.98273,0.17976 -0.98273,0.53862 v 0.2693 h 1.96547 v -0.2693 c 0,-0.35886 -0.65536,-0.53862 -0.98274,-0.53862 z"
         id="path989-9-8-4-8-3-0-7-4-0-9"
         style="fill:#fdb812;fill-opacity:1;stroke-width:0.0643065" />
      <path
         style="fill:#fdb812;fill-opacity:1;stroke-width:0.0643065"
         id="path989-9-8-4-8-3-0-7-4-0-6-0"
         d="m 117.97344,167.67968 c 0.27149,0 0.49137,-0.2417 0.49137,-0.53862 0,-0.29759 -0.21988,-0.53861 -0.49137,-0.53861 -0.27148,0 -0.49136,0.24102 -0.49136,0.53861 0,0.29692 0.21988,0.53862 0.49136,0.53862 z m 0,0.26931 c -0.32737,0 -0.98273,0.17976 -0.98273,0.53862 v 0.2693 h 1.96547 v -0.2693 c 0,-0.35886 -0.65536,-0.53862 -0.98274,-0.53862 z" />
      <path
         style="fill:#fdb812;fill-opacity:1;stroke-width:0.0643065"
         id="path989-9-8-4-4-4-4-2-0-3"
         d="m 108.00906,158.49014 c 0.27149,0 0.49137,-0.2417 0.49137,-0.53862 0,-0.29759 -0.21988,-0.53861 -0.49137,-0.53861 -0.27148,0 -0.49136,0.24102 -0.49136,0.53861 0,0.29692 0.21988,0.53862 0.49136,0.53862 z m 0,0.26931 c -0.32737,0 -0.98273,0.17976 -0.98273,0.53862 v 0.2693 h 1.96547 v -0.2693 c 0,-0.35886 -0.65536,-0.53862 -0.98274,-0.53862 z" />
      <path
         d="m 105.63252,158.49014 c 0.27149,0 0.49137,-0.2417 0.49137,-0.53862 0,-0.29759 -0.21988,-0.53861 -0.49137,-0.53861 -0.27148,0 -0.49136,0.24102 -0.49136,0.53861 0,0.29692 0.21988,0.53862 0.49136,0.53862 z m 0,0.26931 c -0.32737,0 -0.98273,0.17976 -0.98273,0.53862 v 0.2693 h 1.96547 v -0.2693 c 0,-0.35886 -0.65536,-0.53862 -0.98274,-0.53862 z"
         id="path989-9-8-4-8-3-0-7-4-0-8"
         style="fill:#fdb812;fill-opacity:1;stroke-width:0.0643065" />
      <path
         style="fill:#fdb812;fill-opacity:1;stroke-width:0.0643065"
         id="path989-9-8-4-8-3-0-7-4-0-6-2"
         d="m 103.23236,158.49014 c 0.27149,0 0.49137,-0.2417 0.49137,-0.53862 0,-0.29759 -0.21988,-0.53861 -0.49137,-0.53861 -0.27148,0 -0.49136,0.24102 -0.49136,0.53861 0,0.29692 0.21988,0.53862 0.49136,0.53862 z m 0,0.26931 c -0.32737,0 -0.98273,0.17976 -0.98273,0.53862 v 0.2693 h 1.96547 v -0.2693 c 0,-0.35886 -0.65536,-0.53862 -0.98274,-0.53862 z" />
      <path
         style="fill:#fdb812;fill-opacity:1;stroke-width:0.0643065"
         id="path989-9-8-4-4-4-4-2-9-0"
         d="m 123.74704,162.64787 c 0.27149,0 0.49137,-0.2417 0.49137,-0.53862 0,-0.29759 -0.21988,-0.53861 -0.49137,-0.53861 -0.27148,0 -0.49136,0.24102 -0.49136,0.53861 0,0.29692 0.21988,0.53862 0.49136,0.53862 z m 0,0.26931 c -0.32737,0 -0.98273,0.17976 -0.98273,0.53862 v 0.2693 h 1.96547 v -0.2693 c 0,-0.35886 -0.65536,-0.53862 -0.98274,-0.53862 z" />
      <path
         d="m 121.3705,162.64787 c 0.27149,0 0.49137,-0.2417 0.49137,-0.53862 0,-0.29759 -0.21988,-0.53861 -0.49137,-0.53861 -0.27148,0 -0.49136,0.24102 -0.49136,0.53861 0,0.29692 0.21988,0.53862 0.49136,0.53862 z m 0,0.26931 c -0.32737,0 -0.98273,0.17976 -0.98273,0.53862 v 0.2693 h 1.96547 v -0.2693 c 0,-0.35886 -0.65536,-0.53862 -0.98274,-0.53862 z"
         id="path989-9-8-4-8-3-0-7-4-1-5"
         style="fill:#fdb812;fill-opacity:1;stroke-width:0.0643065" />
      <path
         style="fill:#fdb812;fill-opacity:1;stroke-width:0.0643065"
         id="path989-9-8-4-4-4-4-2-9-4"
         d="m 109.62018,166.26228 c 0.27149,0 0.49137,-0.2417 0.49137,-0.53862 0,-0.29759 -0.21988,-0.53861 -0.49137,-0.53861 -0.27148,0 -0.49136,0.24102 -0.49136,0.53861 0,0.29692 0.21988,0.53862 0.49136,0.53862 z m 0,0.26931 c -0.32737,0 -0.98273,0.17976 -0.98273,0.53862 v 0.2693 h 1.96547 v -0.2693 c 0,-0.35886 -0.65536,-0.53862 -0.98274,-0.53862 z" />
      <path
         d="m 107.24364,166.26228 c 0.27149,0 0.49137,-0.2417 0.49137,-0.53862 0,-0.29759 -0.21988,-0.53861 -0.49137,-0.53861 -0.27148,0 -0.49136,0.24102 -0.49136,0.53861 0,0.29692 0.21988,0.53862 0.49136,0.53862 z m 0,0.26931 c -0.32737,0 -0.98273,0.17976 -0.98273,0.53862 v 0.2693 h 1.96547 v -0.2693 c 0,-0.35886 -0.65536,-0.53862 -0.98274,-0.53862 z"
         id="path989-9-8-4-8-3-0-7-4-1-41"
         style="fill:#fdb812;fill-opacity:1;stroke-width:0.0643065" />
      <path
         style="fill:#fdb812;fill-opacity:1;stroke-width:0.0643065"
         id="path989-9-8-4-4-4-4-2-9-8"
         d="m 114.25039,169.16796 c 0.27149,0 0.49137,-0.2417 0.49137,-0.53862 0,-0.29759 -0.21988,-0.53861 -0.49137,-0.53861 -0.27148,0 -0.49136,0.24102 -0.49136,0.53861 0,0.29692 0.21988,0.53862 0.49136,0.53862 z m 0,0.26931 c -0.32737,0 -0.98273,0.17976 -0.98273,0.53862 v 0.2693 h 1.96547 v -0.2693 c 0,-0.35886 -0.65536,-0.53862 -0.98274,-0.53862 z" />
      <path
         d="m 111.87385,169.16796 c 0.27149,0 0.49137,-0.2417 0.49137,-0.53862 0,-0.29759 -0.21988,-0.53861 -0.49137,-0.53861 -0.27148,0 -0.49136,0.24102 -0.49136,0.53861 0,0.29692 0.21988,0.53862 0.49136,0.53862 z m 0,0.26931 c -0.32737,0 -0.98273,0.17976 -0.98273,0.53862 v 0.2693 h 1.96547 v -0.2693 c 0,-0.35886 -0.65536,-0.53862 -0.98274,-0.53862 z"
         id="path989-9-8-4-8-3-0-7-4-1-3"
         style="fill:#fdb812;fill-opacity:1;stroke-width:0.0643065" />
      <path
         style="fill:#c8c7b9;fill-opacity:1;stroke-width:0.0909508"
         id="path989-7"
         d="m 75.716527,136.1658 c 0.402002,0 0.727605,-0.32651 0.727605,-0.72761 0,-0.402 -0.325603,-0.7276 -0.727605,-0.7276 -0.402001,0 -0.727604,0.3256 -0.727604,0.7276 0,0.4011 0.325603,0.72761 0.727604,0.72761 z m 0,0.3638 c -0.484766,0 -1.455208,0.24284 -1.455208,0.72761 v 0.3638 h 2.910417 v -0.3638 c 0,-0.48477 -0.970442,-0.72761 -1.455209,-0.72761 z" />
      <path
         d="m 71.715841,136.1658 c 0.402002,0 0.727605,-0.32651 0.727605,-0.72761 0,-0.402 -0.325603,-0.7276 -0.727605,-0.7276 -0.402001,0 -0.727604,0.3256 -0.727604,0.7276 0,0.4011 0.325603,0.72761 0.727604,0.72761 z m 0,0.3638 c -0.484766,0 -1.455208,0.24284 -1.455208,0.72761 v 0.3638 h 2.910417 v -0.3638 c 0,-0.48477 -0.970442,-0.72761 -1.455209,-0.72761 z"
         id="path989-7-4"
         style="fill:#fdb812;fill-opacity:1;stroke-width:0.0909508" />
      <path
         style="fill:#c8c7b9;fill-opacity:1;stroke:none;stroke-width:0.0909505;stroke-opacity:1"
         id="path944-0"
         d="m 79.752974,135.0562 c 0.211006,0 0.381993,0.17099 0.381993,0.38198 0,0.21102 -0.170987,0.382 -0.381993,0.382 -0.211005,0 -0.381992,-0.17098 -0.381992,-0.382 0,-0.21099 0.170987,-0.38198 0.381992,-0.38198 m 0,1.63711 c 0.541155,0 1.109597,0.26466 1.109597,0.38199 v 0.2001 h -2.219193 v -0.2001 c 0,-0.11733 0.568441,-0.38199 1.109596,-0.38199 m 0,-1.98272 c -0.402001,0 -0.727604,0.3256 -0.727604,0.7276 0,0.4011 0.325603,0.72761 0.727604,0.72761 0.402002,0 0.727604,-0.32651 0.727604,-0.72761 0,-0.402 -0.325602,-0.7276 -0.727604,-0.7276 z m 0,1.63711 c -0.484766,0 -1.455208,0.24284 -1.455208,0.7276 v 0.54571 h 2.910416 v -0.54571 c 0,-0.48476 -0.970441,-0.7276 -1.455208,-0.7276 z" />
      <path
         d="m 86.616117,142.65219 c 0.402002,0 0.727605,-0.32651 0.727605,-0.72761 0,-0.402 -0.325603,-0.7276 -0.727605,-0.7276 -0.402001,0 -0.727604,0.3256 -0.727604,0.7276 0,0.4011 0.325603,0.72761 0.727604,0.72761 z m 0,0.3638 c -0.484766,0 -1.455208,0.24284 -1.455208,0.72761 v 0.3638 h 2.910417 v -0.3638 c 0,-0.48477 -0.970442,-0.72761 -1.455209,-0.72761 z"
         id="path989-7-9"
         style="fill:#c8c7b9;fill-opacity:1;stroke-width:0.0909508" />
      <path
         style="fill:#c8c7b9;fill-opacity:1;stroke-width:0.0909508"
         id="path989-7-9-2"
         d="m 72.793272,142.65219 c 0.402002,0 0.727605,-0.32651 0.727605,-0.72761 0,-0.402 -0.325603,-0.7276 -0.727605,-0.7276 -0.402001,0 -0.727604,0.3256 -0.727604,0.7276 0,0.4011 0.325603,0.72761 0.727604,0.72761 z m 0,0.3638 c -0.484766,0 -1.455208,0.24284 -1.455208,0.72761 v 0.3638 h 2.910417 v -0.3638 c 0,-0.48477 -0.970442,-0.72761 -1.455209,-0.72761 z" />
      <path
         d="m 62.887594,142.65219 c 0.402002,0 0.727605,-0.32651 0.727605,-0.72761 0,-0.402 -0.325603,-0.7276 -0.727605,-0.7276 -0.402001,0 -0.727604,0.3256 -0.727604,0.7276 0,0.4011 0.325603,0.72761 0.727604,0.72761 z m 0,0.3638 c -0.484766,0 -1.455208,0.24284 -1.455208,0.72761 v 0.3638 h 2.910417 v -0.3638 c 0,-0.48477 -0.970442,-0.72761 -1.455209,-0.72761 z"
         id="path989-7-9-2-2"
         style="fill:#c8c7b9;fill-opacity:1;stroke-width:0.0909508" />
      <path
         d="m 68.642244,141.54259 c 0.211006,0 0.381993,0.17099 0.381993,0.38198 0,0.21102 -0.170987,0.382 -0.381993,0.382 -0.211005,0 -0.381992,-0.17098 -0.381992,-0.382 0,-0.21099 0.170987,-0.38198 0.381992,-0.38198 m 0,1.63711 c 0.541155,0 1.109597,0.26466 1.109597,0.38199 v 0.2001 h -2.219193 v -0.2001 c 0,-0.11733 0.568441,-0.38199 1.109596,-0.38199 m 0,-1.98272 c -0.402001,0 -0.727604,0.3256 -0.727604,0.7276 0,0.4011 0.325603,0.72761 0.727604,0.72761 0.402002,0 0.727604,-0.32651 0.727604,-0.72761 0,-0.402 -0.325602,-0.7276 -0.727604,-0.7276 z m 0,1.63711 c -0.484766,0 -1.455208,0.24284 -1.455208,0.7276 v 0.54571 h 2.910416 v -0.54571 c 0,-0.48476 -0.970441,-0.7276 -1.455208,-0.7276 z"
         id="path944-0-4"
         style="fill:#c8c7b9;fill-opacity:1;stroke:none;stroke-width:0.0909505;stroke-opacity:1" />
      <path
         d="m 82.47344,141.54259 c 0.211006,0 0.381993,0.17099 0.381993,0.38198 0,0.21102 -0.170987,0.382 -0.381993,0.382 -0.211005,0 -0.381992,-0.17098 -0.381992,-0.382 0,-0.21099 0.170987,-0.38198 0.381992,-0.38198 m 0,1.63711 c 0.541155,0 1.109597,0.26466 1.109597,0.38199 v 0.2001 h -2.219193 v -0.2001 c 0,-0.11733 0.568441,-0.38199 1.109596,-0.38199 m 0,-1.98272 c -0.402001,0 -0.727604,0.3256 -0.727604,0.7276 0,0.4011 0.325603,0.72761 0.727604,0.72761 0.402002,0 0.727604,-0.32651 0.727604,-0.72761 0,-0.402 -0.325602,-0.7276 -0.727604,-0.7276 z m 0,1.63711 c -0.484766,0 -1.455208,0.24284 -1.455208,0.7276 v 0.54571 h 2.910416 v -0.54571 c 0,-0.48476 -0.970441,-0.7276 -1.455208,-0.7276 z"
         id="path944-0-3"
         style="fill:#c8c7b9;fill-opacity:1;stroke:none;stroke-width:0.0909505;stroke-opacity:1" />
      <path
         d="m 76.894193,142.65219 c 0.402002,0 0.727605,-0.32651 0.727605,-0.72761 0,-0.402 -0.325603,-0.7276 -0.727605,-0.7276 -0.402001,0 -0.727604,0.3256 -0.727604,0.7276 0,0.4011 0.325603,0.72761 0.727604,0.72761 z m 0,0.3638 c -0.484766,0 -1.455208,0.24284 -1.455208,0.72761 v 0.3638 h 2.910417 v -0.3638 c 0,-0.48477 -0.970442,-0.72761 -1.455209,-0.72761 z"
         id="path989-7-9-2-5"
         style="fill:#ff0000;fill-opacity:1;stroke-width:0.0909508" />
      <path
         style="fill:#c8c7b9;fill-opacity:1;stroke-width:0.0909508"
         id="path989-7-9-2-2-5"
         d="m 68.730337,148.78215 c 0.402002,0 0.727605,-0.32651 0.727605,-0.72761 0,-0.402 -0.325603,-0.7276 -0.727605,-0.7276 -0.402001,0 -0.727604,0.3256 -0.727604,0.7276 0,0.4011 0.325603,0.72761 0.727604,0.72761 z m 0,0.3638 c -0.484766,0 -1.455208,0.24284 -1.455208,0.72761 v 0.3638 h 2.910417 v -0.3638 c 0,-0.48477 -0.970442,-0.72761 -1.455209,-0.72761 z" />
      <path
         style="fill:#c8c7b9;fill-opacity:1;stroke-width:0.0909508"
         id="path989-7-9-2-2-0"
         d="m 86.713911,148.78215 c 0.402002,0 0.727605,-0.32651 0.727605,-0.72761 0,-0.402 -0.325603,-0.7276 -0.727605,-0.7276 -0.402001,0 -0.727604,0.3256 -0.727604,0.7276 0,0.4011 0.325603,0.72761 0.727604,0.72761 z m 0,0.3638 c -0.484766,0 -1.455208,0.24284 -1.455208,0.72761 v 0.3638 h 2.910417 v -0.3638 c 0,-0.48477 -0.970442,-0.72761 -1.455209,-0.72761 z" />
      <path
         style="fill:#ff0000;fill-opacity:1;stroke-width:0.0909508"
         id="path989-7-9-2-5-4"
         d="m 58.719702,148.78215 c 0.402002,0 0.727605,-0.32651 0.727605,-0.72761 0,-0.402 -0.325603,-0.7276 -0.727605,-0.7276 -0.402001,0 -0.727604,0.3256 -0.727604,0.7276 0,0.4011 0.325603,0.72761 0.727604,0.72761 z m 0,0.3638 c -0.484766,0 -1.455208,0.24284 -1.455208,0.72761 v 0.3638 h 2.910416 v -0.3638 c 0,-0.48477 -0.970441,-0.72761 -1.455208,-0.72761 z" />
      <path
         style="fill:#ff0000;fill-opacity:1;stroke-width:0.0909508"
         id="path989-7-9-2-5-0"
         d="m 82.565855,148.78215 c 0.402002,0 0.727605,-0.32651 0.727605,-0.72761 0,-0.402 -0.325603,-0.7276 -0.727605,-0.7276 -0.402001,0 -0.727604,0.3256 -0.727604,0.7276 0,0.4011 0.325603,0.72761 0.727604,0.72761 z m 0,0.3638 c -0.484766,0 -1.455208,0.24284 -1.455208,0.72761 v 0.3638 h 2.910417 v -0.3638 c 0,-0.48477 -0.970442,-0.72761 -1.455209,-0.72761 z" />
      <path
         style="fill:#fdb812;fill-opacity:1;stroke-width:0.0909508"
         id="path989-7-4-3"
         d="m 77.046545,148.78215 c 0.402002,0 0.727605,-0.32651 0.727605,-0.72761 0,-0.402 -0.325603,-0.7276 -0.727605,-0.7276 -0.402001,0 -0.727604,0.3256 -0.727604,0.7276 0,0.4011 0.325603,0.72761 0.727604,0.72761 z m 0,0.3638 c -0.484766,0 -1.455208,0.24284 -1.455208,0.72761 v 0.3638 h 2.910417 v -0.3638 c 0,-0.48477 -0.970442,-0.72761 -1.455209,-0.72761 z" />
      <path
         style="fill:#c8c7b9;fill-opacity:1;stroke:none;stroke-width:0.0909505;stroke-opacity:1"
         id="path944-0-4-9"
         d="m 62.888231,147.67255 c 0.211006,0 0.381993,0.17099 0.381993,0.38198 0,0.21102 -0.170987,0.382 -0.381993,0.382 -0.211005,0 -0.381992,-0.17098 -0.381992,-0.382 0,-0.21099 0.170987,-0.38198 0.381992,-0.38198 m 0,1.63711 c 0.541155,0 1.109597,0.26466 1.109597,0.38199 v 0.2001 h -2.219193 v -0.2001 c 0,-0.11733 0.568441,-0.38199 1.109596,-0.38199 m 0,-1.98272 c -0.402001,0 -0.727604,0.3256 -0.727604,0.7276 0,0.4011 0.325603,0.72761 0.727604,0.72761 0.402002,0 0.727604,-0.32651 0.727604,-0.72761 0,-0.402 -0.325602,-0.7276 -0.727604,-0.7276 z m 0,1.63711 c -0.484766,0 -1.455208,0.24284 -1.455208,0.7276 v 0.54571 h 2.910417 v -0.54571 c 0,-0.48476 -0.970442,-0.7276 -1.455209,-0.7276 z" />
      <path
         style="fill:#c8c7b9;fill-opacity:1;stroke:none;stroke-width:0.0909505;stroke-opacity:1"
         id="path944-0-4-92"
         d="m 72.861692,147.67255 c 0.211006,0 0.381993,0.17099 0.381993,0.38198 0,0.21102 -0.170987,0.382 -0.381993,0.382 -0.211005,0 -0.381992,-0.17098 -0.381992,-0.382 0,-0.21099 0.170987,-0.38198 0.381992,-0.38198 m 0,1.63711 c 0.541155,0 1.109597,0.26466 1.109597,0.38199 v 0.2001 h -2.219193 v -0.2001 c 0,-0.11733 0.568441,-0.38199 1.109596,-0.38199 m 0,-1.98272 c -0.402001,0 -0.727604,0.3256 -0.727604,0.7276 0,0.4011 0.325603,0.72761 0.727604,0.72761 0.402002,0 0.727604,-0.32651 0.727604,-0.72761 0,-0.402 -0.325602,-0.7276 -0.727604,-0.7276 z m 0,1.63711 c -0.484766,0 -1.455208,0.24284 -1.455208,0.7276 v 0.54571 h 2.910417 v -0.54571 c 0,-0.48476 -0.970442,-0.7276 -1.455209,-0.7276 z" />
      <path
         d="m 60.807909,155.01341 c 0.402002,0 0.727605,-0.32651 0.727605,-0.72761 0,-0.402 -0.325603,-0.7276 -0.727605,-0.7276 -0.402001,0 -0.727604,0.3256 -0.727604,0.7276 0,0.4011 0.325603,0.72761 0.727604,0.72761 z m 0,0.3638 c -0.484766,0 -1.455208,0.24284 -1.455208,0.72761 v 0.3638 h 2.910416 v -0.3638 c 0,-0.48477 -0.970441,-0.72761 -1.455208,-0.72761 z"
         id="path989-7-9-2-5-4-4"
         style="fill:#ff0000;fill-opacity:1;stroke-width:0.0909508" />
      <path
         d="m 80.051313,155.01341 c 0.402002,0 0.727605,-0.32651 0.727605,-0.72761 0,-0.402 -0.325603,-0.7276 -0.727605,-0.7276 -0.402001,0 -0.727604,0.3256 -0.727604,0.7276 0,0.4011 0.325603,0.72761 0.727604,0.72761 z m 0,0.3638 c -0.484766,0 -1.455208,0.24284 -1.455208,0.72761 v 0.3638 h 2.910416 v -0.3638 c 0,-0.48477 -0.970441,-0.72761 -1.455208,-0.72761 z"
         id="path989-7-9-2-5-4-7"
         style="fill:#ff0000;fill-opacity:1;stroke-width:0.0909508" />
      <path
         d="m 71.014265,155.01341 c 0.402002,0 0.727605,-0.32651 0.727605,-0.72761 0,-0.402 -0.325603,-0.7276 -0.727605,-0.7276 -0.402001,0 -0.727604,0.3256 -0.727604,0.7276 0,0.4011 0.325603,0.72761 0.727604,0.72761 z m 0,0.3638 c -0.484766,0 -1.455208,0.24284 -1.455208,0.72761 v 0.3638 h 2.910417 v -0.3638 c 0,-0.48477 -0.970442,-0.72761 -1.455209,-0.72761 z"
         id="path989-7-4-3-7"
         style="fill:#fdb812;fill-opacity:1;stroke-width:0.0909508" />
      <path
         d="m 75.140234,155.01341 c 0.402002,0 0.727605,-0.32651 0.727605,-0.72761 0,-0.402 -0.325603,-0.7276 -0.727605,-0.7276 -0.402001,0 -0.727604,0.3256 -0.727604,0.7276 0,0.4011 0.325603,0.72761 0.727604,0.72761 z m 0,0.3638 c -0.484766,0 -1.455208,0.24284 -1.455208,0.72761 v 0.3638 h 2.910417 v -0.3638 c 0,-0.48477 -0.970442,-0.72761 -1.455209,-0.72761 z"
         id="path989-7-4-3-6"
         style="fill:#fdb812;fill-opacity:1;stroke-width:0.0909508" />
      <path
         d="m 88.133245,155.01341 c 0.402002,0 0.727605,-0.32651 0.727605,-0.72761 0,-0.402 -0.325603,-0.7276 -0.727605,-0.7276 -0.402001,0 -0.727604,0.3256 -0.727604,0.7276 0,0.4011 0.325603,0.72761 0.727604,0.72761 z m 0,0.3638 c -0.484766,0 -1.455208,0.24284 -1.455208,0.72761 v 0.3638 h 2.910417 v -0.3638 c 0,-0.48477 -0.970442,-0.72761 -1.455209,-0.72761 z"
         id="path989-7-4-3-8"
         style="fill:#fdb812;fill-opacity:1;stroke-width:0.0909508" />
      <path
         d="m 84.152235,155.01341 c 0.402002,0 0.727605,-0.32651 0.727605,-0.72761 0,-0.402 -0.325603,-0.7276 -0.727605,-0.7276 -0.402001,0 -0.727604,0.3256 -0.727604,0.7276 0,0.4011 0.325603,0.72761 0.727604,0.72761 z m 0,0.3638 c -0.484766,0 -1.455208,0.24284 -1.455208,0.72761 v 0.3638 h 2.910417 v -0.3638 c 0,-0.48477 -0.970442,-0.72761 -1.455209,-0.72761 z"
         id="path989-7-9-2-2-0-7"
         style="fill:#c8c7b9;fill-opacity:1;stroke-width:0.0909508" />
      <path
         d="m 64.933881,153.90381 c 0.211006,0 0.381993,0.17099 0.381993,0.38198 0,0.21102 -0.170987,0.382 -0.381993,0.382 -0.211005,0 -0.381992,-0.17098 -0.381992,-0.382 0,-0.21099 0.170987,-0.38198 0.381992,-0.38198 m 0,1.63711 c 0.541155,0 1.109597,0.26466 1.109597,0.38199 v 0.2001 h -2.219193 v -0.2001 c 0,-0.11733 0.568441,-0.38199 1.109596,-0.38199 m 0,-1.98272 c -0.402001,0 -0.727604,0.3256 -0.727604,0.7276 0,0.4011 0.325603,0.72761 0.727604,0.72761 0.402002,0 0.727604,-0.32651 0.727604,-0.72761 0,-0.402 -0.325602,-0.7276 -0.727604,-0.7276 z m 0,1.63711 c -0.484766,0 -1.455208,0.24284 -1.455208,0.7276 v 0.54571 h 2.910417 v -0.54571 c 0,-0.48476 -0.970442,-0.7276 -1.455209,-0.7276 z"
         id="path944-0-4-9-8"
         style="fill:#c8c7b9;fill-opacity:1;stroke:none;stroke-width:0.0909505;stroke-opacity:1" />
      <path
         style="fill:#c8c7b9;fill-opacity:1;stroke:none;stroke-width:0.0909505;stroke-opacity:1"
         id="path944-0-4-9-8-5"
         d="m 81.203916,160.06284 c 0.211006,0 0.381993,0.17099 0.381993,0.38198 0,0.21102 -0.170987,0.382 -0.381993,0.382 -0.211005,0 -0.381992,-0.17098 -0.381992,-0.382 0,-0.21099 0.170987,-0.38198 0.381992,-0.38198 m 0,1.63711 c 0.541155,0 1.109597,0.26466 1.109597,0.38199 v 0.2001 H 80.09432 v -0.2001 c 0,-0.11733 0.568441,-0.38199 1.109596,-0.38199 m 0,-1.98272 c -0.402001,0 -0.727604,0.3256 -0.727604,0.7276 0,0.4011 0.325603,0.72761 0.727604,0.72761 0.402002,0 0.727604,-0.32651 0.727604,-0.72761 0,-0.402 -0.325602,-0.7276 -0.727604,-0.7276 z m 0,1.63711 c -0.484766,0 -1.455208,0.24284 -1.455208,0.7276 v 0.54571 h 2.910417 v -0.54571 c 0,-0.48476 -0.970442,-0.7276 -1.455209,-0.7276 z" />
      <path
         style="fill:#c8c7b9;fill-opacity:1;stroke:none;stroke-width:0.0909505;stroke-opacity:1"
         id="path944-0-4-9-8-7"
         d="m 64.96729,160.06284 c 0.211006,0 0.381993,0.17099 0.381993,0.38198 0,0.21102 -0.170987,0.382 -0.381993,0.382 -0.211005,0 -0.381992,-0.17098 -0.381992,-0.382 0,-0.21099 0.170987,-0.38198 0.381992,-0.38198 m 0,1.63711 c 0.541155,0 1.109597,0.26466 1.109597,0.38199 v 0.2001 h -2.219193 v -0.2001 c 0,-0.11733 0.568441,-0.38199 1.109596,-0.38199 m 0,-1.98272 c -0.402001,0 -0.727604,0.3256 -0.727604,0.7276 0,0.4011 0.325603,0.72761 0.727604,0.72761 0.402002,0 0.727604,-0.32651 0.727604,-0.72761 0,-0.402 -0.325602,-0.7276 -0.727604,-0.7276 z m 0,1.63711 c -0.484766,0 -1.455208,0.24284 -1.455208,0.7276 v 0.54571 h 2.910417 v -0.54571 c 0,-0.48476 -0.970442,-0.7276 -1.455209,-0.7276 z" />
      <path
         style="fill:#c8c7b9;fill-opacity:1;stroke:none;stroke-width:0.0909505;stroke-opacity:1"
         id="path944-0-4-9-8-0"
         d="m 60.7912,160.06284 c 0.211006,0 0.381993,0.17099 0.381993,0.38198 0,0.21102 -0.170987,0.382 -0.381993,0.382 -0.211005,0 -0.381992,-0.17098 -0.381992,-0.382 0,-0.21099 0.170987,-0.38198 0.381992,-0.38198 m 0,1.63711 c 0.541155,0 1.109597,0.26466 1.109597,0.38199 v 0.2001 h -2.219193 v -0.2001 c 0,-0.11733 0.568441,-0.38199 1.109596,-0.38199 m 0,-1.98272 c -0.402001,0 -0.727604,0.3256 -0.727604,0.7276 0,0.4011 0.325603,0.72761 0.727604,0.72761 0.402002,0 0.727604,-0.32651 0.727604,-0.72761 0,-0.402 -0.325602,-0.7276 -0.727604,-0.7276 z m 0,1.63711 c -0.484766,0 -1.455208,0.24284 -1.455208,0.7276 v 0.54571 h 2.910417 v -0.54571 c 0,-0.48476 -0.970442,-0.7276 -1.455209,-0.7276 z" />
      <path
         style="fill:#c8c7b9;fill-opacity:1;stroke:none;stroke-width:0.0909505;stroke-opacity:1"
         id="path944-0-4-9-8-3"
         d="m 56.784185,160.06284 c 0.211006,0 0.381993,0.17099 0.381993,0.38198 0,0.21102 -0.170987,0.382 -0.381993,0.382 -0.211005,0 -0.381992,-0.17098 -0.381992,-0.382 0,-0.21099 0.170987,-0.38198 0.381992,-0.38198 m 0,1.63711 c 0.541155,0 1.109597,0.26466 1.109597,0.38199 v 0.2001 h -2.219193 v -0.2001 c 0,-0.11733 0.568441,-0.38199 1.109596,-0.38199 m 0,-1.98272 c -0.402001,0 -0.727604,0.3256 -0.727604,0.7276 0,0.4011 0.325603,0.72761 0.727604,0.72761 0.402002,0 0.727604,-0.32651 0.727604,-0.72761 0,-0.402 -0.325602,-0.7276 -0.727604,-0.7276 z m 0,1.63711 c -0.484766,0 -1.455208,0.24284 -1.455208,0.7276 v 0.54571 h 2.910417 v -0.54571 c 0,-0.48476 -0.970442,-0.7276 -1.455209,-0.7276 z" />
      <path
         style="fill:#fdb812;fill-opacity:1;stroke-width:0.0909508"
         id="path989-7-4-3-7-9"
         d="m 93.407865,161.17244 c 0.402002,0 0.727605,-0.32651 0.727605,-0.72761 0,-0.402 -0.325603,-0.7276 -0.727605,-0.7276 -0.402001,0 -0.727604,0.3256 -0.727604,0.7276 0,0.4011 0.325603,0.72761 0.727604,0.72761 z m 0,0.3638 c -0.484766,0 -1.455208,0.24284 -1.455208,0.72761 v 0.3638 h 2.910417 v -0.3638 c 0,-0.48477 -0.970442,-0.72761 -1.455209,-0.72761 z" />
      <path
         style="fill:#fdb812;fill-opacity:1;stroke-width:0.0909508"
         id="path989-7-4-3-7-8"
         d="m 89.291784,161.17244 c 0.402002,0 0.727605,-0.32651 0.727605,-0.72761 0,-0.402 -0.325603,-0.7276 -0.727605,-0.7276 -0.402001,0 -0.727604,0.3256 -0.727604,0.7276 0,0.4011 0.325603,0.72761 0.727604,0.72761 z m 0,0.3638 c -0.484766,0 -1.455208,0.24284 -1.455208,0.72761 v 0.3638 h 2.910417 v -0.3638 c 0,-0.48477 -0.970442,-0.72761 -1.455209,-0.72761 z" />
      <path
         style="fill:#fdb812;fill-opacity:1;stroke-width:0.0909508"
         id="path989-7-4-3-7-98"
         d="m 75.156942,161.17244 c 0.402002,0 0.727605,-0.32651 0.727605,-0.72761 0,-0.402 -0.325603,-0.7276 -0.727605,-0.7276 -0.402001,0 -0.727604,0.3256 -0.727604,0.7276 0,0.4011 0.325603,0.72761 0.727604,0.72761 z m 0,0.3638 c -0.484766,0 -1.455208,0.24284 -1.455208,0.72761 v 0.3638 h 2.910417 v -0.3638 c 0,-0.48477 -0.970442,-0.72761 -1.455209,-0.72761 z" />
      <path
         style="fill:#fdb812;fill-opacity:1;stroke-width:0.0909508"
         id="path989-7-4-3-7-91"
         d="m 71.014257,161.17244 c 0.402002,0 0.727605,-0.32651 0.727605,-0.72761 0,-0.402 -0.325603,-0.7276 -0.727605,-0.7276 -0.402001,0 -0.727604,0.3256 -0.727604,0.7276 0,0.4011 0.325603,0.72761 0.727604,0.72761 z m 0,0.3638 c -0.484766,0 -1.455208,0.24284 -1.455208,0.72761 v 0.3638 h 2.910417 v -0.3638 c 0,-0.48477 -0.970442,-0.72761 -1.455209,-0.72761 z" />
      <path
         d="m 89.338918,166.24 c 0.211006,0 0.381993,0.17099 0.381993,0.38198 0,0.21102 -0.170987,0.382 -0.381993,0.382 -0.211005,0 -0.381992,-0.17098 -0.381992,-0.382 0,-0.21099 0.170987,-0.38198 0.381992,-0.38198 m 0,1.63711 c 0.541155,0 1.109597,0.26466 1.109597,0.38199 v 0.2001 h -2.219193 v -0.2001 c 0,-0.11733 0.568441,-0.38199 1.109596,-0.38199 m 0,-1.98272 c -0.402001,0 -0.727604,0.3256 -0.727604,0.7276 0,0.4011 0.325603,0.72761 0.727604,0.72761 0.402002,0 0.727604,-0.32651 0.727604,-0.72761 0,-0.402 -0.325602,-0.7276 -0.727604,-0.7276 z m 0,1.63711 c -0.484766,0 -1.455208,0.24284 -1.455208,0.7276 v 0.54571 h 2.910417 v -0.54571 c 0,-0.48476 -0.970442,-0.7276 -1.455209,-0.7276 z"
         id="path944-0-4-9-8-7-3"
         style="fill:#c8c7b9;fill-opacity:1;stroke:none;stroke-width:0.0909505;stroke-opacity:1" />
      <path
         d="m 79.383138,166.24 c 0.211006,0 0.381993,0.17099 0.381993,0.38198 0,0.21102 -0.170987,0.382 -0.381993,0.382 -0.211005,0 -0.381992,-0.17098 -0.381992,-0.382 0,-0.21099 0.170987,-0.38198 0.381992,-0.38198 m 0,1.63711 c 0.541155,0 1.109597,0.26466 1.109597,0.38199 v 0.2001 h -2.219193 v -0.2001 c 0,-0.11733 0.568441,-0.38199 1.109596,-0.38199 m 0,-1.98272 c -0.402001,0 -0.727604,0.3256 -0.727604,0.7276 0,0.4011 0.325603,0.72761 0.727604,0.72761 0.402002,0 0.727604,-0.32651 0.727604,-0.72761 0,-0.402 -0.325602,-0.7276 -0.727604,-0.7276 z m 0,1.63711 c -0.484766,0 -1.455208,0.24284 -1.455208,0.7276 v 0.54571 h 2.910417 v -0.54571 c 0,-0.48476 -0.970442,-0.7276 -1.455209,-0.7276 z"
         id="path944-0-4-9-8-7-6"
         style="fill:#c8c7b9;fill-opacity:1;stroke:none;stroke-width:0.0909505;stroke-opacity:1" />
      <path
         d="m 71.122846,166.24 c 0.211006,0 0.381993,0.17099 0.381993,0.38198 0,0.21102 -0.170987,0.382 -0.381993,0.382 -0.211005,0 -0.381992,-0.17098 -0.381992,-0.382 0,-0.21099 0.170987,-0.38198 0.381992,-0.38198 m 0,1.63711 c 0.541155,0 1.109597,0.26466 1.109597,0.38199 v 0.2001 H 70.01325 v -0.2001 c 0,-0.11733 0.568441,-0.38199 1.109596,-0.38199 m 0,-1.98272 c -0.402001,0 -0.727604,0.3256 -0.727604,0.7276 0,0.4011 0.325603,0.72761 0.727604,0.72761 0.402002,0 0.727604,-0.32651 0.727604,-0.72761 0,-0.402 -0.325602,-0.7276 -0.727604,-0.7276 z m 0,1.63711 c -0.484766,0 -1.455208,0.24284 -1.455208,0.7276 v 0.54571 h 2.910417 v -0.54571 c 0,-0.48476 -0.970442,-0.7276 -1.455209,-0.7276 z"
         id="path944-0-4-9-8-7-4"
         style="fill:#c8c7b9;fill-opacity:1;stroke:none;stroke-width:0.0909505;stroke-opacity:1" />
      <path
         d="m 66.879938,166.24 c 0.211006,0 0.381993,0.17099 0.381993,0.38198 0,0.21102 -0.170987,0.382 -0.381993,0.382 -0.211005,0 -0.381992,-0.17098 -0.381992,-0.382 0,-0.21099 0.170987,-0.38198 0.381992,-0.38198 m 0,1.63711 c 0.541155,0 1.109597,0.26466 1.109597,0.38199 v 0.2001 h -2.219193 v -0.2001 c 0,-0.11733 0.568441,-0.38199 1.109596,-0.38199 m 0,-1.98272 c -0.402001,0 -0.727604,0.3256 -0.727604,0.7276 0,0.4011 0.325603,0.72761 0.727604,0.72761 0.402002,0 0.727604,-0.32651 0.727604,-0.72761 0,-0.402 -0.325602,-0.7276 -0.727604,-0.7276 z m 0,1.63711 c -0.484766,0 -1.455208,0.24284 -1.455208,0.7276 v 0.54571 h 2.910417 v -0.54571 c 0,-0.48476 -0.970442,-0.7276 -1.455209,-0.7276 z"
         id="path944-0-4-9-8-7-0"
         style="fill:#c8c7b9;fill-opacity:1;stroke:none;stroke-width:0.0909505;stroke-opacity:1" />
      <path
         d="m 58.644693,166.24 c 0.211006,0 0.381993,0.17099 0.381993,0.38198 0,0.21102 -0.170987,0.382 -0.381993,0.382 -0.211005,0 -0.381992,-0.17098 -0.381992,-0.382 0,-0.21099 0.170987,-0.38198 0.381992,-0.38198 m 0,1.63711 c 0.541155,0 1.109597,0.26466 1.109597,0.38199 v 0.2001 h -2.219193 v -0.2001 c 0,-0.11733 0.568441,-0.38199 1.109596,-0.38199 m 0,-1.98272 c -0.402001,0 -0.727604,0.3256 -0.727604,0.7276 0,0.4011 0.325603,0.72761 0.727604,0.72761 0.402002,0 0.727604,-0.32651 0.727604,-0.72761 0,-0.402 -0.325602,-0.7276 -0.727604,-0.7276 z m 0,1.63711 c -0.484766,0 -1.455208,0.24284 -1.455208,0.7276 v 0.54571 h 2.910417 v -0.54571 c 0,-0.48476 -0.970442,-0.7276 -1.455209,-0.7276 z"
         id="path944-0-4-9-8-7-45"
         style="fill:#c8c7b9;fill-opacity:1;stroke:none;stroke-width:0.0909505;stroke-opacity:1" />
      <path
         d="m 85.212957,167.3496 c 0.402002,0 0.727605,-0.32651 0.727605,-0.72761 0,-0.402 -0.325603,-0.7276 -0.727605,-0.7276 -0.402001,0 -0.727604,0.3256 -0.727604,0.7276 0,0.4011 0.325603,0.72761 0.727604,0.72761 z m 0,0.3638 c -0.484766,0 -1.455208,0.24284 -1.455208,0.72761 v 0.3638 h 2.910417 v -0.3638 c 0,-0.48477 -0.970442,-0.72761 -1.455209,-0.72761 z"
         id="path989-7-4-3-7-91-7"
         style="fill:#fdb812;fill-opacity:1;stroke-width:0.0909508" />
      <path
         d="m 75.190343,167.3496 c 0.402002,0 0.727605,-0.32651 0.727605,-0.72761 0,-0.402 -0.325603,-0.7276 -0.727605,-0.7276 -0.402001,0 -0.727604,0.3256 -0.727604,0.7276 0,0.4011 0.325603,0.72761 0.727604,0.72761 z m 0,0.3638 c -0.484766,0 -1.455208,0.24284 -1.455208,0.72761 v 0.3638 h 2.910417 v -0.3638 c 0,-0.48477 -0.970442,-0.72761 -1.455209,-0.72761 z"
         id="path989-7-4-3-7-91-3"
         style="fill:#fdb812;fill-opacity:1;stroke-width:0.0909508" />
      <path
         d="m 62.753965,167.3496 c 0.402002,0 0.727605,-0.32651 0.727605,-0.72761 0,-0.402 -0.325603,-0.7276 -0.727605,-0.7276 -0.402001,0 -0.727604,0.3256 -0.727604,0.7276 0,0.4011 0.325603,0.72761 0.727604,0.72761 z m 0,0.3638 c -0.484766,0 -1.455208,0.24284 -1.455208,0.72761 v 0.3638 h 2.910417 v -0.3638 c 0,-0.48477 -0.970442,-0.72761 -1.455209,-0.72761 z"
         id="path989-7-4-3-7-91-4"
         style="fill:#fdb812;fill-opacity:1;stroke-width:0.0909508" />
      <path
         style="fill:#c8c7b9;fill-opacity:1;stroke-width:0.0909508"
         id="path989-7-9-2-2-0-7-4"
         d="m 85.346593,161.17244 c 0.402002,0 0.727605,-0.32651 0.727605,-0.72761 0,-0.402 -0.325603,-0.7276 -0.727605,-0.7276 -0.402001,0 -0.727604,0.3256 -0.727604,0.7276 0,0.4011 0.325603,0.72761 0.727604,0.72761 z m 0,0.3638 c -0.484766,0 -1.455208,0.24284 -1.455208,0.72761 v 0.3638 h 2.910417 v -0.3638 c 0,-0.48477 -0.970442,-0.72761 -1.455209,-0.72761 z" />
      <path
         style="fill:none;stroke:#c8c7b9;stroke-width:0.2;stroke-linecap:butt;stroke-linejoin:miter;stroke-miterlimit:4;stroke-dasharray:none;stroke-opacity:1"
         d="M 70.045408,132.36539 H 81.437771"
         id="path2589"
         sodipodi:nodetypes="cc" />
      <path
         id="path2589-5"
         d="M 61.150345,138.77403 H 88.345019"
         style="fill:none;stroke:#c8c7b9;stroke-width:0.2;stroke-linecap:butt;stroke-linejoin:miter;stroke-miterlimit:4;stroke-dasharray:none;stroke-opacity:1" />
      <path
         style="fill:none;stroke:#c8c7b9;stroke-width:0.2;stroke-linecap:butt;stroke-linejoin:miter;stroke-miterlimit:4;stroke-dasharray:none;stroke-opacity:1"
         d="M 57.049428,145.13587 H 88.353371"
         id="path2589-5-8" />
      <path
         id="path2589-5-8-4"
         d="M 59.037245,151.41669 H 89.632484"
         style="fill:none;stroke:#c8c7b9;stroke-width:0.2;stroke-linecap:butt;stroke-linejoin:miter;stroke-miterlimit:4;stroke-dasharray:none;stroke-opacity:1" />
      <path
         style="fill:none;stroke:#c8c7b9;stroke-width:0.2;stroke-linecap:butt;stroke-linejoin:miter;stroke-miterlimit:4;stroke-dasharray:none;stroke-opacity:1"
         d="m 55.100446,157.59244 h 39.95015"
         id="path2589-5-8-4-4" />
      <path
         id="path2589-5-8-4-4-7"
         d="M 57.061198,163.80543 H 91.058222"
         style="fill:none;stroke:#c8c7b9;stroke-width:0.2;stroke-linecap:butt;stroke-linejoin:miter;stroke-miterlimit:4;stroke-dasharray:none;stroke-opacity:1" />
      <path
         style="fill:none;stroke:#c8c7b9;stroke-width:0.2;stroke-linecap:butt;stroke-linejoin:miter;stroke-miterlimit:4;stroke-dasharray:none;stroke-opacity:1"
         d="m 75.708182,131.13762 v 1.20271 -0.008"
         id="path2666" />
      <path
         id="path2666-1"
         d="m 75.701262,137.54618 v 1.20271 -0.008"
         style="fill:none;stroke:#c8c7b9;stroke-width:0.2;stroke-linecap:butt;stroke-linejoin:miter;stroke-miterlimit:4;stroke-dasharray:none;stroke-opacity:1" />
      <path
         id="path2666-4"
         d="m 75.695653,143.97492 v 1.20271 -0.008"
         style="fill:none;stroke:#c8c7b9;stroke-width:0.2;stroke-linecap:butt;stroke-linejoin:miter;stroke-miterlimit:4;stroke-dasharray:none;stroke-opacity:1" />
      <path
         id="path2666-2"
         d="m 75.708182,150.17222 v 1.20271 -0.008"
         style="fill:none;stroke:#c8c7b9;stroke-width:0.2;stroke-linecap:butt;stroke-linejoin:miter;stroke-miterlimit:4;stroke-dasharray:none;stroke-opacity:1" />
      <path
         id="path2666-8"
         d="m 75.701544,156.4005 v 1.20271 -0.008"
         style="fill:none;stroke:#c8c7b9;stroke-width:0.2;stroke-linecap:butt;stroke-linejoin:miter;stroke-miterlimit:4;stroke-dasharray:none;stroke-opacity:1" />
      <path
         id="path2666-0"
         d="m 75.701544,162.57805 v 1.20271 -0.008"
         style="fill:none;stroke:#c8c7b9;stroke-width:0.2;stroke-linecap:butt;stroke-linejoin:miter;stroke-miterlimit:4;stroke-dasharray:none;stroke-opacity:1" />
      <rect
         style="fill:none;fill-opacity:1;stroke:#c8c7b9;stroke-width:0.2;stroke-miterlimit:4;stroke-dasharray:none;stroke-opacity:1"
         id="rect909"
         width="3.3546026"
         height="4.123003"
         x="74.055939"
         y="126.99644" />
      <rect
         y="133.42987"
         x="78.075676"
         height="4.0915279"
         width="3.3546026"
         id="rect909-3"
         style="fill:none;fill-opacity:1;stroke:#c8c7b9;stroke-width:0.199235;stroke-miterlimit:4;stroke-dasharray:none;stroke-opacity:1" />
      <rect
         style="fill:none;fill-opacity:1;stroke:#c8c7b9;stroke-width:0.199235;stroke-miterlimit:4;stroke-dasharray:none;stroke-opacity:1"
         id="rect909-3-3"
         width="3.3546026"
         height="4.0915279"
         x="74.03923"
         y="133.42987" />
      <rect
         y="133.42987"
         x="70.038544"
         height="4.0915279"
         width="3.3546026"
         id="rect909-3-3-4"
         style="fill:none;fill-opacity:1;stroke:#c8c7b9;stroke-width:0.199235;stroke-miterlimit:4;stroke-dasharray:none;stroke-opacity:1" />
      <rect
         style="fill:none;fill-opacity:1;stroke:#c8c7b9;stroke-width:0.199235;stroke-miterlimit:4;stroke-dasharray:none;stroke-opacity:1"
         id="rect909-3-3-4-0"
         width="3.3546026"
         height="4.0915279"
         x="61.210293"
         y="139.91626" />
      <rect
         y="139.91626"
         x="66.964943"
         height="4.0915279"
         width="3.3546026"
         id="rect909-3-3-4-0-7"
         style="fill:none;fill-opacity:1;stroke:#c8c7b9;stroke-width:0.199235;stroke-miterlimit:4;stroke-dasharray:none;stroke-opacity:1" />
      <rect
         style="fill:none;fill-opacity:1;stroke:#c8c7b9;stroke-width:0.199235;stroke-miterlimit:4;stroke-dasharray:none;stroke-opacity:1"
         id="rect909-3-3-4-0-7-1"
         width="3.3546026"
         height="4.0915279"
         x="71.115974"
         y="139.91626" />
      <rect
         y="139.91626"
         x="75.216896"
         height="4.0915279"
         width="3.3546026"
         id="rect909-3-3-4-0-7-1-8"
         style="fill:none;fill-opacity:1;stroke:#c8c7b9;stroke-width:0.199235;stroke-miterlimit:4;stroke-dasharray:none;stroke-opacity:1" />
      <rect
         style="fill:none;fill-opacity:1;stroke:#c8c7b9;stroke-width:0.199235;stroke-miterlimit:4;stroke-dasharray:none;stroke-opacity:1"
         id="rect909-3-3-4-0-7-1-8-4"
         width="3.3546026"
         height="4.0915279"
         x="80.796143"
         y="139.91626" />
      <rect
         y="139.91626"
         x="84.93882"
         height="4.0915279"
         width="3.3546026"
         id="rect909-3-3-4-0-7-1-8-4-4"
         style="fill:none;fill-opacity:1;stroke:#c8c7b9;stroke-width:0.199235;stroke-miterlimit:4;stroke-dasharray:none;stroke-opacity:1" />
      <rect
         y="146.04622"
         x="57.0424"
         height="4.0915279"
         width="3.3546026"
         id="rect909-3-3-4-0-6"
         style="fill:none;fill-opacity:1;stroke:#c8c7b9;stroke-width:0.199235;stroke-miterlimit:4;stroke-dasharray:none;stroke-opacity:1" />
      <rect
         style="fill:none;fill-opacity:1;stroke:#c8c7b9;stroke-width:0.199235;stroke-miterlimit:4;stroke-dasharray:none;stroke-opacity:1"
         id="rect909-3-3-4-0-6-6"
         width="3.3546026"
         height="4.0915279"
         x="61.21093"
         y="146.04622" />
      <rect
         y="146.04622"
         x="67.05304"
         height="4.0915279"
         width="3.3546026"
         id="rect909-3-3-4-0-6-6-2"
         style="fill:none;fill-opacity:1;stroke:#c8c7b9;stroke-width:0.199235;stroke-miterlimit:4;stroke-dasharray:none;stroke-opacity:1" />
      <rect
         style="fill:none;fill-opacity:1;stroke:#c8c7b9;stroke-width:0.199235;stroke-miterlimit:4;stroke-dasharray:none;stroke-opacity:1"
         id="rect909-3-3-4-0-6-6-2-3"
         width="3.3546026"
         height="4.0915279"
         x="71.184395"
         y="146.04622" />
      <rect
         y="146.04622"
         x="75.369247"
         height="4.0915279"
         width="3.3546026"
         id="rect909-3-3-4-0-6-6-2-3-6"
         style="fill:none;fill-opacity:1;stroke:#c8c7b9;stroke-width:0.199235;stroke-miterlimit:4;stroke-dasharray:none;stroke-opacity:1" />
      <rect
         y="146.04622"
         x="80.888557"
         height="4.0915279"
         width="3.3546026"
         id="rect909-3-3-4-0-6-6-2-3-5"
         style="fill:none;fill-opacity:1;stroke:#c8c7b9;stroke-width:0.199235;stroke-miterlimit:4;stroke-dasharray:none;stroke-opacity:1" />
      <rect
         y="146.04622"
         x="85.036613"
         height="4.0915279"
         width="3.3546026"
         id="rect909-3-3-4-0-6-6-2-3-4"
         style="fill:none;fill-opacity:1;stroke:#c8c7b9;stroke-width:0.199235;stroke-miterlimit:4;stroke-dasharray:none;stroke-opacity:1" />
      <rect
         style="fill:none;fill-opacity:1;stroke:#c8c7b9;stroke-width:0.199235;stroke-miterlimit:4;stroke-dasharray:none;stroke-opacity:1"
         id="rect909-3-3-4-0-6-7"
         width="3.3546026"
         height="4.0915279"
         x="59.130608"
         y="152.27748" />
      <rect
         y="152.27748"
         x="63.25658"
         height="4.0915279"
         width="3.3546026"
         id="rect909-3-3-4-0-6-7-3"
         style="fill:none;fill-opacity:1;stroke:#c8c7b9;stroke-width:0.199235;stroke-miterlimit:4;stroke-dasharray:none;stroke-opacity:1" />
      <rect
         y="152.27748"
         x="69.336967"
         height="4.0915279"
         width="3.3546026"
         id="rect909-3-3-4-0-6-7-9"
         style="fill:none;fill-opacity:1;stroke:#c8c7b9;stroke-width:0.199235;stroke-miterlimit:4;stroke-dasharray:none;stroke-opacity:1" />
      <rect
         y="152.27748"
         x="73.462936"
         height="4.0915279"
         width="3.3546026"
         id="rect909-3-3-4-0-6-7-99"
         style="fill:none;fill-opacity:1;stroke:#c8c7b9;stroke-width:0.199235;stroke-miterlimit:4;stroke-dasharray:none;stroke-opacity:1" />
      <rect
         y="152.27748"
         x="78.374016"
         height="4.0915279"
         width="3.3546026"
         id="rect909-3-3-4-0-6-7-6"
         style="fill:none;fill-opacity:1;stroke:#c8c7b9;stroke-width:0.199235;stroke-miterlimit:4;stroke-dasharray:none;stroke-opacity:1" />
      <rect
         y="152.27748"
         x="82.474937"
         height="4.0915279"
         width="3.3546026"
         id="rect909-3-3-4-0-6-7-37"
         style="fill:none;fill-opacity:1;stroke:#c8c7b9;stroke-width:0.199235;stroke-miterlimit:4;stroke-dasharray:none;stroke-opacity:1" />
      <rect
         y="152.27748"
         x="86.455948"
         height="4.0915279"
         width="3.3546026"
         id="rect909-3-3-4-0-6-7-67"
         style="fill:none;fill-opacity:1;stroke:#c8c7b9;stroke-width:0.199235;stroke-miterlimit:4;stroke-dasharray:none;stroke-opacity:1" />
      <rect
         y="158.43651"
         x="55.106884"
         height="4.0915279"
         width="3.3546026"
         id="rect909-3-3-4-0-6-7-33"
         style="fill:none;fill-opacity:1;stroke:#c8c7b9;stroke-width:0.199235;stroke-miterlimit:4;stroke-dasharray:none;stroke-opacity:1" />
      <rect
         style="fill:none;fill-opacity:1;stroke:#c8c7b9;stroke-width:0.199235;stroke-miterlimit:4;stroke-dasharray:none;stroke-opacity:1"
         id="rect909-3-3-4-0-6-7-33-7"
         width="3.3546026"
         height="4.0915279"
         x="59.113899"
         y="158.43651" />
      <rect
         y="158.43651"
         x="63.289989"
         height="4.0915279"
         width="3.3546026"
         id="rect909-3-3-4-0-6-7-33-7-8"
         style="fill:none;fill-opacity:1;stroke:#c8c7b9;stroke-width:0.199235;stroke-miterlimit:4;stroke-dasharray:none;stroke-opacity:1" />
      <rect
         style="fill:none;fill-opacity:1;stroke:#c8c7b9;stroke-width:0.199235;stroke-miterlimit:4;stroke-dasharray:none;stroke-opacity:1"
         id="rect909-3-3-4-0-6-7-33-7-8-3"
         width="3.3546026"
         height="4.0915279"
         x="69.33696"
         y="158.43651" />
      <rect
         y="158.43651"
         x="73.479645"
         height="4.0915279"
         width="3.3546026"
         id="rect909-3-3-4-0-6-7-33-7-8-3-7"
         style="fill:none;fill-opacity:1;stroke:#c8c7b9;stroke-width:0.199235;stroke-miterlimit:4;stroke-dasharray:none;stroke-opacity:1" />
      <rect
         style="fill:none;fill-opacity:1;stroke:#c8c7b9;stroke-width:0.199235;stroke-miterlimit:4;stroke-dasharray:none;stroke-opacity:1"
         id="rect909-3-3-4-0-6-7-33-7-8-3-7-5"
         width="3.3546026"
         height="4.0915279"
         x="79.526619"
         y="158.43651" />
      <rect
         y="158.43651"
         x="83.669296"
         height="4.0915279"
         width="3.3546026"
         id="rect909-3-3-4-0-6-7-33-7-8-3-7-5-3"
         style="fill:none;fill-opacity:1;stroke:#c8c7b9;stroke-width:0.199235;stroke-miterlimit:4;stroke-dasharray:none;stroke-opacity:1" />
      <rect
         style="fill:none;fill-opacity:1;stroke:#c8c7b9;stroke-width:0.199235;stroke-miterlimit:4;stroke-dasharray:none;stroke-opacity:1"
         id="rect909-3-3-4-0-6-7-33-7-8-3-7-5-3-8"
         width="3.3546026"
         height="4.0915279"
         x="87.614487"
         y="158.43651" />
      <rect
         y="158.43651"
         x="91.730568"
         height="4.0915279"
         width="3.3546026"
         id="rect909-3-3-4-0-6-7-33-7-8-3-7-5-3-8-6"
         style="fill:none;fill-opacity:1;stroke:#c8c7b9;stroke-width:0.199235;stroke-miterlimit:4;stroke-dasharray:none;stroke-opacity:1" />
      <rect
         style="fill:none;fill-opacity:1;stroke:#c8c7b9;stroke-width:0.199235;stroke-miterlimit:4;stroke-dasharray:none;stroke-opacity:1"
         id="rect909-3-3-4-0-6-7-33-5"
         width="3.3546026"
         height="4.0915279"
         x="56.967392"
         y="164.61366" />
      <rect
         y="164.61366"
         x="61.076664"
         height="4.0915279"
         width="3.3546026"
         id="rect909-3-3-4-0-6-7-33-5-6"
         style="fill:none;fill-opacity:1;stroke:#c8c7b9;stroke-width:0.199235;stroke-miterlimit:4;stroke-dasharray:none;stroke-opacity:1" />
      <rect
         y="164.61366"
         x="65.202637"
         height="4.0915279"
         width="3.3546026"
         id="rect909-3-3-4-0-6-7-33-5-0"
         style="fill:none;fill-opacity:1;stroke:#c8c7b9;stroke-width:0.199235;stroke-miterlimit:4;stroke-dasharray:none;stroke-opacity:1" />
      <rect
         y="164.61366"
         x="69.445549"
         height="4.0915279"
         width="3.3546026"
         id="rect909-3-3-4-0-6-7-33-5-4"
         style="fill:none;fill-opacity:1;stroke:#c8c7b9;stroke-width:0.199235;stroke-miterlimit:4;stroke-dasharray:none;stroke-opacity:1" />
      <rect
         y="164.61366"
         x="73.513046"
         height="4.0915279"
         width="3.3546026"
         id="rect909-3-3-4-0-6-7-33-5-1"
         style="fill:none;fill-opacity:1;stroke:#c8c7b9;stroke-width:0.199235;stroke-miterlimit:4;stroke-dasharray:none;stroke-opacity:1" />
      <rect
         y="164.61366"
         x="77.705841"
         height="4.0915279"
         width="3.3546026"
         id="rect909-3-3-4-0-6-7-33-5-5"
         style="fill:none;fill-opacity:1;stroke:#c8c7b9;stroke-width:0.199235;stroke-miterlimit:4;stroke-dasharray:none;stroke-opacity:1" />
      <rect
         y="164.61366"
         x="83.53566"
         height="4.0915279"
         width="3.3546026"
         id="rect909-3-3-4-0-6-7-33-5-17"
         style="fill:none;fill-opacity:1;stroke:#c8c7b9;stroke-width:0.199235;stroke-miterlimit:4;stroke-dasharray:none;stroke-opacity:1" />
      <rect
         y="164.61366"
         x="87.661621"
         height="4.0915279"
         width="3.3546026"
         id="rect909-3-3-4-0-6-7-33-5-3"
         style="fill:none;fill-opacity:1;stroke:#c8c7b9;stroke-width:0.199235;stroke-miterlimit:4;stroke-dasharray:none;stroke-opacity:1" />
      <text
         id="text1009-7"
         y="173.87126"
         x="70.660667"
         style="font-style:normal;font-weight:normal;font-size:3.2575px;line-height:1.25;font-family:sans-serif;fill:#000000;fill-opacity:1;stroke:none;stroke-width:0.0814377"
         xml:space="preserve"><tspan
           id="tspan1023-97"
           style="font-style:normal;font-variant:normal;font-weight:bold;font-stretch:normal;font-size:0.977253px;font-family:sans-serif;-inkscape-font-specification:'sans-serif, Bold';font-variant-ligatures:normal;font-variant-caps:normal;font-variant-numeric:normal;font-variant-east-asian:normal;fill:#c8c7b9;fill-opacity:1;stroke-width:0.0814377"
           y="173.87126"
           x="70.660667"
           sodipodi:role="line">SICH IM NETZWERK</tspan></text>
      <path
         style="fill:none;stroke:#c8c7b9;stroke-width:0.265;stroke-linecap:butt;stroke-linejoin:miter;stroke-miterlimit:4;stroke-dasharray:0.265, 0.265;stroke-dashoffset:0;stroke-opacity:1;marker-end:url(#Arrow1Mend)"
         d="m 85.446813,169.52421 c 7.427867,7.38016 14.855737,6.59785 22.283597,0"
         id="path2725"
         inkscape:transform-center-x="0.033408691"
         inkscape:transform-center-y="-1.6370259"
         sodipodi:nodetypes="cc" />
      <text
         id="text1009-8"
         y="155.51672"
         x="124.56919"
         style="font-style:normal;font-weight:normal;font-size:3.74846px;line-height:1.25;font-family:sans-serif;fill:#000000;fill-opacity:1;stroke:none;stroke-width:0.093712"
         xml:space="preserve"><tspan
           id="tspan1023-4"
           style="font-style:normal;font-variant:normal;font-weight:bold;font-stretch:normal;font-size:1.12455px;font-family:sans-serif;-inkscape-font-specification:'sans-serif, Bold';font-variant-ligatures:normal;font-variant-caps:normal;font-variant-numeric:normal;font-variant-east-asian:normal;fill:#c8c7b9;fill-opacity:1;stroke-width:0.093712"
           y="155.51672"
           x="124.56919"
           sodipodi:role="line">KOALITION</tspan></text>
      <text
         xml:space="preserve"
         style="font-style:normal;font-weight:normal;font-size:3.74846px;line-height:1.25;font-family:sans-serif;fill:#000000;fill-opacity:1;stroke:none;stroke-width:0.093712"
         x="124.57743"
         y="156.74513"
         id="text1009-8-6"><tspan
           sodipodi:role="line"
           x="124.57743"
           y="156.74513"
           style="font-style:normal;font-variant:normal;font-weight:bold;font-stretch:normal;font-size:1.12455px;font-family:sans-serif;-inkscape-font-specification:'sans-serif, Bold';font-variant-ligatures:normal;font-variant-caps:normal;font-variant-numeric:normal;font-variant-east-asian:normal;fill:#c8c7b9;fill-opacity:1;stroke-width:0.093712"
           id="tspan1023-4-0">DES LERNENS</tspan></text>
      <text
         xml:space="preserve"
         style="font-style:normal;font-weight:normal;font-size:3.74846px;line-height:1.25;font-family:sans-serif;fill:#ff0000;fill-opacity:1;stroke:none;stroke-width:0.093712"
         x="144.1049"
         y="167.62645"
         id="text1009-8-2"><tspan
           sodipodi:role="line"
           x="144.1049"
           y="167.62645"
           style="font-style:normal;font-variant:normal;font-weight:bold;font-stretch:normal;font-size:1.12455px;font-family:sans-serif;-inkscape-font-specification:'sans-serif, Bold';font-variant-ligatures:normal;font-variant-caps:normal;font-variant-numeric:normal;font-variant-east-asian:normal;fill:#ff0000;fill-opacity:1;stroke-width:0.093712"
           id="tspan1023-4-2">LERN-INITIATIVE</tspan></text>
      <text
         id="text1009-8-6-4"
         y="168.89267"
         x="144.11314"
         style="font-style:normal;font-weight:normal;font-size:3.74846px;line-height:1.25;font-family:sans-serif;fill:#000000;fill-opacity:1;stroke:none;stroke-width:0.093712"
         xml:space="preserve"><tspan
           id="tspan1023-4-0-6"
           style="font-style:normal;font-variant:normal;font-weight:bold;font-stretch:normal;font-size:1.12455px;font-family:sans-serif;-inkscape-font-specification:'sans-serif, Bold';font-variant-ligatures:normal;font-variant-caps:normal;font-variant-numeric:normal;font-variant-east-asian:normal;fill:#fdb812;fill-opacity:1;stroke-width:0.093712"
           y="168.89267"
           x="144.11314"
           sodipodi:role="line">LERN-SUBINITIATIVE</tspan></text>
      <text
         xml:space="preserve"
         style="font-style:normal;font-variant:normal;font-weight:bold;font-stretch:normal;font-size:1.41529px;line-height:1.25;font-family:sans-serif;-inkscape-font-specification:'sans-serif, Bold';font-variant-ligatures:normal;font-variant-caps:normal;font-variant-numeric:normal;font-variant-east-asian:normal;fill:#000000;fill-opacity:1;stroke:none;stroke-width:0.0353823"
         x="144.50807"
         y="123.86121"
         id="text1009-8-4"><tspan
           sodipodi:role="line"
           x="144.50807"
           y="123.86121"
           style="font-style:normal;font-variant:normal;font-weight:bold;font-stretch:normal;font-size:1.41529px;font-family:sans-serif;-inkscape-font-specification:'sans-serif, Bold';font-variant-ligatures:normal;font-variant-caps:normal;font-variant-numeric:normal;font-variant-east-asian:normal;fill:#000000;fill-opacity:1;stroke-width:0.0353823"
           id="tspan1023-4-7">NETZWERK</tspan></text>
      <text
         id="text1009-8-4-2"
         y="123.87296"
         x="57.850338"
         style="font-style:normal;font-variant:normal;font-weight:bold;font-stretch:normal;font-size:1.41529px;line-height:1.25;font-family:sans-serif;-inkscape-font-specification:'sans-serif, Bold';font-variant-ligatures:normal;font-variant-caps:normal;font-variant-numeric:normal;font-variant-east-asian:normal;fill:#000000;fill-opacity:1;stroke:none;stroke-width:0.0353822"
         xml:space="preserve"><tspan
           id="tspan1023-4-7-3"
           style="font-style:normal;font-variant:normal;font-weight:bold;font-stretch:normal;font-size:1.41529px;font-family:sans-serif;-inkscape-font-specification:'sans-serif, Bold';font-variant-ligatures:normal;font-variant-caps:normal;font-variant-numeric:normal;font-variant-east-asian:normal;fill:#000000;fill-opacity:1;stroke-width:0.0353822"
           y="123.87296"
           x="57.850338"
           sodipodi:role="line">HIERARCHIE</tspan></text>
      <path
         style="fill:none;stroke:#c8c7b9;stroke-width:0.5;stroke-linecap:butt;stroke-linejoin:miter;stroke-miterlimit:4;stroke-dasharray:none;stroke-opacity:1"
         d="m 120.50353,136.14229 c 3.37816,6.52009 3.37816,6.52009 3.37816,6.52009"
         id="path3223" />
      <path
         style="fill:none;stroke:#c8c7b9;stroke-width:0.5;stroke-linecap:butt;stroke-linejoin:miter;stroke-miterlimit:4;stroke-dasharray:none;stroke-opacity:1"
         d="m 131.18331,144.1336 c 7.91786,-6.98242 7.91786,-6.98242 7.91786,-6.98242"
         id="path3225" />
      <path
         style="fill:none;stroke:#c8c7b9;stroke-width:0.5;stroke-linecap:butt;stroke-linejoin:miter;stroke-miterlimit:4;stroke-dasharray:none;stroke-opacity:1"
         d="m 130.94945,151.75078 c 7.18286,6.9156 7.18286,6.9156 7.18286,6.9156"
         id="path3257" />
      <path
         style="fill:none;stroke:#c8c7b9;stroke-width:0.5;stroke-linecap:butt;stroke-linejoin:miter;stroke-miterlimit:4;stroke-dasharray:none;stroke-opacity:1"
         d="m 122.66409,152.45236 c -4.71062,5.27858 -4.74403,5.27858 -4.74403,5.27858"
         id="path3259" />
      <path
         style="fill:none;stroke:#c8c7b9;stroke-width:0.264583px;stroke-linecap:butt;stroke-linejoin:miter;stroke-opacity:1"
         d="m 112.87535,128.28118 c 1.20271,1.36975 1.186,1.36975 1.186,1.36975"
         id="path3267" />
      <path
         style="fill:none;stroke:#c8c7b9;stroke-width:0.264583px;stroke-linecap:butt;stroke-linejoin:miter;stroke-opacity:1"
         d="m 120.02481,127.57959 c -0.98556,1.33635 -0.98556,1.31965 -0.98556,1.31965"
         id="path3269" />
      <path
         style="fill:none;stroke:#c8c7b9;stroke-width:0.264583px;stroke-linecap:butt;stroke-linejoin:miter;stroke-opacity:1"
         d="m 113.12591,136.46631 c 0.83522,-0.96886 0.83522,-0.96886 0.83522,-0.96886"
         id="path3271" />
      <path
         style="fill:none;stroke:#c8c7b9;stroke-width:0.264583px;stroke-linecap:butt;stroke-linejoin:miter;stroke-opacity:1"
         d="m 123.18193,133.39271 c -1.93771,-0.23387 -1.93771,-0.23387 -1.93771,-0.23387"
         id="path3273" />
      <g
         id="g3265"
         transform="translate(4.0632441,1.5119048)">
        <ellipse
           style="fill:#ff0000;fill-opacity:1;stroke:none;stroke-width:0.191507;stroke-miterlimit:4;stroke-dasharray:none;stroke-opacity:1"
           id="path1107-2"
           cx="112.9947"
           cy="131.06375"
           rx="4.435565"
           ry="4.3303156" />
        <path
           d="m 110.59946,130.2939 c 0.40201,0 0.72761,-0.32651 0.72761,-0.72761 0,-0.402 -0.3256,-0.7276 -0.72761,-0.7276 -0.402,0 -0.7276,0.3256 -0.7276,0.7276 0,0.4011 0.3256,0.72761 0.7276,0.72761 z m 0,0.3638 c -0.48476,0 -1.4552,0.24284 -1.4552,0.72761 v 0.3638 h 2.91041 v -0.3638 c 0,-0.48477 -0.97044,-0.72761 -1.45521,-0.72761 z"
           id="path989-9"
           style="fill:#ffffff;fill-opacity:1;stroke-width:0.0909508" />
        <path
           style="fill:#ffffff;fill-opacity:1;stroke-width:0.0909508"
           id="path989-9-1"
           d="m 114.55688,129.02973 c 0.40201,0 0.72761,-0.32651 0.72761,-0.72761 0,-0.402 -0.3256,-0.7276 -0.72761,-0.7276 -0.402,0 -0.7276,0.3256 -0.7276,0.7276 0,0.4011 0.3256,0.72761 0.7276,0.72761 z m 0,0.3638 c -0.48476,0 -1.4552,0.24284 -1.4552,0.72761 v 0.3638 h 2.91041 v -0.3638 c 0,-0.48477 -0.97044,-0.72761 -1.45521,-0.72761 z" />
        <path
           d="m 113.50855,132.83489 c 0.40201,0 0.72761,-0.32651 0.72761,-0.72761 0,-0.402 -0.3256,-0.7276 -0.72761,-0.7276 -0.402,0 -0.7276,0.3256 -0.7276,0.7276 0,0.4011 0.3256,0.72761 0.7276,0.72761 z m 0,0.3638 c -0.48476,0 -1.4552,0.24284 -1.4552,0.72761 v 0.3638 h 2.91041 v -0.3638 c 0,-0.48477 -0.97044,-0.72761 -1.45521,-0.72761 z"
           id="path989-9-1-2"
           style="fill:#ffffff;fill-opacity:1;stroke-width:0.0909508" />
      </g>
      <path
         style="fill:none;stroke:#c8c7b9;stroke-width:0.264583px;stroke-linecap:butt;stroke-linejoin:miter;stroke-opacity:1"
         d="m 139.08446,129.93491 c 1.25283,1.26953 1.25283,1.26953 1.25283,1.26953"
         id="path3275" />
      <path
         style="fill:none;stroke:#c8c7b9;stroke-width:0.264583px;stroke-linecap:butt;stroke-linejoin:miter;stroke-opacity:1"
         d="m 146.76846,128.08073 c -1.45328,2.40542 -1.45328,2.40542 -1.45328,2.40542"
         id="path3277" />
      <path
         style="fill:none;stroke:#c8c7b9;stroke-width:0.264583px;stroke-linecap:butt;stroke-linejoin:miter;stroke-opacity:1"
         d="m 148.42219,137.91958 c -1.73725,-1.18601 -1.72054,-1.18601 -1.72054,-1.18601"
         id="path3279" />
      <g
         id="g3285"
         transform="translate(4.0632441,1.5119048)">
        <ellipse
           ry="4.3303156"
           rx="4.435565"
           cy="132.69931"
           cx="139.1806"
           id="path1107-2-0"
           style="fill:#ff0000;fill-opacity:1;stroke:none;stroke-width:0.191507;stroke-miterlimit:4;stroke-dasharray:none;stroke-opacity:1" />
        <path
           style="fill:#ffffff;fill-opacity:1;stroke-width:0.0909508"
           id="path989-9-0"
           d="m 136.73855,132.17298 c 0.40201,0 0.72761,-0.32651 0.72761,-0.72761 0,-0.402 -0.3256,-0.7276 -0.72761,-0.7276 -0.402,0 -0.7276,0.3256 -0.7276,0.7276 0,0.4011 0.3256,0.72761 0.7276,0.72761 z m 0,0.3638 c -0.48476,0 -1.4552,0.24284 -1.4552,0.72761 v 0.3638 h 2.91041 v -0.3638 c 0,-0.48477 -0.97044,-0.72761 -1.45521,-0.72761 z" />
        <path
           d="m 140.69597,130.90881 c 0.40201,0 0.72761,-0.32651 0.72761,-0.72761 0,-0.402 -0.3256,-0.7276 -0.72761,-0.7276 -0.402,0 -0.7276,0.3256 -0.7276,0.7276 0,0.4011 0.3256,0.72761 0.7276,0.72761 z m 0,0.3638 c -0.48476,0 -1.4552,0.24284 -1.4552,0.72761 v 0.3638 h 2.91041 v -0.3638 c 0,-0.48477 -0.97044,-0.72761 -1.45521,-0.72761 z"
           id="path989-9-1-7"
           style="fill:#ffffff;fill-opacity:1;stroke-width:0.0909508" />
        <path
           style="fill:#ffffff;fill-opacity:1;stroke-width:0.0909508"
           id="path989-9-1-2-7"
           d="m 139.64764,134.71397 c 0.40201,0 0.72761,-0.32651 0.72761,-0.72761 0,-0.402 -0.3256,-0.7276 -0.72761,-0.7276 -0.402,0 -0.7276,0.3256 -0.7276,0.7276 0,0.4011 0.3256,0.72761 0.7276,0.72761 z m 0,0.3638 c -0.48476,0 -1.4552,0.24284 -1.4552,0.72761 v 0.3638 h 2.91041 v -0.3638 c 0,-0.48477 -0.97044,-0.72761 -1.45521,-0.72761 z" />
      </g>
      <path
         style="fill:none;stroke:#c8c7b9;stroke-width:0.264583px;stroke-linecap:butt;stroke-linejoin:miter;stroke-opacity:1"
         d="m 139.08446,156.17743 c 1.28624,1.38646 1.30294,1.38646 1.30294,1.38646"
         id="path3287" />
      <path
         style="fill:none;stroke:#c8c7b9;stroke-width:0.264583px;stroke-linecap:butt;stroke-linejoin:miter;stroke-opacity:1"
         d="m 146.25063,155.47585 c -0.90204,1.35305 -0.90204,1.35305 -0.90204,1.35305"
         id="path3289" />
      <path
         style="fill:none;stroke:#c8c7b9;stroke-width:0.264583px;stroke-linecap:butt;stroke-linejoin:miter;stroke-opacity:1"
         d="m 148.48901,162.05736 c -1.11919,-0.18374 -1.11919,-0.18374 -1.11919,-0.18374"
         id="path3291" />
      <path
         style="fill:none;stroke:#c8c7b9;stroke-width:0.264583px;stroke-linecap:butt;stroke-linejoin:miter;stroke-opacity:1"
         d="m 140.45422,166.26686 c 1.11919,-1.83748 1.13589,-1.83748 1.13589,-1.83748"
         id="path3293" />
      <g
         id="g3299"
         transform="translate(4.0632441,1.5119048)">
        <ellipse
           style="fill:#ff0000;fill-opacity:1;stroke:none;stroke-width:0.191507;stroke-miterlimit:4;stroke-dasharray:none;stroke-opacity:1"
           id="path1107-2-0-0"
           cx="139.24742"
           cy="159.02536"
           rx="4.435565"
           ry="4.3303156" />
        <path
           d="m 136.88029,158.30058 c 0.40201,0 0.72761,-0.32651 0.72761,-0.72761 0,-0.402 -0.3256,-0.7276 -0.72761,-0.7276 -0.402,0 -0.7276,0.3256 -0.7276,0.7276 0,0.4011 0.3256,0.72761 0.7276,0.72761 z m 0,0.3638 c -0.48476,0 -1.4552,0.24284 -1.4552,0.72761 v 0.3638 h 2.91041 v -0.3638 c 0,-0.48477 -0.97044,-0.72761 -1.45521,-0.72761 z"
           id="path989-9-0-8"
           style="fill:#ffffff;fill-opacity:1;stroke-width:0.0909508" />
        <path
           style="fill:#ffffff;fill-opacity:1;stroke-width:0.0909508"
           id="path989-9-1-7-9"
           d="m 140.83771,157.03641 c 0.40201,0 0.72761,-0.32651 0.72761,-0.72761 0,-0.402 -0.3256,-0.7276 -0.72761,-0.7276 -0.402,0 -0.7276,0.3256 -0.7276,0.7276 0,0.4011 0.3256,0.72761 0.7276,0.72761 z m 0,0.3638 c -0.48476,0 -1.4552,0.24284 -1.4552,0.72761 v 0.3638 h 2.91041 v -0.3638 c 0,-0.48477 -0.97044,-0.72761 -1.45521,-0.72761 z" />
        <path
           d="m 139.78938,160.84157 c 0.40201,0 0.72761,-0.32651 0.72761,-0.72761 0,-0.402 -0.3256,-0.7276 -0.72761,-0.7276 -0.402,0 -0.7276,0.3256 -0.7276,0.7276 0,0.4011 0.3256,0.72761 0.7276,0.72761 z m 0,0.3638 c -0.48476,0 -1.4552,0.24284 -1.4552,0.72761 v 0.3638 h 2.91041 v -0.3638 c 0,-0.48477 -0.97044,-0.72761 -1.45521,-0.72761 z"
           id="path989-9-1-2-7-0"
           style="fill:#ffffff;fill-opacity:1;stroke-width:0.0909508" />
      </g>
      <path
         style="fill:none;stroke:#c8c7b9;stroke-width:0.264583px;stroke-linecap:butt;stroke-linejoin:miter;stroke-opacity:1"
         d="m 109.43425,158.95036 c 1.1359,0.61805 1.1526,0.61805 1.1526,0.61805"
         id="path3301" />
      <path
         style="fill:none;stroke:#c8c7b9;stroke-width:0.264583px;stroke-linecap:butt;stroke-linejoin:miter;stroke-opacity:1"
         d="m 110.70378,164.99733 c 0.86863,-0.71829 0.86863,-0.71829 0.86863,-0.71829"
         id="path3303" />
      <path
         style="fill:none;stroke:#c8c7b9;stroke-width:0.264583px;stroke-linecap:butt;stroke-linejoin:miter;stroke-opacity:1"
         d="m 112.80853,167.75354 c 0.83521,-2.47224 0.80181,-2.47224 0.80181,-2.47224"
         id="path3305" />
      <path
         style="fill:none;stroke:#c8c7b9;stroke-width:0.264583px;stroke-linecap:butt;stroke-linejoin:miter;stroke-opacity:1"
         d="m 116.98461,166.26686 c -0.61806,-1.16931 -0.61806,-1.16931 -0.61806,-1.16931"
         id="path3307" />
      <path
         style="fill:none;stroke:#c8c7b9;stroke-width:0.264583px;stroke-linecap:butt;stroke-linejoin:miter;stroke-opacity:1"
         d="m 119.82435,162.67542 c -1.13589,-0.13363 -1.13589,-0.13363 -1.13589,-0.13363"
         id="path3309" />
      <g
         id="g3315"
         transform="translate(4.0632441,1.5119048)">
        <ellipse
           ry="4.3303156"
           rx="4.435565"
           cy="159.69354"
           cx="110.51595"
           id="path1107-2-0-0-7"
           style="fill:#ff0000;fill-opacity:1;stroke:none;stroke-width:0.191507;stroke-miterlimit:4;stroke-dasharray:none;stroke-opacity:1" />
        <path
           style="fill:#ffffff;fill-opacity:1;stroke-width:0.0909508"
           id="path989-9-0-8-4"
           d="m 108.05961,159.15102 c 0.40201,0 0.72761,-0.32651 0.72761,-0.72761 0,-0.402 -0.3256,-0.7276 -0.72761,-0.7276 -0.402,0 -0.7276,0.3256 -0.7276,0.7276 0,0.4011 0.3256,0.72761 0.7276,0.72761 z m 0,0.3638 c -0.48476,0 -1.4552,0.24284 -1.4552,0.72761 v 0.3638 h 2.91041 v -0.3638 c 0,-0.48477 -0.97044,-0.72761 -1.45521,-0.72761 z" />
        <path
           d="m 112.01703,157.88685 c 0.40201,0 0.72761,-0.32651 0.72761,-0.72761 0,-0.402 -0.3256,-0.7276 -0.72761,-0.7276 -0.402,0 -0.7276,0.3256 -0.7276,0.7276 0,0.4011 0.3256,0.72761 0.7276,0.72761 z m 0,0.3638 c -0.48476,0 -1.4552,0.24284 -1.4552,0.72761 v 0.3638 h 2.91041 v -0.3638 c 0,-0.48477 -0.97044,-0.72761 -1.45521,-0.72761 z"
           id="path989-9-1-7-9-4"
           style="fill:#ffffff;fill-opacity:1;stroke-width:0.0909508" />
        <path
           style="fill:#ffffff;fill-opacity:1;stroke-width:0.0909508"
           id="path989-9-1-2-7-0-0"
           d="m 110.9687,161.69201 c 0.40201,0 0.72761,-0.32651 0.72761,-0.72761 0,-0.402 -0.3256,-0.7276 -0.72761,-0.7276 -0.402,0 -0.7276,0.3256 -0.7276,0.7276 0,0.4011 0.3256,0.72761 0.7276,0.72761 z m 0,0.3638 c -0.48476,0 -1.4552,0.24284 -1.4552,0.72761 v 0.3638 h 2.91041 v -0.3638 c 0,-0.48477 -0.97044,-0.72761 -1.45521,-0.72761 z" />
      </g>
      <path
         style="fill:none;stroke:#c8c7b9;stroke-width:0.1;stroke-linecap:butt;stroke-linejoin:miter;stroke-miterlimit:4;stroke-dasharray:none;stroke-opacity:1"
         d="m 98.22155,126.95302 c 0,43.69857 -0.06682,43.63175 -0.06682,43.63175"
         id="path3341" />
    </g>
  </g>
</svg>
